<svg width="20" height="23" viewBox="0 0 20 23" fill="none" xmlns="http://www.w3.org/2000/svg">
<path d="M10 0C5.39659 0 1.66451 3.8617 1.66451 8.625V13.505L0.106334 17.1591C0.0223992 17.3561 -0.0127371 17.5715 0.00410756 17.786C0.0209522 18.0005 0.0892456 18.2073 0.202802 18.3876C0.316359 18.5679 0.471591 18.7161 0.654439 18.8186C0.837287 18.9212 1.04197 18.9749 1.24996 18.975H18.75C18.958 18.9749 19.1627 18.9212 19.3456 18.8186C19.5284 18.7161 19.6836 18.5679 19.7972 18.3876C19.9108 18.2073 19.979 18.0005 19.9959 17.786C20.0127 17.5715 19.9776 17.3561 19.8937 17.1591L18.3355 13.505V8.625C18.3355 3.8617 14.6034 0 10 0ZM10 23C9.21197 23.0001 8.44937 22.7114 7.84747 22.1852C7.24557 21.6589 6.84327 20.929 6.71193 20.125H13.2881C13.1567 20.929 12.7544 21.6589 12.1525 22.1852C11.5506 22.7114 10.788 23.0001 10 23Z" fill="#D61355"/>
</svg>
