<svg width="55" height="54" viewBox="0 0 55 54" fill="none" xmlns="http://www.w3.org/2000/svg">
<rect x="0.5" width="54" height="54" rx="27" fill="#E94B64"/>
<path d="M24.9766 35C26.6334 35 27.9766 36.3431 27.9766 38C27.9766 39.6569 26.6334 41 24.9766 41C23.3197 41 21.9766 39.6569 21.9766 38C21.9766 36.3431 23.3197 35 24.9766 35ZM35.9766 35C37.6334 35 38.9766 36.3431 38.9766 38C38.9766 39.6569 37.6334 41 35.9766 41C34.3197 41 32.9766 39.6569 32.9766 38C32.9766 36.3431 34.3197 35 35.9766 35ZM16.9922 17H18.0781L18.3887 18L18.415 18.0742L18.4775 18.2852L18.6016 18.6855L18.5957 18.6865L19.4668 21.625H24.6406L25.5781 24.625H20.3564L22.0967 30.5H39.0166L39.9082 28.5625H29.8438C29.1968 28.5625 28.6231 28.1474 28.4199 27.5332L27.4443 24.585L27.4375 24.5859L27.292 24.123L27.0762 23.4707C27.0559 23.4093 27.0404 23.3469 27.0283 23.2842L26.4688 21.5049H28.4189C28.4459 21.5034 28.4728 21.5 28.5 21.5H42.0205L42.6797 20H25.8984L24.8984 17H44.9766L45.165 17.0117C45.5984 17.0666 45.9901 17.3088 46.2324 17.6797C46.4748 18.0509 46.5394 18.5077 46.415 18.9268L46.3496 19.1035L44.373 23.6035C44.1336 24.1482 43.595 24.5 43 24.5H30.5752L30.9268 25.5625H42.25C42.7613 25.5625 43.2369 25.8233 43.5127 26.2539C43.7884 26.6844 43.826 27.2251 43.6123 27.6895L41.3389 32.627C41.094 33.1588 40.5621 33.5 39.9766 33.5H20.9766C20.3123 33.5 19.7268 33.0627 19.5381 32.4258L15.7217 19.5479V19.5488L15.624 19.2148L15.5381 18.9258L15.5303 18.8955L14.9766 17H16.9521C16.9655 16.9998 16.9789 16.9999 16.9922 17ZM16.9766 31C17.5288 31 17.9766 31.4477 17.9766 32C17.9766 32.5523 17.5288 33 16.9766 33H12.9766C12.4243 33 11.9766 32.5523 11.9766 32C11.9766 31.4477 12.4243 31 12.9766 31H16.9766ZM14.9766 27C15.5288 27 15.9766 27.4477 15.9766 28C15.9766 28.5523 15.5288 29 14.9766 29H9.52344C8.97115 29 8.52344 28.5523 8.52344 28C8.52344 27.4477 8.97115 27 9.52344 27H14.9766ZM17.9766 16H11.4766C10.6481 16 9.97656 15.3284 9.97656 14.5C9.97656 13.6716 10.6481 13 11.4766 13H16.9766L17.9766 16Z" fill="white"/>
</svg>
