<svg width="23" height="23" viewBox="0 0 23 23" fill="none" xmlns="http://www.w3.org/2000/svg">
<path d="M3.72973 3.28565C3.72975 2.65137 3.93815 2.03066 4.3298 1.49843C4.72144 0.966197 5.27958 0.545205 5.93684 0.286269C6.5941 0.0273325 7.32239 -0.0584794 8.03379 0.0391913C8.74519 0.136862 9.4093 0.41384 9.94595 0.836692C10.4826 0.41384 11.1467 0.136862 11.8581 0.0391913C12.5695 -0.0584794 13.2978 0.0273325 13.955 0.286269C14.6123 0.545205 15.1704 0.966197 15.5621 1.49843C15.9537 2.03066 16.1621 2.65137 16.1622 3.28565V5.47614H18.3378C18.75 5.47614 19.1453 5.62037 19.4367 5.87712C19.7282 6.13387 19.8919 6.48209 19.8919 6.84519V10.6588C18.7403 10.1303 17.4606 9.85522 16.1622 9.8571C15.1788 9.8571 14.2364 10.0115 13.3649 10.2952V5.47614H14.6081V3.28565C14.608 2.90402 14.4785 2.53111 14.2363 2.2147C13.9941 1.89828 13.6502 1.65276 13.2487 1.50959C12.8471 1.36641 12.4062 1.3321 11.9823 1.41106C11.5585 1.49001 11.1711 1.67862 10.8697 1.95274C11.0807 2.3725 11.1896 2.82656 11.1892 3.28565V5.47614H11.8108V10.9764C10.6669 11.6198 9.72548 12.5068 9.07359 13.5554C8.4217 14.6041 8.08035 15.7806 8.08108 16.9762C8.08108 18.889 8.93768 20.6255 10.3314 21.9048H4.04054C3.50993 21.9048 2.98451 21.8127 2.49429 21.6338C2.00407 21.4549 1.55865 21.1927 1.18345 20.8622C0.808248 20.5317 0.510624 20.1393 0.307568 19.7074C0.104512 19.2755 0 18.8127 0 18.3452V6.84519C0 6.48209 0.16373 6.13387 0.455172 5.87712C0.746614 5.62037 1.14189 5.47614 1.55405 5.47614H3.72973V3.28565ZM9.63513 5.47614V3.28565C9.63513 3.03395 9.57886 2.78471 9.46952 2.55217C9.36018 2.31963 9.19992 2.10834 8.9979 1.93036C8.79587 1.75238 8.55602 1.6112 8.29205 1.51488C8.02809 1.41856 7.74517 1.36898 7.45946 1.36898C7.17375 1.36898 6.89083 1.41856 6.62686 1.51488C6.3629 1.6112 6.12305 1.75238 5.92102 1.93036C5.71899 2.10834 5.55874 2.31963 5.4494 2.55217C5.34006 2.78471 5.28378 3.03395 5.28378 3.28565V5.47614H9.63513ZM23 16.9762C23 20.303 19.9385 23 16.1622 23C12.3858 23 9.32432 20.303 9.32432 16.9762C9.32432 13.6494 12.3858 10.9523 16.1622 10.9523C19.9385 10.9523 23 13.6494 23 16.9762ZM20.3314 14.3985C20.2148 14.2959 20.0567 14.2382 19.8919 14.2382C19.7271 14.2382 19.569 14.2959 19.4524 14.3985L14.9189 18.3923L12.8719 16.589C12.7547 16.4893 12.5977 16.4341 12.4347 16.4353C12.2717 16.4365 12.1158 16.4941 12.0005 16.5957C11.8853 16.6972 11.8199 16.8346 11.8185 16.9781C11.8171 17.1217 11.8797 17.2601 11.9929 17.3633L14.4794 19.5538C14.596 19.6565 14.7541 19.7142 14.9189 19.7142C15.0838 19.7142 15.2418 19.6565 15.3584 19.5538L20.3314 15.1729C20.4479 15.0702 20.5134 14.9309 20.5134 14.7857C20.5134 14.6405 20.4479 14.5012 20.3314 14.3985Z" fill="white"/>
</svg>
