<svg width="33" height="32" viewBox="0 0 33 32" fill="none" xmlns="http://www.w3.org/2000/svg">
<path d="M6.91699 6H25.583C26.0384 6 26.4677 6.17399 26.7773 6.4707C27.0853 6.766 27.25 7.15728 27.25 7.55566V20.333C27.25 20.7313 27.0853 21.1227 26.7773 21.418C26.4677 21.7147 26.0384 21.8887 25.583 21.8887H9.98535C9.46965 21.8887 8.9739 22.0885 8.60156 22.4453L5.25 25.6562V7.55566C5.25 7.15728 5.41466 6.766 5.72266 6.4707C6.03227 6.17399 6.46156 6 6.91699 6Z" stroke="#9F9F9F" stroke-width="2" stroke-linecap="round" stroke-linejoin="round"/>
<rect x="10.25" y="11" width="12" height="2" rx="1" fill="#9F9F9F"/>
<rect x="10.25" y="15" width="8" height="2" rx="1" fill="#9F9F9F"/>
</svg>
