<svg width="27" height="27" viewBox="0 0 27 27" fill="none" xmlns="http://www.w3.org/2000/svg">
<path d="M5.625 5.21875H21.375C21.7199 5.21875 22.0429 5.35044 22.2744 5.57227C22.5043 5.79269 22.625 6.08248 22.625 6.375V17.1562C22.625 17.4488 22.5043 17.7386 22.2744 17.959C22.0429 18.1808 21.7199 18.3125 21.375 18.3125H8.27637C7.76082 18.3126 7.2648 18.5114 6.89258 18.8682L4.375 21.2812V6.375C4.375 6.08248 4.49566 5.79269 4.72559 5.57227C4.95706 5.35044 5.28007 5.21875 5.625 5.21875Z" stroke="#D61355" stroke-width="2" stroke-linecap="round" stroke-linejoin="round"/>
<rect x="8.4375" y="9.28125" width="10.125" height="1.6875" rx="0.84375" fill="#D61355"/>
<rect x="8.4375" y="12.6562" width="6.75" height="1.6875" rx="0.84375" fill="#D61355"/>
</svg>
