<svg width="27" height="30" viewBox="0 0 27 30" fill="none" xmlns="http://www.w3.org/2000/svg">
<path d="M16.1352 5.32945C16.135 4.35935 16.3779 3.4076 16.8375 2.57686C17.2972 1.74612 17.9562 1.0679 18.7435 0.615343C19.5308 0.162788 20.4166 -0.0469313 21.3052 0.00880271C22.1938 0.0645368 23.0516 0.383609 23.7861 0.93161C23.3691 1.31788 23.0831 1.84549 22.9738 2.42995C22.8646 3.01442 22.9384 3.62193 23.1836 4.15521C23.4287 4.68848 23.831 5.11668 24.3259 5.37123C24.8209 5.62578 25.3799 5.69196 25.9134 5.55917V7.58402L26.9608 10.4378C26.9938 10.5276 27.0061 10.6249 26.9967 10.7211C26.9872 10.8173 26.9562 10.9096 26.9065 10.9897C26.8567 11.0699 26.7897 11.1355 26.7113 11.1809C26.6329 11.2263 26.5454 11.2501 26.4566 11.2501H15.592C15.5032 11.25 15.4159 11.2263 15.3375 11.1809C15.2591 11.1356 15.1922 11.07 15.1424 10.9899C15.0927 10.9098 15.0617 10.8177 15.0522 10.7215C15.0427 10.6254 15.0549 10.5282 15.0878 10.4384L16.1352 7.58343V5.32945ZM18.9193 12.4342C19.0389 12.9433 19.3109 13.3943 19.6921 13.716C20.0734 14.0377 20.5421 14.2117 21.0243 14.2104C21.5065 14.2117 21.9752 14.0377 22.3565 13.716C22.7377 13.3943 23.0097 12.9433 23.1293 12.4342H18.9193ZM25.3702 4.73739C25.8024 4.73739 26.2169 4.55025 26.5225 4.21715C26.8282 3.88405 26.9999 3.43227 26.9999 2.9612C26.9999 2.49013 26.8282 2.03835 26.5225 1.70525C26.2169 1.37215 25.8024 1.18501 25.3702 1.18501C24.9379 1.18501 24.5234 1.37215 24.2178 1.70525C23.9122 2.03835 23.7405 2.49013 23.7405 2.9612C23.7405 3.43227 23.9122 3.88405 24.2178 4.21715C24.5234 4.55025 24.9379 4.73739 25.3702 4.73739Z" fill="#9F9F9F"/>
<path d="M4.17171 24.4127C3.06531 24.4127 2.00422 23.9722 1.22187 23.1881C0.439518 22.404 0 21.3406 0 20.2317V9.29673C0 8.18786 0.439518 7.1244 1.22187 6.34031C2.00422 5.55622 3.06531 5.11572 4.17171 5.11572H21.5004C22.0482 5.11572 22.5907 5.22387 23.0968 5.43398C23.603 5.6441 24.0628 5.95207 24.4502 6.34031C24.8376 6.72856 25.1449 7.18947 25.3545 7.69673C25.5642 8.20399 25.6721 8.74768 25.6721 9.29673V20.2317C25.6721 20.7807 25.5642 21.3244 25.3545 21.8317C25.1449 22.339 24.8376 22.7999 24.4502 23.1881C24.0628 23.5764 23.603 23.8843 23.0968 24.0944C22.5907 24.3046 22.0482 24.4127 21.5004 24.4127H14.1351L7.70163 29.2369C7.46324 29.4158 7.17991 29.5246 6.88334 29.5512C6.58677 29.5778 6.28866 29.5212 6.02236 29.3877C5.75607 29.2542 5.53209 29.049 5.3755 28.7952C5.21891 28.5414 5.13588 28.2489 5.1357 27.9505V24.4127H4.17171ZM13.4958 22.483H21.5004C22.0961 22.483 22.6675 22.2458 23.0888 21.8236C23.51 21.4014 23.7467 20.8288 23.7467 20.2317V9.29673C23.7467 8.69965 23.51 8.12702 23.0888 7.70482C22.6675 7.28261 22.0961 7.04542 21.5004 7.04542H4.17171C3.57596 7.04542 3.0046 7.28261 2.58333 7.70482C2.16207 8.12702 1.92541 8.69965 1.92541 9.29673V20.2317C1.92541 21.4744 2.93175 22.483 4.17171 22.483H7.05854V27.3072L13.4958 22.483Z" fill="#9F9F9F"/>
<rect x="4.86865" y="11.9368" width="11.0656" height="2.27366" rx="1.13683" fill="#AFAFAF"/>
<rect x="4.86865" y="15.9156" width="7.52458" height="2.27366" rx="1.13683" fill="#AFAFAF"/>
</svg>
