<?xml version="1.0" encoding="UTF-8"?>
<svg version="1.1" xmlns="http://www.w3.org/2000/svg" width="800" height="800">
<path d="M0 0 C264 0 528 0 800 0 C800 264 800 528 800 800 C536 800 272 800 0 800 C0 536 0 272 0 0 Z " fill="#FEFEFE" transform="translate(0,0)"/>
<path d="M0 0 C1.16402344 0.00773437 1.16402344 0.00773437 2.3515625 0.015625 C3.12242187 0.01046875 3.89328125 0.0053125 4.6875 0 C7.27525962 0.3002861 8.7624577 0.89998703 10.9765625 2.265625 C12.06982422 3.98632813 12.06982422 3.98632813 12.90625 6.046875 C13.22376221 6.80202393 13.54127441 7.55717285 13.8684082 8.33520508 C14.19284912 9.13724365 14.51729004 9.93928223 14.8515625 10.765625 C17.7556442 17.63148553 20.91446843 23.99873652 24.9765625 30.265625 C27.9765625 35.00801376 27.9765625 35.00801376 27.9765625 37.265625 C28.58951172 37.30526367 29.20246094 37.34490234 29.83398438 37.38574219 C63.3664542 39.6555167 63.3664542 39.6555167 68.9765625 45.265625 C69.60524747 49.31715037 69.89200778 51.79924304 67.69140625 55.32421875 C64.15453617 59.45728105 60.10916584 62.90529079 55.9609375 66.40234375 C53.1202124 69.06971752 50.88959451 72.09510484 48.6171875 75.25 C46.9765625 77.265625 46.9765625 77.265625 44.89746094 78.57983398 C42.76548656 80.10644992 42.76548656 80.10644992 42.515625 82.5715332 C42.73331729 89.36637736 43.59841648 95.79984572 44.9765625 102.453125 C46.276326 108.80703645 47.44669302 114.76335826 46.9765625 121.265625 C44.49020326 124.88214753 43.04464429 126.06022466 38.7265625 126.890625 C34.9765625 126.265625 34.9765625 126.265625 25.9765625 121.265625 C25.9765625 132.155625 25.9765625 143.045625 25.9765625 154.265625 C29.90191895 154.24991455 33.82727539 154.2342041 37.87158203 154.21801758 C50.87542537 154.16819437 63.87926735 154.13497198 76.88318062 154.11018848 C84.76347877 154.09476826 92.64368601 154.07377231 100.52392578 154.03930664 C107.39827569 154.00925494 114.27255971 153.99001486 121.14697349 153.98335952 C124.78155869 153.97947374 128.41595551 153.97044488 132.05047989 153.94843483 C136.12374209 153.9239716 140.19668396 153.92366502 144.27001953 153.92504883 C146.04596497 153.90887009 146.04596497 153.90887009 147.85778809 153.8923645 C170.2719278 153.97417231 191.05096098 162.38748388 206.9765625 178.265625 C223.50968377 196.01313561 229.75150328 215.8455571 229.2265625 239.703125 C229.20643112 241.32094099 229.18819229 242.93878167 229.171875 244.55664062 C229.12848582 248.46026327 229.05984288 252.36265811 228.9765625 256.265625 C230.21631836 256.24991455 231.45607422 256.2342041 232.73339844 256.21801758 C237.38518638 256.16323066 242.03694649 256.12909951 246.68896484 256.10083008 C248.69259455 256.08585358 250.69619211 256.06546519 252.69970703 256.03930664 C271.59887721 255.79894313 287.22301099 257.28633929 301.63647461 270.69335938 C311.72309002 280.63388711 317.23290343 292.8940158 317.39425659 307.08981323 C317.38975494 308.00231842 317.3852533 308.91482361 317.38061523 309.85498047 C317.39091011 311.34762421 317.39091011 311.34762421 317.40141296 312.87042236 C317.4195528 316.12470204 317.41586153 319.37849365 317.41015625 322.6328125 C317.41472438 324.91765497 317.42003182 327.20249607 317.42604065 329.48733521 C317.4349468 334.26326092 317.43257728 339.03901919 317.42260742 343.81494141 C317.41112481 349.90621389 317.43133184 355.99690603 317.46052456 362.08810234 C317.47895565 366.80331027 317.47858027 371.51838092 317.47288704 376.23361588 C317.47273465 378.47807758 317.47871006 380.72254909 317.49117851 382.96697617 C317.58567123 402.76343943 315.22187241 418.37280101 300.9765625 433.265625 C300.3165625 433.265625 299.6565625 433.265625 298.9765625 433.265625 C298.9765625 433.925625 298.9765625 434.585625 298.9765625 435.265625 C287.88087914 444.13343493 275.2051221 447.44365407 261.30078125 447.36328125 C260.3756221 447.3618663 259.45046295 447.36045135 258.49726868 447.35899353 C255.55283323 447.35341215 252.60847483 447.34086305 249.6640625 447.328125 C247.66341256 447.32310759 245.66276142 447.31854511 243.66210938 447.31445312 C238.76689756 447.30344881 233.87174308 447.28619698 228.9765625 447.265625 C229.00274658 448.16579346 229.02893066 449.06596191 229.0559082 449.9934082 C229.75542965 477.72456359 228.37128592 500.50124552 208.9765625 522.265625 C207.97882813 523.40451172 207.97882813 523.40451172 206.9609375 524.56640625 C193.91603199 538.55344382 175.00431209 547.70613523 155.9765625 549.265625 C147.47311739 549.50165497 138.96414364 549.19884398 130.46362358 548.94811118 C124.96734038 548.78735751 119.4719117 548.68004767 113.97383118 548.60379028 C113.16525136 548.59247727 112.35667155 548.58116426 111.52358931 548.56950843 C108.19473473 548.52374641 104.86586093 548.47946875 101.53698671 548.43516135 C92.2123478 548.30819793 82.89421831 548.13328656 73.57397461 547.81542969 C32.14409613 546.4362403 1.62322828 546.55258198 -30.87594604 575.70053101 C-36.68303702 580.83764976 -43.16945422 584.91970538 -49.73098183 589.01589203 C-52.55239304 590.78627568 -55.33191063 592.61869189 -58.1171875 594.4453125 C-59.10589844 595.08436523 -60.09460938 595.72341797 -61.11328125 596.38183594 C-63.09087432 597.66196246 -65.06204013 598.95206165 -67.02734375 600.25097656 C-67.98511719 600.87713867 -68.94289063 601.50330078 -69.9296875 602.1484375 C-70.76822266 602.70160645 -71.60675781 603.25477539 -72.47070312 603.82470703 C-78.14998419 607.03043741 -83.60298071 608.12677286 -90.0234375 607.265625 C-96.16392591 605.3977533 -100.59086802 601.64230463 -104.0234375 596.265625 C-106.94185763 590.59456266 -107.433165 586.15731776 -107.31640625 579.83203125 C-107.31216141 578.95409409 -107.30791656 578.07615692 -107.30354309 577.1716156 C-107.2868604 574.3901292 -107.24922835 571.60938936 -107.2109375 568.828125 C-107.19587718 566.93295323 -107.18219114 565.03777002 -107.16992188 563.14257812 C-107.1369911 558.51664303 -107.08528178 553.89126023 -107.0234375 549.265625 C-108.24224609 549.28133545 -109.46105469 549.2970459 -110.71679688 549.31323242 C-115.31649954 549.36827018 -119.91617429 549.40223863 -124.51611328 549.43041992 C-126.49240034 549.44534074 -128.46865529 549.46568472 -130.44482422 549.49194336 C-158.32459564 549.85264055 -180.67031511 543.90755726 -201.3359375 524.515625 C-209.90074784 515.52820889 -215.85457565 504.91834727 -220.0234375 493.265625 C-220.37535156 492.3271875 -220.72726563 491.38875 -221.08984375 490.421875 C-222.93584786 484.18099081 -223.14719678 477.95792626 -223.12109375 471.484375 C-223.1196788 470.78542114 -223.11826385 470.08646729 -223.11680603 469.36633301 C-223.1112742 467.16605071 -223.09873527 464.96587577 -223.0859375 462.765625 C-223.08091366 461.26041815 -223.07635232 459.75520968 -223.07226562 458.25 C-223.06132727 454.58850765 -223.04411109 450.92707683 -223.0234375 447.265625 C-224.23290039 447.28133545 -225.44236328 447.2970459 -226.68847656 447.31323242 C-231.22844635 447.36803695 -235.76838764 447.40215669 -240.30859375 447.43041992 C-242.2637221 447.4453925 -244.21881753 447.46577781 -246.17382812 447.49194336 C-263.50006402 447.7178222 -277.6063915 446.16973377 -292.2734375 436.015625 C-303.40158488 424.88747762 -311.17215142 411.96102897 -311.30560303 395.94161987 C-311.30312561 395.03703033 -311.30064819 394.1324408 -311.2980957 393.20043945 C-311.30320663 392.22528885 -311.30831757 391.25013824 -311.31358337 390.24543762 C-311.32741789 387.0398637 -311.3265267 383.83450638 -311.32421875 380.62890625 C-311.32811005 378.38461732 -311.33244561 376.14032913 -311.33720398 373.89604187 C-311.34465377 369.19637667 -311.34438463 364.49678659 -311.33911133 359.79711914 C-311.3333293 353.80338603 -311.35022334 347.8099632 -311.373456 341.81628132 C-311.38826155 337.18086477 -311.3890556 332.54552169 -311.38594627 327.91008568 C-311.38645642 325.70191015 -311.39163594 323.49373017 -311.40175819 321.28557777 C-311.48351248 300.95141859 -309.93344557 286.03117708 -295.4375 270.58984375 C-284.34877715 259.91380799 -271.97988558 256.08492811 -256.91015625 256.16796875 C-255.94060501 256.1693837 -254.97105377 256.17079865 -253.97212219 256.17225647 C-250.88502883 256.17783987 -247.79800883 256.19038936 -244.7109375 256.203125 C-242.61393334 256.20814214 -240.51692804 256.21270468 -238.41992188 256.21679688 C-233.28773229 256.22780388 -228.15559732 256.24505712 -223.0234375 256.265625 C-223.04438477 255.28392334 -223.06533203 254.30222168 -223.08691406 253.29077148 C-223.16050414 249.57266417 -223.20565895 245.85461783 -223.24316406 242.13598633 C-223.26301356 240.54082338 -223.29010254 238.94573049 -223.32519531 237.35083008 C-223.78160166 216.04068079 -218.21475284 198.62221319 -204.0234375 182.265625 C-203.41757813 181.45996094 -202.81171875 180.65429688 -202.1875 179.82421875 C-189.97474278 165.38494803 -171.40647256 156.9508444 -153.0234375 154.265625 C-151.08862089 154.18152971 -149.15139466 154.14355375 -147.2147522 154.14537048 C-146.07900757 154.14399582 -144.94326294 154.14262115 -143.77310181 154.14120483 C-141.92596085 154.14659775 -141.92596085 154.14659775 -140.04150391 154.15209961 C-138.73364929 154.15195358 -137.42579468 154.15180756 -136.07830811 154.1516571 C-132.50438337 154.15137093 -128.9304924 154.15723858 -125.35657549 154.16423106 C-121.61698104 154.17049455 -117.87738576 154.17107077 -114.13778687 154.17225647 C-107.06186898 154.17536096 -99.98596659 154.18356245 -92.91005552 154.19360596 C-84.85203073 154.2047945 -76.79400518 154.21028445 -68.73597455 154.21530139 C-52.16511837 154.22574581 -35.59428353 154.24408031 -19.0234375 154.265625 C-19.3534375 143.375625 -19.6834375 132.485625 -20.0234375 121.265625 C-24.9734375 123.740625 -24.9734375 123.740625 -30.0234375 126.265625 C-33.3984375 126.828125 -33.3984375 126.828125 -36.0234375 126.265625 C-38.32619306 124.3985259 -39.70167621 122.90914759 -41.0234375 120.265625 C-41.58287259 114.07524801 -40.57877492 108.53508708 -39.0234375 102.578125 C-37.22020242 95.01904556 -35.3569462 86.99773061 -37.0234375 79.265625 C-39.14026115 76.68339203 -39.14026115 76.68339203 -42.0234375 74.265625 C-43.14461147 73.14849069 -44.25743774 72.02293691 -45.36328125 70.890625 C-46.56246007 69.68225204 -47.76167951 68.47391938 -48.9609375 67.265625 C-49.85329102 66.36070312 -49.85329102 66.36070312 -50.76367188 65.4375 C-53.548425 62.63752965 -56.33834245 59.94748356 -59.40234375 57.453125 C-62.40964454 54.94330616 -62.89011751 54.2655249 -63.3984375 50.453125 C-62.8963187 46.18511522 -61.29478432 44.94218149 -58.0234375 42.265625 C-55.12374321 40.56663228 -52.80008148 39.96167486 -49.4609375 39.703125 C-48.58719482 39.6306958 -47.71345215 39.5582666 -46.81323242 39.48364258 C-45.8926001 39.41169678 -44.97196777 39.33975098 -44.0234375 39.265625 C-42.12359902 39.08305745 -40.2238583 38.89946971 -38.32421875 38.71484375 C-35.27270134 38.43254478 -32.32335256 38.25764476 -29.25390625 38.22265625 C-25.98736106 38.06750584 -23.91433153 37.80867454 -21.0234375 36.265625 C-17.95474139 32.32801494 -15.99231395 28.16738098 -14.03271484 23.59667969 C-12.56070101 20.19687608 -10.96017631 16.86118608 -9.3659668 13.51733398 C-8.56428545 11.82893231 -7.77249493 10.13579301 -6.99145508 8.43774414 C-6.6333374 7.66293701 -6.27521973 6.88812988 -5.90625 6.08984375 C-5.59059082 5.39979248 -5.27493164 4.70974121 -4.94970703 3.9987793 C-3.66253553 1.59033689 -2.77717243 0.3645709 0 0 Z " fill="#FEFEFE" transform="translate(397.0234375,106.734375)"/>
<path d="M0 0 C1.16402344 0.00773437 1.16402344 0.00773437 2.3515625 0.015625 C3.12242187 0.01046875 3.89328125 0.0053125 4.6875 0 C7.27525962 0.3002861 8.7624577 0.89998703 10.9765625 2.265625 C12.06982422 3.98632813 12.06982422 3.98632813 12.90625 6.046875 C13.22376221 6.80202393 13.54127441 7.55717285 13.8684082 8.33520508 C14.19284912 9.13724365 14.51729004 9.93928223 14.8515625 10.765625 C17.7556442 17.63148553 20.91446843 23.99873652 24.9765625 30.265625 C27.9765625 35.00801376 27.9765625 35.00801376 27.9765625 37.265625 C28.58951172 37.30526367 29.20246094 37.34490234 29.83398438 37.38574219 C63.3664542 39.6555167 63.3664542 39.6555167 68.9765625 45.265625 C69.60524747 49.31715037 69.89200778 51.79924304 67.69140625 55.32421875 C64.15453617 59.45728105 60.10916584 62.90529079 55.9609375 66.40234375 C53.1202124 69.06971752 50.88959451 72.09510484 48.6171875 75.25 C46.9765625 77.265625 46.9765625 77.265625 44.89746094 78.57983398 C42.76548656 80.10644992 42.76548656 80.10644992 42.515625 82.5715332 C42.73331729 89.36637736 43.59841648 95.79984572 44.9765625 102.453125 C46.276326 108.80703645 47.44669302 114.76335826 46.9765625 121.265625 C44.49020326 124.88214753 43.04464429 126.06022466 38.7265625 126.890625 C34.9765625 126.265625 34.9765625 126.265625 25.9765625 121.265625 C25.9765625 132.155625 25.9765625 143.045625 25.9765625 154.265625 C29.90191895 154.24991455 33.82727539 154.2342041 37.87158203 154.21801758 C50.87542537 154.16819437 63.87926735 154.13497198 76.88318062 154.11018848 C84.76347877 154.09476826 92.64368601 154.07377231 100.52392578 154.03930664 C107.39827569 154.00925494 114.27255971 153.99001486 121.14697349 153.98335952 C124.78155869 153.97947374 128.41595551 153.97044488 132.05047989 153.94843483 C136.12374209 153.9239716 140.19668396 153.92366502 144.27001953 153.92504883 C146.04596497 153.90887009 146.04596497 153.90887009 147.85778809 153.8923645 C170.2719278 153.97417231 191.05096098 162.38748388 206.9765625 178.265625 C223.50968377 196.01313561 229.75150328 215.8455571 229.2265625 239.703125 C229.20643112 241.32094099 229.18819229 242.93878167 229.171875 244.55664062 C229.12848582 248.46026327 229.05984288 252.36265811 228.9765625 256.265625 C230.21631836 256.24991455 231.45607422 256.2342041 232.73339844 256.21801758 C237.38518638 256.16323066 242.03694649 256.12909951 246.68896484 256.10083008 C248.69259455 256.08585358 250.69619211 256.06546519 252.69970703 256.03930664 C271.59887721 255.79894313 287.22301099 257.28633929 301.63647461 270.69335938 C311.72309002 280.63388711 317.23290343 292.8940158 317.39425659 307.08981323 C317.38975494 308.00231842 317.3852533 308.91482361 317.38061523 309.85498047 C317.39091011 311.34762421 317.39091011 311.34762421 317.40141296 312.87042236 C317.4195528 316.12470204 317.41586153 319.37849365 317.41015625 322.6328125 C317.41472438 324.91765497 317.42003182 327.20249607 317.42604065 329.48733521 C317.4349468 334.26326092 317.43257728 339.03901919 317.42260742 343.81494141 C317.41112481 349.90621389 317.43133184 355.99690603 317.46052456 362.08810234 C317.47895565 366.80331027 317.47858027 371.51838092 317.47288704 376.23361588 C317.47273465 378.47807758 317.47871006 380.72254909 317.49117851 382.96697617 C317.58567123 402.76343943 315.22187241 418.37280101 300.9765625 433.265625 C300.3165625 433.265625 299.6565625 433.265625 298.9765625 433.265625 C298.9765625 433.925625 298.9765625 434.585625 298.9765625 435.265625 C287.88087914 444.13343493 275.2051221 447.44365407 261.30078125 447.36328125 C260.3756221 447.3618663 259.45046295 447.36045135 258.49726868 447.35899353 C255.55283323 447.35341215 252.60847483 447.34086305 249.6640625 447.328125 C247.66341256 447.32310759 245.66276142 447.31854511 243.66210938 447.31445312 C238.76689756 447.30344881 233.87174308 447.28619698 228.9765625 447.265625 C229.00274658 448.16579346 229.02893066 449.06596191 229.0559082 449.9934082 C229.75542965 477.72456359 228.37128592 500.50124552 208.9765625 522.265625 C207.97882813 523.40451172 207.97882813 523.40451172 206.9609375 524.56640625 C193.91603199 538.55344382 175.00431209 547.70613523 155.9765625 549.265625 C147.47311739 549.50165497 138.96414364 549.19884398 130.46362358 548.94811118 C124.96734038 548.78735751 119.4719117 548.68004767 113.97383118 548.60379028 C113.16525136 548.59247727 112.35667155 548.58116426 111.52358931 548.56950843 C108.19473473 548.52374641 104.86586093 548.47946875 101.53698671 548.43516135 C92.2123478 548.30819793 82.89421831 548.13328656 73.57397461 547.81542969 C32.14409613 546.4362403 1.62322828 546.55258198 -30.87594604 575.70053101 C-36.68303702 580.83764976 -43.16945422 584.91970538 -49.73098183 589.01589203 C-52.55239304 590.78627568 -55.33191063 592.61869189 -58.1171875 594.4453125 C-59.10589844 595.08436523 -60.09460938 595.72341797 -61.11328125 596.38183594 C-63.09087432 597.66196246 -65.06204013 598.95206165 -67.02734375 600.25097656 C-67.98511719 600.87713867 -68.94289063 601.50330078 -69.9296875 602.1484375 C-70.76822266 602.70160645 -71.60675781 603.25477539 -72.47070312 603.82470703 C-78.14998419 607.03043741 -83.60298071 608.12677286 -90.0234375 607.265625 C-96.16392591 605.3977533 -100.59086802 601.64230463 -104.0234375 596.265625 C-106.94185763 590.59456266 -107.433165 586.15731776 -107.31640625 579.83203125 C-107.31216141 578.95409409 -107.30791656 578.07615692 -107.30354309 577.1716156 C-107.2868604 574.3901292 -107.24922835 571.60938936 -107.2109375 568.828125 C-107.19587718 566.93295323 -107.18219114 565.03777002 -107.16992188 563.14257812 C-107.1369911 558.51664303 -107.08528178 553.89126023 -107.0234375 549.265625 C-108.24224609 549.28133545 -109.46105469 549.2970459 -110.71679688 549.31323242 C-115.31649954 549.36827018 -119.91617429 549.40223863 -124.51611328 549.43041992 C-126.49240034 549.44534074 -128.46865529 549.46568472 -130.44482422 549.49194336 C-158.32459564 549.85264055 -180.67031511 543.90755726 -201.3359375 524.515625 C-209.90074784 515.52820889 -215.85457565 504.91834727 -220.0234375 493.265625 C-220.37535156 492.3271875 -220.72726563 491.38875 -221.08984375 490.421875 C-222.93584786 484.18099081 -223.14719678 477.95792626 -223.12109375 471.484375 C-223.1196788 470.78542114 -223.11826385 470.08646729 -223.11680603 469.36633301 C-223.1112742 467.16605071 -223.09873527 464.96587577 -223.0859375 462.765625 C-223.08091366 461.26041815 -223.07635232 459.75520968 -223.07226562 458.25 C-223.06132727 454.58850765 -223.04411109 450.92707683 -223.0234375 447.265625 C-224.23290039 447.28133545 -225.44236328 447.2970459 -226.68847656 447.31323242 C-231.22844635 447.36803695 -235.76838764 447.40215669 -240.30859375 447.43041992 C-242.2637221 447.4453925 -244.21881753 447.46577781 -246.17382812 447.49194336 C-263.50006402 447.7178222 -277.6063915 446.16973377 -292.2734375 436.015625 C-303.40158488 424.88747762 -311.17215142 411.96102897 -311.30560303 395.94161987 C-311.30312561 395.03703033 -311.30064819 394.1324408 -311.2980957 393.20043945 C-311.30320663 392.22528885 -311.30831757 391.25013824 -311.31358337 390.24543762 C-311.32741789 387.0398637 -311.3265267 383.83450638 -311.32421875 380.62890625 C-311.32811005 378.38461732 -311.33244561 376.14032913 -311.33720398 373.89604187 C-311.34465377 369.19637667 -311.34438463 364.49678659 -311.33911133 359.79711914 C-311.3333293 353.80338603 -311.35022334 347.8099632 -311.373456 341.81628132 C-311.38826155 337.18086477 -311.3890556 332.54552169 -311.38594627 327.91008568 C-311.38645642 325.70191015 -311.39163594 323.49373017 -311.40175819 321.28557777 C-311.48351248 300.95141859 -309.93344557 286.03117708 -295.4375 270.58984375 C-284.34877715 259.91380799 -271.97988558 256.08492811 -256.91015625 256.16796875 C-255.94060501 256.1693837 -254.97105377 256.17079865 -253.97212219 256.17225647 C-250.88502883 256.17783987 -247.79800883 256.19038936 -244.7109375 256.203125 C-242.61393334 256.20814214 -240.51692804 256.21270468 -238.41992188 256.21679688 C-233.28773229 256.22780388 -228.15559732 256.24505712 -223.0234375 256.265625 C-223.04438477 255.28392334 -223.06533203 254.30222168 -223.08691406 253.29077148 C-223.16050414 249.57266417 -223.20565895 245.85461783 -223.24316406 242.13598633 C-223.26301356 240.54082338 -223.29010254 238.94573049 -223.32519531 237.35083008 C-223.78160166 216.04068079 -218.21475284 198.62221319 -204.0234375 182.265625 C-203.41757813 181.45996094 -202.81171875 180.65429688 -202.1875 179.82421875 C-189.97474278 165.38494803 -171.40647256 156.9508444 -153.0234375 154.265625 C-151.08862089 154.18152971 -149.15139466 154.14355375 -147.2147522 154.14537048 C-146.07900757 154.14399582 -144.94326294 154.14262115 -143.77310181 154.14120483 C-141.92596085 154.14659775 -141.92596085 154.14659775 -140.04150391 154.15209961 C-138.73364929 154.15195358 -137.42579468 154.15180756 -136.07830811 154.1516571 C-132.50438337 154.15137093 -128.9304924 154.15723858 -125.35657549 154.16423106 C-121.61698104 154.17049455 -117.87738576 154.17107077 -114.13778687 154.17225647 C-107.06186898 154.17536096 -99.98596659 154.18356245 -92.91005552 154.19360596 C-84.85203073 154.2047945 -76.79400518 154.21028445 -68.73597455 154.21530139 C-52.16511837 154.22574581 -35.59428353 154.24408031 -19.0234375 154.265625 C-19.3534375 143.375625 -19.6834375 132.485625 -20.0234375 121.265625 C-24.9734375 123.740625 -24.9734375 123.740625 -30.0234375 126.265625 C-33.3984375 126.828125 -33.3984375 126.828125 -36.0234375 126.265625 C-38.32619306 124.3985259 -39.70167621 122.90914759 -41.0234375 120.265625 C-41.58287259 114.07524801 -40.57877492 108.53508708 -39.0234375 102.578125 C-37.22020242 95.01904556 -35.3569462 86.99773061 -37.0234375 79.265625 C-39.14026115 76.68339203 -39.14026115 76.68339203 -42.0234375 74.265625 C-43.14461147 73.14849069 -44.25743774 72.02293691 -45.36328125 70.890625 C-46.56246007 69.68225204 -47.76167951 68.47391938 -48.9609375 67.265625 C-49.85329102 66.36070312 -49.85329102 66.36070312 -50.76367188 65.4375 C-53.548425 62.63752965 -56.33834245 59.94748356 -59.40234375 57.453125 C-62.40964454 54.94330616 -62.89011751 54.2655249 -63.3984375 50.453125 C-62.8963187 46.18511522 -61.29478432 44.94218149 -58.0234375 42.265625 C-55.12374321 40.56663228 -52.80008148 39.96167486 -49.4609375 39.703125 C-48.58719482 39.6306958 -47.71345215 39.5582666 -46.81323242 39.48364258 C-45.8926001 39.41169678 -44.97196777 39.33975098 -44.0234375 39.265625 C-42.12359902 39.08305745 -40.2238583 38.89946971 -38.32421875 38.71484375 C-35.27270134 38.43254478 -32.32335256 38.25764476 -29.25390625 38.22265625 C-25.98736106 38.06750584 -23.91433153 37.80867454 -21.0234375 36.265625 C-17.95474139 32.32801494 -15.99231395 28.16738098 -14.03271484 23.59667969 C-12.56070101 20.19687608 -10.96017631 16.86118608 -9.3659668 13.51733398 C-8.56428545 11.82893231 -7.77249493 10.13579301 -6.99145508 8.43774414 C-6.6333374 7.66293701 -6.27521973 6.88812988 -5.90625 6.08984375 C-5.59059082 5.39979248 -5.27493164 4.70974121 -4.94970703 3.9987793 C-3.66253553 1.59033689 -2.77717243 0.3645709 0 0 Z M-172.0703125 212.8125 C-178.2469588 221.84775947 -179.33112668 230.7108988 -179.27740479 241.46751404 C-179.28052477 242.44426608 -179.28364475 243.42101812 -179.28685927 244.4273687 C-179.29478437 247.67356585 -179.2885371 250.91957321 -179.28222656 254.16577148 C-179.28493888 256.50404977 -179.28850116 258.8423272 -179.29284668 261.18060303 C-179.30194478 267.51321351 -179.2984369 273.84575865 -179.29208851 280.17837024 C-179.28752943 286.14214607 -179.29101467 292.10591599 -179.2939429 298.06969167 C-179.29963691 310.60235179 -179.29310314 323.13498258 -179.28234217 335.66763789 C-179.27340958 346.40287028 -179.27495808 357.13805941 -179.28417969 367.87329102 C-179.29490236 380.36169412 -179.29908549 392.85007156 -179.29295516 405.33847862 C-179.2898016 411.94113469 -179.28940571 418.5437667 -179.29602814 425.14642143 C-179.30182133 431.35578745 -179.29776856 437.56507206 -179.28623962 443.77442932 C-179.28360348 446.04835945 -179.28434019 448.32229648 -179.28876495 450.59622383 C-179.29426328 453.70982466 -179.28733447 456.82316772 -179.27740479 459.93675232 C-179.28186623 460.82782651 -179.28632767 461.7189007 -179.29092431 462.63697714 C-179.22007045 474.16089455 -177.3776372 484.0431767 -169.7109375 492.953125 C-168.380625 494.0978125 -168.380625 494.0978125 -167.0234375 495.265625 C-166.19585937 496.02166016 -166.19585937 496.02166016 -165.3515625 496.79296875 C-156.28567333 504.45401973 -145.05472761 504.69597261 -133.65220261 504.61518478 C-131.48908164 504.60118855 -129.32685188 504.60803032 -127.16372681 504.62002563 C-121.02379918 504.6506408 -114.8840968 504.64612342 -108.74414062 504.62597656 C-104.96288297 504.61498994 -101.18230552 504.62838263 -97.40114212 504.65587234 C-95.97479287 504.6612638 -94.54837345 504.65737624 -93.12208176 504.64347458 C-84.43110857 504.55966762 -77.23483171 505.02343219 -70.0234375 510.265625 C-65.44544526 515.15538104 -62.85765009 520.60284977 -62.609375 527.34765625 C-62.57070313 528.27900391 -62.53203125 529.21035156 -62.4921875 530.16992188 C-62.46125 531.12962891 -62.4303125 532.08933594 -62.3984375 533.078125 C-62.35976563 534.05716797 -62.32109375 535.03621094 -62.28125 536.04492188 C-62.18732934 538.45163874 -62.10165549 540.85835512 -62.0234375 543.265625 C-50.31934077 535.9321968 -38.83727989 528.25481042 -27.31347656 520.64306641 C-24.57412934 518.83410837 -21.83396937 517.02638653 -19.09375 515.21875 C-18.25723907 514.6656012 -17.42072815 514.11245239 -16.55886841 513.5425415 C-3.83176289 505.14815451 -3.83176289 505.14815451 5.35734558 505.12759399 C6.67085999 505.12214066 7.98437439 505.11668732 9.33769226 505.11106873 C10.79177851 505.10994899 12.24586482 505.10889846 13.69995117 505.10791016 C15.23271836 505.10324036 16.76548416 505.09809652 18.29824829 505.09251404 C21.59888262 505.08124142 24.89950796 505.07280311 28.20015526 505.06639481 C33.42434919 505.0557018 38.64847866 505.03545256 43.87263489 505.01327515 C58.72829223 504.95139754 73.58394591 504.89737707 88.43969727 504.86425781 C96.64461843 504.84588567 104.84943165 504.81691656 113.05427343 504.7762531 C117.39337405 504.75522535 121.73233889 504.73973186 126.07149315 504.73744583 C130.15669845 504.73529107 134.24162115 504.7193377 138.32674026 504.69305611 C139.82101315 504.68589291 141.31532039 504.6837476 142.80960655 504.68715858 C155.61015865 504.71169779 165.13129329 502.9220947 174.9765625 494.265625 C183.58541686 484.19181854 185.12930512 473.22710163 185.11700439 460.43122864 C185.11997552 459.45774544 185.12294664 458.48426224 185.1260078 457.48127955 C185.1346605 454.22815219 185.13620014 450.97506177 185.13769531 447.72192383 C185.1423259 445.38571088 185.14735088 443.04949868 185.15274048 440.71328735 C185.16584293 434.37218956 185.17230518 428.03110235 185.17675114 421.68999314 C185.17968522 417.72574297 185.18379065 413.76149566 185.18825531 409.79724693 C185.20044256 398.80725286 185.21074317 387.8172607 185.2141304 376.82726002 C185.21434997 376.12476552 185.21456953 375.42227102 185.21479575 374.69848881 C185.21501403 373.99437846 185.21523231 373.2902681 185.2154572 372.56482106 C185.21590066 371.13818475 185.21634722 369.71154843 185.21679688 368.28491211 C185.2170183 367.57726141 185.21723973 366.86961072 185.21746787 366.14051607 C185.22141376 354.68065379 185.23886381 343.22085518 185.2621564 331.76101748 C185.28591337 319.97696609 185.29833421 308.19294659 185.29949832 296.40887088 C185.3004126 289.79996736 185.3064246 283.19113716 185.32431793 276.58225441 C185.34082917 270.3630581 185.34293919 264.14401895 185.33417892 257.9248085 C185.3334102 255.64807018 185.33772939 253.3713233 185.34763718 251.0946064 C185.56398533 227.84784318 185.56398533 227.84784318 173.9765625 208.265625 C164.90787072 200.52405884 155.99572398 198.818236 144.38894653 198.87794495 C143.13143267 198.87255941 141.8739188 198.86717387 140.57829845 198.86162513 C137.10391961 198.8472116 133.62977881 198.85140231 130.15538716 198.85879195 C126.40204108 198.86353153 122.64874591 198.85100676 118.89541626 198.84077454 C111.54842838 198.8235964 104.20152606 198.82274451 96.85452332 198.82798744 C90.88129729 198.83203237 84.9080965 198.83058174 78.93487167 198.82523918 C78.08403156 198.82449076 77.23319145 198.82374234 76.3565683 198.82297124 C74.62796188 198.82143972 72.89935546 198.81990138 71.17074905 198.81835627 C54.96747752 198.80463468 38.7642543 198.81006642 22.56098388 198.82154148 C7.74692143 198.83147252 -7.06701609 198.81853484 -21.88105927 198.79460729 C-37.10264086 198.77020727 -52.32416429 198.7606107 -67.54576504 198.76726002 C-76.08731858 198.77075036 -84.62877606 198.76853244 -93.17031479 198.75100899 C-100.44187381 198.73627568 -107.71326915 198.73566622 -114.984825 198.7530799 C-118.69245983 198.76158323 -122.3998024 198.7637561 -126.10742188 198.74842834 C-130.13246876 198.73199477 -134.15681267 198.74674894 -138.18185425 198.76441956 C-139.34568095 198.75481455 -140.50950765 198.74520954 -141.70860183 198.73531348 C-153.97577205 198.84598329 -164.27431896 203.11214162 -172.0703125 212.8125 Z " fill="#97578C" transform="translate(397.0234375,106.734375)"/>
<path d="M0 0 C0.66 0.66 1.32 1.32 2 2 C2.721875 2.28875 3.44375 2.5775 4.1875 2.875 C7 4 7 4 9.875 5.95703125 C15.12842553 8.97424294 20.88061014 9.24281412 26.8125 9.8125 C28.0406543 9.9350415 29.26880859 10.05758301 30.53417969 10.18383789 C48.61391045 11.79388306 73.14067285 13.79726687 89 3 C90.17213528 1.94353597 91.33897939 0.8811667 92.5 -0.1875 C97.08233002 -3.66106208 101.18829255 -3.73706943 106.80859375 -3.45703125 C113.98950001 -2.42867625 119.37968737 0.32361592 124 6 C127.03080295 10.06765659 128.69342081 13.58673997 128.37890625 18.83203125 C126.75063981 28.14840107 122.00303079 35.05948578 114.6640625 40.83984375 C95.47647546 54.00610092 71.79728557 56.70901311 49.13696289 56.52148438 C46.06771683 56.50003646 43.00081665 56.52142294 39.93164062 56.546875 C16.2672178 56.57976213 -9.0256671 53.15130136 -27.3984375 36.78125 C-31.77224879 31.91671842 -36.33307134 25.31352363 -36.0625 18.625 C-35.27516135 11.60030319 -31.57233242 6.23946989 -27 1 C-24.54647188 -0.75392773 -22.98979705 -1.25255074 -20 -2 C-19.0409375 -2.3403125 -19.0409375 -2.3403125 -18.0625 -2.6875 C-11.13566236 -3.73702086 -6.31816488 -2.83228081 0 0 Z " fill="#96578C" transform="translate(354,497)"/>
<path d="M0 0 C12.87 0 25.74 0 39 0 C39 33.33 39 66.66 39 101 C1 101 1 101 -3 98 C-3.39631411 94.87890727 -3.53630258 92.10942726 -3.50170898 88.98632812 C-3.50711197 88.06411972 -3.51251495 87.14191132 -3.51808167 86.1917572 C-3.53060729 83.13793012 -3.51405232 80.08503876 -3.49609375 77.03125 C-3.49624865 74.9128006 -3.49773611 72.79435092 -3.50050354 70.67590332 C-3.50188925 66.23384083 -3.48930047 61.79210054 -3.46655273 57.35009766 C-3.43816779 51.65001422 -3.44090322 45.95046639 -3.45364285 40.25034332 C-3.46059067 35.87521778 -3.45282098 31.5002165 -3.44038582 27.12510681 C-3.4358626 25.02311174 -3.43554208 22.92110336 -3.43945122 20.81910706 C-3.44235462 17.88368281 -3.42589802 14.94900226 -3.40405273 12.01367188 C-3.40855438 11.14085068 -3.41305603 10.26802948 -3.41769409 9.36875916 C-3.34300962 3.34300962 -3.34300962 3.34300962 0 0 Z " fill="#FDFDFD" transform="translate(134,408)"/>
<path d="M0 0 C12.87 0 25.74 0 39 0 C42.41028916 3.41028916 42.35958469 4.66360578 42.41769409 9.29418945 C42.41094162 10.58703857 42.41094162 10.58703857 42.40405273 11.90600586 C42.41091599 12.8168544 42.41777924 13.72770294 42.42485046 14.66615295 C42.44317907 17.68254098 42.43927225 20.69841189 42.43359375 23.71484375 C42.43815273 25.8084785 42.44345745 27.90211174 42.44947815 29.9957428 C42.45842124 34.38646519 42.45597258 38.77700582 42.44604492 43.16772461 C42.43455545 48.7982785 42.45476058 54.42820525 42.48396206 60.05867672 C42.50229653 64.38322444 42.50203705 68.70762113 42.49632454 73.03219795 C42.49617098 75.10826052 42.50224391 77.1843331 42.51461601 79.26035881 C42.52947159 82.16217405 42.51888874 85.06282126 42.50170898 87.96459961 C42.51137695 88.82447479 42.52104492 89.68434998 42.53100586 90.57028198 C42.52117172 91.36237564 42.51133759 92.1544693 42.50120544 92.9705658 C42.50099616 93.65617049 42.50078688 94.34177519 42.50057125 95.04815578 C42 97 42 97 38 101 C25.46 101 12.92 101 0 101 C0 67.67 0 34.34 0 0 Z " fill="#FDFDFD" transform="translate(627,408)"/>
<path d="M0 0 C6.01931992 4.44283137 10.21068555 8.70701516 12.625 15.9375 C13.01268005 19.30699158 13.01268005 19.30699158 13.02905273 22.84741211 C13.03591599 23.49882675 13.04277924 24.15024139 13.04985046 24.82139587 C13.06799813 26.95277341 13.06429867 29.08340632 13.05859375 31.21484375 C13.0631614 32.71025325 13.0684687 34.20566066 13.07447815 35.70106506 C13.08338562 38.82708289 13.08101337 41.95284492 13.07104492 45.07885742 C13.05955864 49.06785128 13.07977259 53.05595941 13.10896206 57.044837 C13.12738398 60.13083931 13.12701977 63.2166317 13.12132454 66.30267525 C13.12117205 67.77256068 13.12715594 69.242461 13.13961601 70.71229362 C13.20655299 79.90187585 12.98607585 86.96084486 6.66015625 94.1796875 C6.00917969 94.71851563 5.35820312 95.25734375 4.6875 95.8125 C4.03910156 96.36679687 3.39070313 96.92109375 2.72265625 97.4921875 C-3.21803186 101.58539904 -9.367911 101.81224713 -16.375 100.9375 C-22.91828272 98.49873905 -28.42000239 92.99626893 -31.4335022 86.73994446 C-32.54160997 83.44157194 -32.64291125 80.73379794 -32.66552734 77.25463867 C-32.67224457 76.60351608 -32.67896179 75.95239349 -32.68588257 75.28153992 C-32.70480351 73.13943749 -32.70878389 70.99764944 -32.7109375 68.85546875 C-32.71737025 67.35720189 -32.72409896 65.85893627 -32.73110962 64.360672 C-32.74306811 61.2227589 -32.74679199 58.08495576 -32.74560547 54.94702148 C-32.74540252 50.9423168 -32.7726854 46.93832366 -32.80714989 42.93378735 C-32.82948015 39.83922643 -32.83344113 36.744835 -32.83238602 33.6502018 C-32.83473351 32.17472193 -32.84350871 30.69923678 -32.85905075 29.2238369 C-32.94779439 19.92820968 -32.52066851 13.26102064 -26.62890625 5.6953125 C-25.79166016 4.88707031 -25.79166016 4.88707031 -24.9375 4.0625 C-24.38191406 3.50820313 -23.82632812 2.95390625 -23.25390625 2.3828125 C-16.79021188 -2.5892601 -7.50286801 -2.362014 0 0 Z " fill="#96568B" transform="translate(497.375,350.0625)"/>
<path d="M0 0 C6.52790341 3.84314981 10.64285756 9.28268723 12.6875 16.5 C12.95492554 19.6665802 12.95492554 19.6665802 12.97802734 23.09692383 C12.99078705 24.38879105 13.00354675 25.68065826 13.01669312 27.01167297 C13.01975136 28.4101242 13.0219788 29.80857744 13.0234375 31.20703125 C13.02987328 32.65663278 13.03660221 34.10623303 13.04360962 35.55583191 C13.05555634 38.58941659 13.05929319 41.62288762 13.05810547 44.65649414 C13.05790254 48.52319868 13.08518843 52.38916612 13.11964989 56.2556963 C13.14200717 59.24907201 13.14594032 62.24227288 13.14488602 65.2357235 C13.14722934 66.66013818 13.15598058 68.08455864 13.17155075 69.50889015 C13.2636992 78.8096995 12.87996243 86.5073857 6.72265625 93.83984375 C6.07167969 94.36707031 5.42070312 94.89429688 4.75 95.4375 C4.10160156 95.98277344 3.45320313 96.52804687 2.78515625 97.08984375 C-3.27567683 101.16425854 -9.22423305 101.08021285 -16.3125 100.5 C-22.48814465 98.71856404 -26.58634839 93.55212448 -30.3125 88.5 C-32.26405838 84.50950696 -32.5742924 81.23759376 -32.60302734 76.81713867 C-32.60974457 76.16601608 -32.61646179 75.51489349 -32.62338257 74.84403992 C-32.64230351 72.70193749 -32.64628389 70.56014944 -32.6484375 68.41796875 C-32.65487025 66.91970189 -32.66159896 65.42143627 -32.66860962 63.923172 C-32.68056811 60.7852589 -32.68429199 57.64745576 -32.68310547 54.50952148 C-32.68290252 50.5048168 -32.7101854 46.50082366 -32.74464989 42.49628735 C-32.76698015 39.40172643 -32.77094113 36.307335 -32.76988602 33.2127018 C-32.77223351 31.73722193 -32.78100871 30.26173678 -32.79655075 28.7863369 C-32.88529439 19.49070968 -32.45816851 12.82352064 -26.56640625 5.2578125 C-25.72916016 4.44957031 -25.72916016 4.44957031 -24.875 3.625 C-24.31941406 3.07070313 -23.76382812 2.51640625 -23.19140625 1.9453125 C-16.83518829 -2.94408593 -7.22265703 -3.18812596 0 0 Z " fill="#96578B" transform="translate(322.3125,350.5)"/>
<path d="M0 0 C0.64453542 -0.00085442 1.28907084 -0.00170885 1.95313764 -0.00258917 C4.11040871 -0.0042348 6.26760183 0.00126238 8.42486572 0.00672913 C9.97223407 0.00701122 11.51960255 0.00685283 13.06697083 0.00628662 C17.26702495 0.00599952 21.46705055 0.0118822 25.66709805 0.01886058 C30.05666904 0.02510859 34.44624068 0.02569906 38.83581543 0.02688599 C47.14781605 0.02999502 55.45980354 0.03820267 63.77179837 0.04823548 C73.234829 0.05940986 82.69786025 0.06491041 92.16089582 0.06993091 C111.62682293 0.08038562 131.0927378 0.09797682 150.55865479 0.12025452 C150.55865479 1.11025452 150.55865479 2.10025452 150.55865479 3.12025452 C97.09865479 3.12025452 43.63865479 3.12025452 -11.44134521 3.12025452 C-10.44134521 1.12025452 -10.44134521 1.12025452 -8.78142929 0.50277042 C-5.8243733 0.01940277 -2.9977871 -0.0023944 0 0 Z " fill="#8D6788" transform="translate(402.44134521484375,610.8797454833984)"/>
<path d="M0 0 C0.66 0 1.32 0 2 0 C1.83773926 1.24821533 1.67547852 2.49643066 1.50830078 3.7824707 C0.6610269 12.32256168 0.85640757 20.90807231 0.8671875 29.48046875 C0.86651239 31.38080355 0.86554065 33.28113827 0.86428833 35.18147278 C0.8628193 39.15460028 0.86493909 43.12770521 0.86962891 47.10083008 C0.87530615 52.15256407 0.87205483 57.20424467 0.86605644 62.25597668 C0.8624126 66.1794524 0.86360716 70.10291585 0.86618423 74.02639198 C0.86684399 75.88681355 0.86605899 77.74723629 0.86370468 79.60765648 C0.64111322 95.84898548 0.64111322 95.84898548 2 112 C2.66 112.66 3.32 113.32 4 114 C4.6328125 116.6015625 4.6328125 116.6015625 5.125 119.625 C5.29257813 120.62789062 5.46015625 121.63078125 5.6328125 122.6640625 C5.81457031 123.82035156 5.81457031 123.82035156 6 125 C5.01 125 4.02 125 3 125 C2.35163958 123.25093469 1.70641216 121.50070781 1.0625 119.75 C0.70285156 118.77546875 0.34320313 117.8009375 -0.02734375 116.796875 C-1.35046531 112.99223631 -2.12455039 109.73595827 -2.13371277 105.70050049 C-2.13797775 104.8483194 -2.14224274 103.99613831 -2.14663696 103.11813354 C-2.14618378 102.19130768 -2.14573059 101.26448181 -2.14526367 100.30957031 C-2.14862228 99.32697235 -2.1519809 98.34437439 -2.15544128 97.33200073 C-2.16494682 94.08069599 -2.16689434 90.82944278 -2.16796875 87.578125 C-2.17118211 85.31614155 -2.17454624 83.05415831 -2.17805481 80.79217529 C-2.18404544 76.04764321 -2.18589483 71.30312935 -2.18530273 66.55859375 C-2.18520123 60.48809685 -2.19884157 54.41771722 -2.21607494 48.34724808 C-2.22721189 43.67343615 -2.2292214 38.99965239 -2.22869301 34.32582855 C-2.22987102 32.08840278 -2.23428276 29.85097623 -2.24202538 27.61356354 C-2.25185729 24.47829567 -2.24893426 21.34328002 -2.24291992 18.20800781 C-2.24853943 17.28927887 -2.25415894 16.37054993 -2.25994873 15.42398071 C-2.23335083 9.94864412 -1.54067998 5.25961948 0 0 Z " fill="#926587" transform="translate(88,400)"/>
<path d="M0 0 C0.66 0.33 1.32 0.66 2 1 C2.04634189 14.45627698 2.0818787 27.91253497 2.10362434 41.3688755 C2.11406118 47.61720219 2.12821871 53.86547427 2.15087891 60.11376953 C2.17261063 66.14378776 2.18456938 72.17375346 2.18975449 78.20380783 C2.19344963 80.50429486 2.20066527 82.80477901 2.21146011 85.10524368 C2.22597921 88.32754986 2.22797774 91.54963903 2.22705078 94.77197266 C2.23783661 96.19833038 2.23783661 96.19833038 2.24884033 97.65350342 C2.23372327 102.51039897 1.90376627 106.44099162 0 111 C-0.33 111 -0.66 111 -1 111 C-1.0233302 96.67505574 -1.04091336 82.35011441 -1.05181217 68.02515507 C-1.05704174 61.3742647 -1.06414072 54.72339214 -1.07543945 48.07250977 C-1.08626571 41.65997123 -1.09227628 35.24744496 -1.09487724 28.83489799 C-1.09673197 26.38235722 -1.10035347 23.92981715 -1.10573006 21.47728157 C-1.11293702 18.05523323 -1.11399109 14.63323629 -1.11352539 11.21118164 C-1.11712067 10.18619568 -1.12071594 9.16120972 -1.12442017 8.10516357 C-1.1230455 7.17823196 -1.12167084 6.25130035 -1.12025452 5.29627991 C-1.12117631 4.48602387 -1.1220981 3.67576784 -1.12304783 2.8409586 C-1 1 -1 1 0 0 Z " fill="#926786" transform="translate(712,405)"/>
<path d="M0 0 C0.66 0 1.32 0 2 0 C3.38506052 2.77012104 3.15025412 5.04287878 3.17700195 8.14282227 C3.18983719 9.43499161 3.20267242 10.72716095 3.21589661 12.05848694 C3.2240676 13.47778947 3.23151064 14.89709635 3.23828125 16.31640625 C3.24235678 17.03148787 3.2464323 17.74656948 3.25063133 18.48332024 C3.27150485 22.27378933 3.28579665 26.06422217 3.29516602 29.85473633 C3.3061872 33.75290036 3.34053258 37.6504867 3.38033772 41.54844761 C3.40661674 44.55896491 3.41486814 47.56934752 3.41844749 50.57996941 C3.42329045 52.01556198 3.43483849 53.45114947 3.45348549 54.8866291 C3.56786528 64.2816156 3.18858529 71.93705794 -2.96484375 79.375 C-3.61582031 79.91125 -4.26679688 80.4475 -4.9375 81 C-5.58589844 81.556875 -6.23429687 82.11375 -6.90234375 82.6875 C-9.27242803 84.17045776 -11.24853192 84.61718705 -14 85 C-13.505 84.01 -13.505 84.01 -13 83 C-12.34 83 -11.68 83 -11 83 C-10.938125 82.443125 -10.87625 81.88625 -10.8125 81.3125 C-9.64834483 77.99913528 -7.60541556 76.29524704 -5 74 C-3.515 73.505 -3.515 73.505 -2 73 C-2 72.01 -2 71.02 -2 70 C-1.34 70 -0.68 70 0 70 C0 46.9 0 23.8 0 0 Z " fill="#956D8D" transform="translate(332,365)"/>
<path d="M0 0 C0.66 0 1.32 0 2 0 C2.33 0.99 2.66 1.98 3 3 C2.34 3 1.68 3 1 3 C1.06140325 11.20663614 1.13864591 19.41290974 1.23571491 27.61919403 C1.28030639 31.43035233 1.31958655 35.24140651 1.34643555 39.05273438 C1.37258145 42.73581886 1.41306173 46.41850019 1.46318626 50.10133362 C1.47977917 51.50137795 1.49134039 52.90149189 1.49761391 54.30162048 C1.53482665 61.84821393 1.72197289 68.13102584 5 75 C3.125 74.8125 3.125 74.8125 1 74 C-1.22402101 70.14948241 -1.24814168 66.58089469 -1.24291992 62.20605469 C-1.24481827 61.54368805 -1.24671661 60.88132141 -1.24867249 60.19888306 C-1.25235893 58.02309095 -1.24171043 55.8476371 -1.23046875 53.671875 C-1.22927608 52.15684041 -1.22882397 50.64180506 -1.2290802 49.12677002 C-1.22751926 45.95946594 -1.2192564 42.79227551 -1.20581055 39.625 C-1.1887631 35.5570917 -1.18499806 31.48930749 -1.18575573 27.42136765 C-1.1854845 24.29708666 -1.18001176 21.17283301 -1.17275429 18.0485611 C-1.16956467 16.547785 -1.16759953 15.0470058 -1.16686058 13.5462265 C-1.16470338 11.45621904 -1.15597451 9.36634598 -1.14526367 7.27636719 C-1.14145187 6.08565613 -1.13764008 4.89494507 -1.13371277 3.66815186 C-1 1 -1 1 0 0 Z " fill="#916B86" transform="translate(466,365)"/>
<path d="M0 0 C0.99 0.33 1.98 0.66 3 1 C3.04637541 9.77972757 3.08189564 18.55941285 3.10362434 27.33923626 C3.11405392 31.41622436 3.12819802 35.49312855 3.15087891 39.57006836 C3.17263677 43.50579972 3.18457484 47.44145045 3.18975449 51.37723732 C3.19344496 52.87751344 3.20065155 54.37778524 3.21146011 55.87802696 C3.22601431 57.98217624 3.22797632 60.08599389 3.22705078 62.19018555 C3.231492 63.38709518 3.23593323 64.58400482 3.24050903 65.81718445 C3.00285056 68.96227666 2.34569977 71.16831492 1 74 C-0.0625 72.1875 -0.0625 72.1875 -1 70 C-0.67 69.01 -0.34 68.02 0 67 C0.08952331 64.83786607 0.1175854 62.67301589 0.11352539 60.5090332 C0.11374443 59.52814224 0.11374443 59.52814224 0.1139679 58.5274353 C0.11327188 56.36851674 0.10549408 54.20968472 0.09765625 52.05078125 C0.09579096 50.55291287 0.09436758 49.05504389 0.09336853 47.55717468 C0.08955207 43.61654981 0.0797292 39.67596186 0.06866455 35.73535156 C0.05843172 31.71354675 0.0538669 27.69173596 0.04882812 23.66992188 C0.03810616 15.77993099 0.02104017 7.88997009 0 0 Z " fill="#9F7795" transform="translate(507,365)"/>
<path d="M0 0 C0.33 0 0.66 0 1 0 C1 1.65 1 3.3 1 5 C2.93033081 4.98428955 2.93033081 4.98428955 4.8996582 4.96826172 C9.66867294 4.93209456 14.43767552 4.90911146 19.20678711 4.89013672 C21.271912 4.88007165 23.33702263 4.86641846 25.40209961 4.84912109 C28.36836264 4.82489507 31.33443744 4.81352203 34.30078125 4.8046875 C35.2258699 4.79436493 36.15095856 4.78404236 37.1040802 4.77340698 C37.96474594 4.77325592 38.82541168 4.77310486 39.7121582 4.77294922 C40.46938675 4.768508 41.2266153 4.76406677 42.00679016 4.75949097 C44 5 44 5 47 7 C39.25896861 8.19092791 31.65899728 8.05766086 23.84375 7.9609375 C14.17047675 7.56754747 14.17047675 7.56754747 5 10 C5 9.01 5 8.02 5 7 C3.02 7 1.04 7 -1 7 C-1.04254356 5.00045254 -1.04080783 2.99958364 -1 1 C-0.67 0.67 -0.34 0.34 0 0 Z " fill="#8D6586" transform="translate(625,358)"/>
<path d="M0 0 C0.33 0.99 0.66 1.98 1 3 C1.66 3.33 2.32 3.66 3 4 C-6.1502854 14.09904771 -16.5792142 22.52910712 -30 26 C-30 24 -30 24 -28.875 22.5 C-26.43774244 20.55019395 -23.96293602 19.92591751 -21 19 C-20.01 18.34 -19.02 17.68 -18 17 C-15.67891331 16.29187186 -13.34622853 15.61975848 -11 15 C-10.67 13.68 -10.34 12.36 -10 11 C-8.68 11 -7.36 11 -6 11 C-5.896875 10.360625 -5.79375 9.72125 -5.6875 9.0625 C-5.3471875 8.0415625 -5.3471875 8.0415625 -5 7 C-4.01 6.67 -3.02 6.34 -2 6 C-1.855625 5.195625 -1.71125 4.39125 -1.5625 3.5625 C-1 1 -1 1 0 0 Z " fill="#895B7F" transform="translate(604,624)"/>
<path d="M0 0 C0.84858582 -0.00095673 1.69717163 -0.00191345 2.57147217 -0.00289917 C4.37040277 -0.0035805 6.16933582 -0.00172946 7.96826172 0.00244141 C10.70936694 0.00776394 13.45030632 0.00250857 16.19140625 -0.00390625 C17.94010453 -0.00324494 19.6888027 -0.00196269 21.4375 0 C22.25333557 -0.00202423 23.06917114 -0.00404846 23.909729 -0.00613403 C28.21329795 0.01139475 32.24581224 0.27676904 36.484375 1.1328125 C34.671875 2.6953125 34.671875 2.6953125 32.484375 4.1328125 C31.494375 3.8028125 30.504375 3.4728125 29.484375 3.1328125 C26.71486295 3.07141847 23.97127485 3.065115 21.203125 3.10546875 C19.54036664 3.11811208 17.87760612 3.13047326 16.21484375 3.14257812 C13.59449525 3.16742838 10.97425894 3.19544113 8.35400391 3.22875977 C5.82453688 3.25892336 3.29521426 3.27672238 0.765625 3.29296875 C-0.41102722 3.31315819 -0.41102722 3.31315819 -1.6114502 3.33375549 C-5.46026281 3.35154854 -7.23391279 3.32062064 -10.515625 1.1328125 C-7.23560347 -0.50719826 -3.60406803 -0.00885445 0 0 Z " fill="#8D6886" transform="translate(138.515625,362.8671875)"/>
<path d="M0 0 C0.99 0 1.98 0 3 0 C0.14155158 9.43287978 -7.73875668 14.49589433 -16 19 C-24.62352941 23 -24.62352941 23 -28 23 C-28 22.01 -28 21.02 -28 20 C-27.40832031 19.82984375 -26.81664062 19.6596875 -26.20703125 19.484375 C-21.31429763 17.98383027 -17.90054409 16.42775087 -14 13 C-13.34 13 -12.68 13 -12 13 C-11.67 12.34 -11.34 11.68 -11 11 C-10.67 11 -10.34 11 -10 11 C-9.360625 10.67 -8.72125 10.34 -8.0625 10 C-6 9 -6 9 -4 9 C-3.34 7.02 -2.68 5.04 -2 3 C-1.34 3 -0.68 3 0 3 C0 2.01 0 1.02 0 0 Z " fill="#8A6083" transform="translate(476,524)"/>
<path d="M0 0 C2.31686741 3.66325605 2.24441047 6.79559166 2.23046875 11.06640625 C2.23001053 11.74170883 2.22955231 12.41701141 2.2290802 13.11277771 C2.22606775 14.53573369 2.21821164 15.95868667 2.20581055 17.3815918 C2.18753316 19.55854987 2.18530119 21.73508249 2.18554688 23.91210938 C2.14776543 34.5567037 2.14776543 34.5567037 1 38 C0.34 38 -0.32 38 -1 38 C-1.02468084 32.90967159 -1.04285082 27.81937785 -1.05493164 22.72900391 C-1.05996682 20.99657586 -1.06679532 19.26415208 -1.07543945 17.53173828 C-1.08754065 15.04458567 -1.09323638 12.55748913 -1.09765625 10.0703125 C-1.10281754 9.29317902 -1.10797882 8.51604553 -1.11329651 7.71536255 C-1.11387171 2.22774341 -1.11387171 2.22774341 0 0 Z " fill="#84577B" transform="translate(379,224)"/>
<path d="M0 0 C0.99 0.33 1.98 0.66 3 1 C2.67 1.99 2.34 2.98 2 4 C1.34 4 0.68 4 0 4 C-0.33 4.66 -0.66 5.32 -1 6 C-2.66072849 6.68132451 -4.327767 7.34742127 -6 8 C-8.16343011 10.03268602 -8.16343011 10.03268602 -10 13 C-10 12.34 -10 11.68 -10 11 C-10.66 11 -11.32 11 -12 11 C-12.33 11.66 -12.66 12.32 -13 13 C-18.24055755 16.14433453 -18.24055755 16.14433453 -21.19921875 15.58203125 C-22.09060547 15.29392578 -22.09060547 15.29392578 -23 15 C-19.240163 12.46245474 -15.46549121 9.9479201 -11.6875 7.4375 C-10.61564453 6.71369141 -9.54378906 5.98988281 -8.43945312 5.24414062 C-6.89741211 4.22416992 -6.89741211 4.22416992 -5.32421875 3.18359375 C-4.37635498 2.54993896 -3.42849121 1.91628418 -2.4519043 1.26342773 C-1.64277588 0.84649658 -0.83364746 0.42956543 0 0 Z " fill="#8A5F83" transform="translate(384,617)"/>
<path d="M0 0 C0.66 0.33 1.32 0.66 2 1 C-3 6 -3 6 -5.1875 8.0625 C-6.96268553 9.96011212 -7.9821385 11.62498984 -9 14 C-9.99 14 -10.98 14 -12 14 C-11.67 14.99 -11.34 15.98 -11 17 C-11.66 17.66 -12.32 18.32 -13 19 C-13.40047444 21.32275177 -13.7397104 23.65739357 -14 26 C-14.66 26 -15.32 26 -16 26 C-17.53105344 20.69801865 -15.97735026 18.10366504 -13.453125 13.4296875 C-9.92494342 7.53041615 -5.69248329 3.79498886 0 0 Z " fill="#F7ECF6" transform="translate(236,310)"/>
<path d="M0 0 C1.98 0 3.96 0 6 0 C5.50959229 0.56154785 5.01918457 1.1230957 4.51391602 1.70166016 C2.75341491 4.37435123 2.66796237 5.61718034 2.77734375 8.7734375 C2.79603516 9.6809375 2.81472656 10.5884375 2.83398438 11.5234375 C2.86814453 12.46445312 2.90230469 13.40546875 2.9375 14.375 C3.30317377 25.64086415 3.30317377 25.64086415 1 31 C0.67 31 0.34 31 0 31 C0 20.77 0 10.54 0 0 Z " fill="#EEDCEC" transform="translate(626,554)"/>
<path d="M0 0 C3.18439511 2.97895027 4.89641774 4.84660288 5.11352539 9.36010742 C5.10828857 10.26607666 5.10305176 11.1720459 5.09765625 12.10546875 C5.09443359 13.08837891 5.09121094 14.07128906 5.08789062 15.08398438 C5.07951172 16.10814453 5.07113281 17.13230469 5.0625 18.1875 C5.05798828 19.22326172 5.05347656 20.25902344 5.04882812 21.32617188 C5.0370401 23.88417266 5.02058515 26.44205733 5 29 C4.34 29 3.68 29 3 29 C3.33 29.99 3.66 30.98 4 32 C3.34 32 2.68 32 2 32 C1.82631887 20.59493938 1.82631887 20.59493938 2.6875 15.25 C3.32890156 10.48282621 1.88294666 7.36843625 0 3 C0 2.01 0 1.02 0 0 Z " fill="#8E5B83" transform="translate(329,620)"/>
<path d="M0 0 C0 0.66 0 1.32 0 2 C-14.19 2 -28.38 2 -43 2 C-42.67 1.34 -42.34 0.68 -42 0 C-41.04633545 0.00523682 -40.0926709 0.01047363 -39.11010742 0.01586914 C-35.57105447 0.03397265 -32.03200562 0.04545161 -28.49291992 0.05493164 C-26.9613374 0.0599596 -25.42975967 0.06678284 -23.89819336 0.07543945 C-21.69643978 0.08757229 -19.49474967 0.09324367 -17.29296875 0.09765625 C-16.26625313 0.10539818 -16.26625313 0.10539818 -15.21879578 0.11329651 C-9.74607433 0.11394194 -5.52323629 -0.93790805 0 0 Z " fill="#8D5D83" transform="translate(173,551)"/>
<path d="M0 0 C0 0.33 0 0.66 0 1 C-0.97839844 1.15855469 -1.95679688 1.31710937 -2.96484375 1.48046875 C-10.80154891 2.84159123 -17.32048012 4.441679 -24 9 C-24.99 9.66 -25.98 10.32 -27 11 C-26.8125 8.6875 -26.8125 8.6875 -26 6 C-23.10451959 3.79029126 -21.66842255 3 -18 3 C-18 2.34 -18 1.68 -18 1 C-11.97403427 -0.0712828 -6.11090483 -0.09945415 0 0 Z " fill="#8B6185" transform="translate(257,304)"/>
<path d="M0 0 C0.99 0.33 1.98 0.66 3 1 C0.97139576 5.69992222 -2.14362873 7.51579272 -6.3125 10.25 C-6.97701172 10.70890625 -7.64152344 11.1678125 -8.32617188 11.640625 C-11.96398283 14.05863584 -14.46462386 15.66670906 -19 15 C-15.03453458 10.83626131 -10.92413718 8.38551563 -5.70703125 6.0625 C-3.65852121 5.03941237 -3.65852121 5.03941237 -3 2 C-2.01 1.34 -1.02 0.68 0 0 Z " fill="#885F80" transform="translate(361,681)"/>
<path d="M0 0 C0.99 0.495 0.99 0.495 2 1 C1.99476318 1.89605957 1.98952637 2.79211914 1.98413086 3.71533203 C1.96686091 7.1111722 1.95444092 10.50696421 1.94506836 13.90283203 C1.94010813 15.35921984 1.93333785 16.81560285 1.92456055 18.27197266 C1.86805357 27.90475082 2.15774764 37.39623406 3 47 C1 46 1 46 0 43 C-0.08610514 41.57281363 -0.11771828 40.14193352 -0.11352539 38.7121582 C-0.11344986 37.85149246 -0.11337433 36.99082672 -0.11329651 36.1040802 C-0.10813522 35.17899155 -0.10297394 34.25390289 -0.09765625 33.30078125 C-0.0962413 32.35059616 -0.09482635 31.40041107 -0.09336853 30.4214325 C-0.08776875 27.38508971 -0.07521632 24.34882052 -0.0625 21.3125 C-0.05748497 19.25455836 -0.05292207 17.19661556 -0.04882812 15.13867188 C-0.0377994 10.09241954 -0.02053493 5.04622225 0 0 Z " fill="#8B5A81" transform="translate(291,655)"/>
<path d="M0 0 C1.98 0 3.96 0 6 0 C6 8.25 6 16.5 6 25 C5.01 25 4.02 25 3 25 C3.01571045 24.38479492 3.0314209 23.76958984 3.04760742 23.13574219 C3.11007926 20.34058879 3.14902868 17.54558245 3.1875 14.75 C3.21263672 13.78191406 3.23777344 12.81382812 3.26367188 11.81640625 C3.27333984 10.88183594 3.28300781 9.94726562 3.29296875 8.984375 C3.3086792 8.12553711 3.32438965 7.26669922 3.34057617 6.38183594 C2.93095949 3.51716184 1.886136 2.14936836 0 0 Z " fill="#EBD8E9" transform="translate(168,554)"/>
<path d="M0 0 C0.99 0.33 1.98 0.66 3 1 C1.50521886 4.80489745 -0.69442214 6.66190835 -4 9 C-4.99 9.33 -5.98 9.66 -7 10 C-7 10.99 -7 11.98 -7 13 C-8.98 13.33 -10.96 13.66 -13 14 C-10.81781061 9.91836336 -8.29492732 7.21766403 -4.8125 4.1875 C-3.91144531 3.39730469 -3.01039062 2.60710937 -2.08203125 1.79296875 C-1.39496094 1.20128906 -0.70789063 0.60960937 0 0 Z " fill="#895C80" transform="translate(109,371)"/>
<path d="M0 0 C-0.99 1.485 -0.99 1.485 -2 3 C-0.72125 2.79375 0.5575 2.5875 1.875 2.375 C4.0546875 2.0234375 4.0546875 2.0234375 6 2 C6.66 2.66 7.32 3.32 8 4 C7.34 4.66 6.68 5.32 6 6 C5.01 5.67 4.02 5.34 3 5 C0.42734182 4.92970879 -2.11641431 4.90629168 -4.6875 4.9375 C-5.38939453 4.94201172 -6.09128906 4.94652344 -6.81445312 4.95117188 C-8.54300538 4.96293073 -10.27151365 4.98086546 -12 5 C-11.34 3.35 -10.68 1.7 -10 0 C-9.34 0.33 -8.68 0.66 -8 1 C-7.67 0.67 -7.34 0.34 -7 0 C-3.86650268 -1.04449911 -3.01031744 -0.93423645 0 0 Z " fill="#F9F6FA" transform="translate(315,345)"/>
<path d="M0 0 C0.33 0 0.66 0 1 0 C1.67387598 4.37392109 2.33782758 8.74929306 3 13.125 C3.19078125 14.3625 3.3815625 15.6 3.578125 16.875 C3.75859375 18.07382813 3.9390625 19.27265625 4.125 20.5078125 C4.29257812 21.60754395 4.46015625 22.70727539 4.6328125 23.84033203 C4.99143752 26.92631942 5.06542193 29.89654724 5 33 C1.14952705 27.22429057 0.85505214 20.28742206 0.29296875 13.5 C-0.09575697 10.18287385 -0.90312677 7.02741297 -1.79296875 3.8125 C-1.86128906 3.214375 -1.92960937 2.61625 -2 2 C-1.34 1.34 -0.68 0.68 0 0 Z " fill="#8D6387" transform="translate(438,189)"/>
<path d="M0 0 C0 0.66 0 1.32 0 2 C-0.66 2.66 -1.32 3.32 -2 4 C-2.70710678 5.64991582 -3.37943989 7.31562256 -4 9 C-3.34 9.33 -2.68 9.66 -2 10 C-3.98 10.33 -5.96 10.66 -8 11 C-8.66 10.01 -9.32 9.02 -10 8 C-8.71451591 6.66070495 -7.42141845 5.32871357 -6.125 4 C-5.04605469 2.88625 -5.04605469 2.88625 -3.9453125 1.75 C-2 0 -2 0 0 0 Z M-12 9 C-11.34 9.33 -10.68 9.66 -10 10 C-11.32 10.99 -12.64 11.98 -14 13 C-14.66 12.67 -15.32 12.34 -16 12 C-14.68 11.01 -13.36 10.02 -12 9 Z " fill="#F4EDF4" transform="translate(607,629)"/>
<path d="M0 0 C0 3 0 3 -1.125 4.625 C-3.62740729 6.46009868 -5.96974499 6.53887424 -9 7 C-9.33 7.66 -9.66 8.32 -10 9 C-13.74198039 9.70603404 -17.18792739 10 -21 10 C-21 9.34 -21 8.68 -21 8 C-20.40574219 7.84144531 -19.81148437 7.68289063 -19.19921875 7.51953125 C-12.47502505 5.62671778 -6.28960388 3.02522772 0 0 Z " fill="#F3E6F4" transform="translate(585,645)"/>
<path d="M0 0 C0.33 0 0.66 0 1 0 C0.97679687 0.74765625 0.95359375 1.4953125 0.9296875 2.265625 C0.91164063 3.25046875 0.89359375 4.2353125 0.875 5.25 C0.85179687 6.22453125 0.82859375 7.1990625 0.8046875 8.203125 C1.08331758 12.19310768 2.19942241 14.19942241 5 17 C7.65537372 17.56520003 10.29144713 17.73788198 13 18 C9.50875983 20.32749345 8.10777749 20.50299316 4 20 C1.69724444 18.1329009 0.32176129 16.64352259 -1 14 C-1.31658385 9.26055347 -1.19110347 4.61552596 0 0 Z " fill="#966B8E" transform="translate(357,213)"/>
<path d="M0 0 C0.99 0.33 1.98 0.66 3 1 C1.98679687 1.70576172 1.98679687 1.70576172 0.953125 2.42578125 C-0.38492187 3.35970703 -0.38492187 3.35970703 -1.75 4.3125 C-2.63171875 4.92738281 -3.5134375 5.54226563 -4.421875 6.17578125 C-6.04304197 7.3228797 -7.64134002 8.50374757 -9.203125 9.73046875 C-11 11 -11 11 -13 11 C-12.25 9.0625 -12.25 9.0625 -11 7 C-8.875 6.25 -8.875 6.25 -7 6 C-6.8453125 5.071875 -6.8453125 5.071875 -6.6875 4.125 C-5.52284543 0.52515862 -3.5849033 0 0 0 Z " fill="#835A7D" transform="translate(340,697)"/>
<path d="M0 0 C0 4.33961983 -2.13091617 6.85176206 -5 10 C-7.8125 11.4375 -7.8125 11.4375 -10 12 C-10.99 11.01 -11.98 10.02 -13 9 C-8.71 6.03 -4.42 3.06 0 0 Z " fill="#FBEEF9" transform="translate(363,684)"/>
<path d="M0 0 C4.97458002 1.77663572 6.89595115 5.90230719 9.25 10.375 C9.4975 10.91125 9.745 11.4475 10 12 C9.01 11.67 8.02 11.34 7 11 C6.67 10.34 6.34 9.68 6 9 C4.35 9 2.7 9 1 9 C0.67 7.68 0.34 6.36 0 5 C-0.66 5 -1.32 5 -2 5 C-1.34 3.35 -0.68 1.7 0 0 Z " fill="#8A5A82" transform="translate(219,590)"/>
<path d="M0 0 C1.32 0 2.64 0 4 0 C3.71572583 1.58467728 3.42225182 3.1677057 3.125 4.75 C2.96257813 5.63171875 2.80015625 6.5134375 2.6328125 7.421875 C2.03203736 9.86947744 1.22002883 11.80599857 0 14 C-2 12 -2 12 -2.25 8.5 C-2 5 -2 5 0 3 C0 2.01 0 1.02 0 0 Z " fill="#8C5C84" transform="translate(620,593)"/>
<path d="M0 0 C1 3 1 3 0 6 C0.66 6.33 1.32 6.66 2 7 C2 8.32 2 9.64 2 11 C1.34 10.67 0.68 10.34 0 10 C0.33 9.34 0.66 8.68 1 8 C-1.81939117 10.20979308 -4.53058944 12.40062046 -7 15 C-7.99 14.67 -8.98 14.34 -10 14 C-9.52949219 13.40832031 -9.05898438 12.81664062 -8.57421875 12.20703125 C-3.9441876 6.33987937 -3.9441876 6.33987937 0 0 Z " fill="#F1E9F0" transform="translate(708,525)"/>
<path d="M0 0 C0.33 0.66 0.66 1.32 1 2 C1.66 2 2.32 2 3 2 C2.875 3.875 2.875 3.875 2 6 C-2.0124261 7.91502155 -4.74351821 8.25190641 -9 7 C-6.03716687 4.61327331 -3.05729491 2.2646629 0 0 Z " fill="#F4EBF3" transform="translate(333,704)"/>
<path d="M0 0 C1.32 0.66 2.64 1.32 4 2 C2.4050992 3.19991599 0.79873853 4.38461318 -0.8125 5.5625 C-1.70582031 6.22378906 -2.59914063 6.88507812 -3.51953125 7.56640625 C-4.33808594 8.03949219 -5.15664063 8.51257813 -6 9 C-6.99 8.67 -7.98 8.34 -9 8 C-8.67 7.34 -8.34 6.68 -8 6 C-8.33 5.34 -8.66 4.68 -9 4 C-6.92446352 3.4465236 -5.15634036 3 -3 3 C-1.37485532 1.54166642 -1.37485532 1.54166642 0 0 Z " fill="#8F5B84" transform="translate(378,670)"/>
<path d="M0 0 C0.33 0.66 0.66 1.32 1 2 C0.35561283 3.67540664 -0.31246699 5.34183216 -1 7 C-1 7.99 -1 8.98 -1 10 C-1.99 9.67 -2.98 9.34 -4 9 C-4.33 9 -4.66 9 -5 9 C-6.33568021 8.67619874 -7.66923011 8.34342449 -9 8 C-9 7.34 -9 6.68 -9 6 C-7.03125 4.4921875 -7.03125 4.4921875 -4.5 2.875 C-3.6646875 2.33617187 -2.829375 1.79734375 -1.96875 1.2421875 C-1.3190625 0.83226562 -0.669375 0.42234375 0 0 Z M-5 9 C-4.67 9.66 -4.34 10.32 -4 11 C-4.66 10.67 -5.32 10.34 -6 10 C-5.67 9.67 -5.34 9.34 -5 9 Z " fill="#8F5C84" transform="translate(343,644)"/>
<path d="M0 0 C0.66 0.66 1.32 1.32 2 2 C1.34 2 0.68 2 0 2 C-0.33 2.99 -0.66 3.98 -1 5 C-1.33 4.67 -1.66 4.34 -2 4 C-2.99 5.485 -2.99 5.485 -4 7 C-3.01 7.99 -2.02 8.98 -1 10 C-2.45792884 10.05399736 -3.91642712 10.09279177 -5.375 10.125 C-6.18710937 10.14820313 -6.99921875 10.17140625 -7.8359375 10.1953125 C-10 10 -10 10 -12 8 C-8.04 5.36 -4.08 2.72 0 0 Z " fill="#F6EFF5" transform="translate(348,694)"/>
<path d="M0 0 C0.66 0.66 1.32 1.32 2 2 C1.34 2 0.68 2 0 2 C-0.33 2.99 -0.66 3.98 -1 5 C-1.33 4.67 -1.66 4.34 -2 4 C-2.99 5.485 -2.99 5.485 -4 7 C-3.01 7.99 -2.02 8.98 -1 10 C-2.45792884 10.05399736 -3.91642712 10.09279177 -5.375 10.125 C-6.18710937 10.14820313 -6.99921875 10.17140625 -7.8359375 10.1953125 C-10 10 -10 10 -12 8 C-8.04 5.36 -4.08 2.72 0 0 Z " fill="#F6EFF5" transform="translate(396,662)"/>
<path d="M0 0 C4.12950279 3.77554541 7.74570152 7.81410261 10 13 C9.8125 16.5 9.8125 16.5 9 19 C8.67 19 8.34 19 8 19 C7.731875 17.96875 7.46375 16.9375 7.1875 15.875 C5.75812507 10.91245184 4.41360456 6.94240304 0 4 C0 2.68 0 1.36 0 0 Z " fill="#8C6185" transform="translate(699,379)"/>
<path d="M0 0 C1.15224028 0.92961422 2.29659176 1.8690125 3.4375 2.8125 C4.07558594 3.33457031 4.71367188 3.85664063 5.37109375 4.39453125 C7 6 7 6 8 9 C6.35 8.67 4.7 8.34 3 8 C2.67 7.01 2.34 6.02 2 5 C0.35 5.33 -1.3 5.66 -3 6 C-2.42655063 3.13275314 -2.1385485 2.1385485 0 0 Z " fill="#895A80" transform="translate(603,286)"/>
<path d="M0 0 C4.11454254 1.45219148 7.5695421 3.28754492 11 6 C11 7.32 11 8.64 11 10 C12.32 10.33 13.64 10.66 15 11 C14.67 11.66 14.34 12.32 14 13 C10.15901523 10.88507055 7.2560057 8.49948176 4.1875 5.375 C3.39730469 4.57835937 2.60710937 3.78171875 1.79296875 2.9609375 C0 1 0 1 0 0 Z " fill="#8C5F83" transform="translate(340,165)"/>
<path d="M0 0 C3.12290635 0.48578543 5.99580359 0.9986012 9 2 C9 2.66 9 3.32 9 4 C9.99 4 10.98 4 12 4 C12 4.99 12 5.98 12 7 C12.99 7.33 13.98 7.66 15 8 C14.01 8.495 14.01 8.495 13 9 C8.04628837 6.90567018 3.50608038 4.11583349 0 0 Z " fill="#87597D" transform="translate(208,640)"/>
<path d="M0 0 C0 4 0 4 -1 7 C-4.33333333 5.66666667 -7.66666667 4.33333333 -11 3 C-10.34 2.67 -9.68 2.34 -9 2 C-9 1.34 -9 0.68 -9 0 C-8.34 0.33 -7.68 0.66 -7 1 C-6.360625 0.67 -5.72125 0.34 -5.0625 0 C-3 -1 -3 -1 0 0 Z " fill="#F5ECF3" transform="translate(328,609)"/>
<path d="M0 0 C2.375 -0.1875 2.375 -0.1875 5 0 C7 3 7 3 6.75 6.625 C6.5025 7.73875 6.255 8.8525 6 10 C5.01 10.495 5.01 10.495 4 11 C3.32591692 9.73308493 2.66099503 8.46129251 2 7.1875 C1.443125 6.12595703 1.443125 6.12595703 0.875 5.04296875 C0 3 0 3 0 0 Z " fill="#F5EDF2" transform="translate(329,616)"/>
<path d="M0 0 C0.66 0.66 1.32 1.32 2 2 C-2.62 6.62 -7.24 11.24 -12 16 C-12.99 15.67 -13.98 15.34 -15 15 C-10.9652896 10.85491758 -6.861208 6.92677337 -2.3828125 3.26171875 C-0.86422362 2.02785702 -0.86422362 2.02785702 0 0 Z " fill="#EFDFED" transform="translate(465,160)"/>
<path d="M0 0 C0.33 0.99 0.66 1.98 1 3 C1.66 3.33 2.32 3.66 3 4 C0.03 6.97 -2.94 9.94 -6 13 C-6.66 12.34 -7.32 11.68 -8 11 C-7.34 11 -6.68 11 -6 11 C-5.896875 10.360625 -5.79375 9.72125 -5.6875 9.0625 C-5.460625 8.381875 -5.23375 7.70125 -5 7 C-4.01 6.67 -3.02 6.34 -2 6 C-1.855625 5.195625 -1.71125 4.39125 -1.5625 3.5625 C-1 1 -1 1 0 0 Z " fill="#906285" transform="translate(604,624)"/>
<path d="M0 0 C3 0 6 0 9 0 C8.07456291 1.34173403 7.13422595 2.67320159 6.1875 4 C5.66542969 4.7425 5.14335937 5.485 4.60546875 6.25 C4.07566406 6.8275 3.54585938 7.405 3 8 C2.01 8 1.02 8 0 8 C-0.98120464 4.94736336 -0.98120464 3.05263664 0 0 Z " fill="#F7F0F5" transform="translate(321,496)"/>
<path d="M0 0 C1.32 0.66 2.64 1.32 4 2 C3.34 3.65 2.68 5.3 2 7 C2.66 7.33 3.32 7.66 4 8 C3.01 8.33 2.02 8.66 1 9 C0.67 7.68 0.34 6.36 0 5 C-1.65 5.33 -3.3 5.66 -5 6 C-3.35 4.02 -1.7 2.04 0 0 Z " fill="#89547F" transform="translate(203,279)"/>
<path d="M0 0 C0.66 0.66 1.32 1.32 2 2 C1.34 2 0.68 2 0 2 C0 2.99 0 3.98 0 5 C-0.99 5.495 -0.99 5.495 -2 6 C-2 6.99 -2 7.98 -2 9 C-3.65 9.33 -5.3 9.66 -7 10 C-7.4375 7.8125 -7.4375 7.8125 -7 5 C-4.86004673 3.01558218 -2.49824035 1.4976696 0 0 Z " fill="#F7F1F6" transform="translate(372,678)"/>
<path d="M0 0 C0.625 1.8125 0.625 1.8125 1 4 C0.01 5.485 0.01 5.485 -1 7 C-6.75 5.375 -6.75 5.375 -9 2 C-6.92446352 1.4465236 -5.15634036 1 -3 1 C-2.01 0.67 -1.02 0.34 0 0 Z " fill="#8B5981" transform="translate(343,536)"/>
<path d="M0 0 C2.6875 0.3125 2.6875 0.3125 5 1 C5 4 5 4 4 8 C1.69 6.35 -0.62 4.7 -3 3 C-2.01 2.01 -1.02 1.02 0 0 Z " fill="#F4ECF3" transform="translate(593,272)"/>
<path d="M0 0 C1.32 0 2.64 0 4 0 C4.33 0.99 4.66 1.98 5 3 C-0.28 3 -5.56 3 -11 3 C-11.33 2.01 -11.66 1.02 -12 0 C-7.63604871 -0.77010905 -4.30002452 -1.04595191 0 0 Z " fill="#FAEDF8" transform="translate(345,492)"/>
<path d="M0 0 C0.33 0 0.66 0 1 0 C1 7.26 1 14.52 1 22 C1.66 22.33 2.32 22.66 3 23 C1.35 23.33 -0.3 23.66 -2 24 C-1.34 23.67 -0.68 23.34 0 23 C-0.5259375 21.824375 -0.5259375 21.824375 -1.0625 20.625 C-1.371875 19.75875 -1.68125 18.8925 -2 18 C-1.67 17.34 -1.34 16.68 -1 16 C-0.7677354 13.28737884 -0.58063765 10.59226874 -0.4375 7.875 C-0.39431641 7.12089844 -0.35113281 6.36679688 -0.30664062 5.58984375 C-0.2005168 3.72678112 -0.09974999 1.86341476 0 0 Z " fill="#8D5B83" transform="translate(421,240)"/>
<path d="M0 0 C-0.1875 2.875 -0.1875 2.875 -1 6 C-3.5625 7.375 -3.5625 7.375 -6 8 C-6.99 7.01 -7.98 6.02 -9 5 C-7.87926138 4.16094435 -6.75325453 3.32892169 -5.625 2.5 C-4.99851562 2.0359375 -4.37203125 1.571875 -3.7265625 1.09375 C-2 0 -2 0 0 0 Z " fill="#FAEEF8" transform="translate(407,656)"/>
<path d="M0 0 C2.64 0 5.28 0 8 0 C8 0.66 8 1.32 8 2 C9.65 1.67 11.3 1.34 13 1 C13.33 1.99 13.66 2.98 14 4 C4.58997722 3.03644647 4.58997722 3.03644647 0 2 C0 1.34 0 0.68 0 0 Z " fill="#926A8B" transform="translate(231,651)"/>
<path d="M0 0 C0.66 0.33 1.32 0.66 2 1 C-0.67038004 4.9352969 -3.69470399 8.25233643 -8.3125 9.75 C-9.1478125 9.87375 -9.1478125 9.87375 -10 10 C-10.33 9.34 -10.66 8.68 -11 8 C-9.54550599 6.9944239 -8.08627557 5.99569565 -6.625 5 C-5.40683594 4.1646875 -5.40683594 4.1646875 -4.1640625 3.3125 C-2 2 -2 2 0 2 C0 1.34 0 0.68 0 0 Z " fill="#F6ECF3" transform="translate(696,540)"/>
<path d="M0 0 C-1.21705006 1.01471171 -2.44926884 2.0112461 -3.6875 3 C-4.71423828 3.8353125 -4.71423828 3.8353125 -5.76171875 4.6875 C-8.38783056 6.22741897 -10.00603356 6.25168194 -13 6 C-5.66666667 -1.7 -5.66666667 -1.7 0 0 Z " fill="#875E7F" transform="translate(403,658)"/>
<path d="M0 0 C0.99 0.66 1.98 1.32 3 2 C2 5 2 5 0 6 C-0.46523063 7.89533342 -0.46523063 7.89533342 -0.625 10.0625 C-0.74875 11.361875 -0.8725 12.66125 -1 14 C-1.66 13.67 -2.32 13.34 -3 13 C-2.88557539 11.39504433 -2.75805306 9.79101881 -2.625 8.1875 C-2.55539062 7.29417969 -2.48578125 6.40085937 -2.4140625 5.48046875 C-2 3 -2 3 0 0 Z " fill="#986A92" transform="translate(321,507)"/>
<path d="M0 0 C0.66 0.33 1.32 0.66 2 1 C-3.10417116 5.51066289 -6.89454795 8.40602583 -14 8 C-10.48582996 5.11336032 -10.48582996 5.11336032 -8.125 4.5625 C-4.97022361 3.72741213 -2.64420906 1.86296547 0 0 Z " fill="#82577A" transform="translate(502,443)"/>
<path d="M0 0 C5.75 1.625 5.75 1.625 8 5 C3.545 5.495 3.545 5.495 -1 6 C-0.67 4.02 -0.34 2.04 0 0 Z " fill="#F3F1F5" transform="translate(466,442)"/>
<path d="M0 0 C0.763125 0.20625 1.52625 0.4125 2.3125 0.625 C-0.44270215 3.58429119 -3.15377288 5.66181826 -6.6875 7.625 C-6.6875 4.625 -6.6875 4.625 -5.6875 1.625 C-2.6875 -0.375 -2.6875 -0.375 0 0 Z " fill="#F7ECF5" transform="translate(207.6875,273.375)"/>
<path d="M0 0 C5.30199626 0.15594107 8.34550253 3.55613639 12 7 C11.67 7.66 11.34 8.32 11 9 C9.35 7.68 7.7 6.36 6 5 C5.01 5.495 5.01 5.495 4 6 C3.67 5.01 3.34 4.02 3 3 C0.99983534 1.79117904 0.99983534 1.79117904 -1 1 C-0.67 0.67 -0.34 0.34 0 0 Z " fill="#845A7D" transform="translate(318,350)"/>
<path d="M0 0 C0.8971875 0.5259375 0.8971875 0.5259375 1.8125 1.0625 C-0.57207948 2.65221965 -2.8179124 3.92991593 -5.375 5.1875 C-6.09042969 5.54070312 -6.80585938 5.89390625 -7.54296875 6.2578125 C-8.08566406 6.52335937 -8.62835938 6.78890625 -9.1875 7.0625 C-9.1875 6.0725 -9.1875 5.0825 -9.1875 4.0625 C-8.5275 4.0625 -7.8675 4.0625 -7.1875 4.0625 C-6.919375 3.423125 -6.65125 2.78375 -6.375 2.125 C-4.66350968 -0.84758845 -3.15274533 -1.35117657 0 0 Z " fill="#F9EEF9" transform="translate(219.1875,266.9375)"/>
<path d="M0 0 C1.51400391 0.01740234 1.51400391 0.01740234 3.05859375 0.03515625 C4.07050781 0.04417969 5.08242188 0.05320312 6.125 0.0625 C7.29869141 0.07990234 7.29869141 0.07990234 8.49609375 0.09765625 C8.49609375 0.75765625 8.49609375 1.41765625 8.49609375 2.09765625 C4.86609375 2.75765625 1.23609375 3.41765625 -2.50390625 4.09765625 C-2.83390625 3.10765625 -3.16390625 2.11765625 -3.50390625 1.09765625 C-2.50390625 0.09765625 -2.50390625 0.09765625 0 0 Z " fill="#8E6185" transform="translate(435.50390625,546.90234375)"/>
<path d="M0 0 C0.66 0.33 1.32 0.66 2 1 C0.68 3.64 -0.64 6.28 -2 9 C-2.99 9 -3.98 9 -5 9 C-5 4.61031544 -2.87194899 3.23094261 0 0 Z " fill="#906386" transform="translate(193,289)"/>
<path d="M0 0 C0.99 0.33 1.98 0.66 3 1 C4.1875 3.5625 4.1875 3.5625 5 6 C2.525 7.485 2.525 7.485 0 9 C0 6.03 0 3.06 0 0 Z " fill="#F8F1F9" transform="translate(335,641)"/>
<path d="M0 0 C4.92715996 -0.46192125 8.50732625 1.1724717 13 3 C12.67 3.66 12.34 4.32 12 5 C10.56206608 4.68950274 9.1246682 4.3765224 7.6875 4.0625 C6.88699219 3.88847656 6.08648437 3.71445312 5.26171875 3.53515625 C3 3 3 3 0 2 C0 1.34 0 0.68 0 0 Z " fill="#926B8B" transform="translate(346,544)"/>
<path d="M0 0 C2.31 0.33 4.62 0.66 7 1 C7 1.33 7 1.66 7 2 C9.64 2.33 12.28 2.66 15 3 C15 3.33 15 3.66 15 4 C10.38 4.33 5.76 4.66 1 5 C0.67 3.35 0.34 1.7 0 0 Z " fill="#F4EAF3" transform="translate(478,345)"/>
<path d="M0 0 C-0.75 2.4375 -0.75 2.4375 -2 5 C-4 5.875 -4 5.875 -6 6 C-6.66 5.67 -7.32 5.34 -8 5 C-8 4.01 -8 3.02 -8 2 C-2.25 0 -2.25 0 0 0 Z " fill="#8D5A84" transform="translate(562,608)"/>
<path d="M0 0 C-1 2 -1 2 -3.72265625 3.0703125 C-4.82480469 3.41835938 -5.92695312 3.76640625 -7.0625 4.125 C-8.16722656 4.47820312 -9.27195312 4.83140625 -10.41015625 5.1953125 C-11.26480469 5.46085937 -12.11945313 5.72640625 -13 6 C-13 5.34 -13 4.68 -13 4 C-8.5975268 0.34916857 -5.67177385 -0.45374191 0 0 Z " fill="#F8EBF7" transform="translate(126,363)"/>
<path d="M0 0 C3.60400554 4.38748501 4 7.48123356 4 13 C0.55142774 10.33519416 -0.11143942 7.14661606 -1 3 C-0.67 2.01 -0.34 1.02 0 0 Z " fill="#F9F0F8" transform="translate(619,301)"/>
<path d="M0 0 C-0.125 1.75 -0.125 1.75 -1 4 C-4.0625 6.25 -4.0625 6.25 -7 8 C-7.33 7.34 -7.66 6.68 -8 6 C-7.34 6 -6.68 6 -6 6 C-5.67 4.35 -5.34 2.7 -5 1 C-2 0 -2 0 0 0 Z " fill="#7F5777" transform="translate(695,539)"/>
<path d="M0 0 C0.33 0.66 0.66 1.32 1 2 C2.97888961 2.72693904 4.97954558 3.39816251 7 4 C6.67 4.99 6.34 5.98 6 7 C4.1875 6.8125 4.1875 6.8125 2 6 C0.25 3.4375 0.25 3.4375 -1 1 C-0.67 0.67 -0.34 0.34 0 0 Z " fill="#845A7D" transform="translate(295,702)"/>
<path d="M0 0 C0.99 0.33 1.98 0.66 3 1 C2.38144369 2.6274637 1.75492695 4.25190356 1.125 5.875 C0.77695312 6.77992188 0.42890625 7.68484375 0.0703125 8.6171875 C-1 11 -1 11 -3 13 C-2.69128878 11.20767663 -2.37790936 9.41615679 -2.0625 7.625 C-1.88847656 6.62726562 -1.71445312 5.62953125 -1.53515625 4.6015625 C-1 2 -1 2 0 0 Z " fill="#FAEDFA" transform="translate(578,583)"/>
<path d="M0 0 C5.28 0.33 10.56 0.66 16 1 C16 1.33 16 1.66 16 2 C14.08416353 2.1958009 12.16727461 2.38132214 10.25 2.5625 C8.64898437 2.71912109 8.64898437 2.71912109 7.015625 2.87890625 C4.35858796 2.98560074 2.50039428 2.81930395 0 2 C0 1.34 0 0.68 0 0 Z " fill="#966E8E" transform="translate(370,506)"/>
<path d="M0 0 C1.65 0 3.3 0 5 0 C5 0.99 5 1.98 5 3 C3.1875 4.75 3.1875 4.75 1 6 C0.01 5.67 -0.98 5.34 -2 5 C-1.34 3.35 -0.68 1.7 0 0 Z " fill="#F6EDF3" transform="translate(106,368)"/>
<path d="M0 0 C1.5 1.1875 1.5 1.1875 3 3 C3.1875 5.6875 3.1875 5.6875 3 8 C2.01 8.495 2.01 8.495 1 9 C-0.625 7.3125 -0.625 7.3125 -2 5 C-1.1875 2.25 -1.1875 2.25 0 0 Z " fill="#8D5E83" transform="translate(619,310)"/>
<path d="M0 0 C-1.1094072 3.48670834 -2.26337666 6.77484237 -4 10 C-4.66 10 -5.32 10 -6 10 C-5.38909774 3.52443609 -5.38909774 3.52443609 -3.5625 1.0625 C-2 0 -2 0 0 0 Z " fill="#F3EBF2" transform="translate(630,584)"/>
<path d="M0 0 C0.66 0.33 1.32 0.66 2 1 C1.01 2.32 0.02 3.64 -1 5 C-1.66 4.67 -2.32 4.34 -3 4 C-3.33 4.99 -3.66 5.98 -4 7 C-5.65 7.33 -7.3 7.66 -9 8 C-9 7.34 -9 6.68 -9 6 C-7.03125 4.4921875 -7.03125 4.4921875 -4.5 2.875 C-3.6646875 2.33617187 -2.829375 1.79734375 -1.96875 1.2421875 C-1.3190625 0.83226562 -0.669375 0.42234375 0 0 Z " fill="#F7E9F5" transform="translate(469,536)"/>
<path d="M0 0 C3.08089673 2.77280706 4.68775452 5.06326356 6 9 C3 9 3 9 0 7 C-0.1875 3.375 -0.1875 3.375 0 0 Z " fill="#F3E8F1" transform="translate(90,524)"/>
<path d="M0 0 C0.99 0.66 1.98 1.32 3 2 C1.35 3.65 -0.3 5.3 -2 7 C-2.99 6.67 -3.98 6.34 -5 6 C-5 5.34 -5 4.68 -5 4 C-4.34 4 -3.68 4 -3 4 C-2.67 3.01 -2.34 2.02 -2 1 C-1.34 0.67 -0.68 0.34 0 0 Z " fill="#FAEBF9" transform="translate(443,496)"/>
<path d="M0 0 C4.95 1.98 4.95 1.98 10 4 C8 6 8 6 5.625 6.4375 C3 6 3 6 0.6875 3.5 C0.130625 2.675 -0.42625 1.85 -1 1 C-0.67 0.67 -0.34 0.34 0 0 Z " fill="#F6EEF4" transform="translate(474,447)"/>
<path d="M0 0 C0.33 0.66 0.66 1.32 1 2 C4.02934491 2.65772428 4.02934491 2.65772428 7 3 C6.67 3.99 6.34 4.98 6 6 C4.51800098 5.55090939 3.03944764 5.09043436 1.5625 4.625 C0.73878906 4.36976563 -0.08492187 4.11453125 -0.93359375 3.8515625 C-3 3 -3 3 -4 1 C-2.68 0.67 -1.36 0.34 0 0 Z " fill="#895F81" transform="translate(560,305)"/>
<path d="M0 0 C5.02692063 0.45699278 8.14896261 2.99241748 12 6 C10 6 8 6 6 6 C5.67 5.34 5.34 4.68 5 4 C3.35636866 3.27840576 1.68949614 2.60648579 0 2 C0 1.34 0 0.68 0 0 Z " fill="#815A7A" transform="translate(579,269)"/>
<path d="M0 0 C2.30142435 1.78174788 3.80034391 3.16304165 4.48828125 6.046875 C4.72323102 8.0246611 4.86751458 10.01271872 5 12 C2.43470546 10.71735273 2.33500137 9.77227651 1.375 7.125 C1.11460937 6.42632813 0.85421875 5.72765625 0.5859375 5.0078125 C0 3 0 3 0 0 Z " fill="#82597A" transform="translate(329,620)"/>
<path d="M0 0 C0.33 0.99 0.66 1.98 1 3 C-0.98 3.99 -2.96 4.98 -5 6 C-5.66 4.68 -6.32 3.36 -7 2 C-2.25 0 -2.25 0 0 0 Z " fill="#F0E8F2" transform="translate(391,610)"/>
<path d="M0 0 C0.66 0 1.32 0 2 0 C5 3.46153846 5 3.46153846 5 6 C5.99 6.33 6.98 6.66 8 7 C7.67 7.66 7.34 8.32 7 9 C5.84772177 8.23883449 4.7033614 7.46567307 3.5625 6.6875 C2.92441406 6.25824219 2.28632813 5.82898438 1.62890625 5.38671875 C0 4 0 4 -1 1 C-0.67 0.67 -0.34 0.34 0 0 Z " fill="#F8EBF7" transform="translate(228,597)"/>
<path d="M0 0 C0.66 0 1.32 0 2 0 C2.125 3.375 2.125 3.375 2 7 C1.34 7.66 0.68 8.32 0 9 C-1.3950848 6.70221327 -2.07438619 5.5207033 -1.6875 2.8125 C-1 1 -1 1 0 0 Z " fill="#8C5E85" transform="translate(180,598)"/>
<path d="M0 0 C1 3 1 3 0.22265625 5.04296875 C-0.16019531 5.75066406 -0.54304687 6.45835937 -0.9375 7.1875 C-1.31777344 7.90292969 -1.69804688 8.61835937 -2.08984375 9.35546875 C-2.54037109 10.16951172 -2.54037109 10.16951172 -3 11 C-3.66 10.34 -4.32 9.68 -5 9 C-4.34 9 -3.68 9 -3 9 C-2.87625 7.700625 -2.7525 6.40125 -2.625 5.0625 C-2.4140625 2.84765625 -2.4140625 2.84765625 -2 1 C-1.34 0.67 -0.68 0.34 0 0 Z " fill="#815C7C" transform="translate(710,517)"/>
<path d="M0 0 C3 0 3 0 5 1.875 C5.66 2.57625 6.32 3.2775 7 4 C7.99 4.66 8.98 5.32 10 6 C9.01 6 8.02 6 7 6 C6.67 6.66 6.34 7.32 6 8 C6 7.01 6 6.02 6 5 C3.03 4.505 3.03 4.505 0 4 C0 2.68 0 1.36 0 0 Z " fill="#7B4F72" transform="translate(128,504)"/>
<path d="M0 0 C1.85772162 0.08984301 3.71247985 0.24611861 5.5625 0.4375 C7.08037109 0.59025391 7.08037109 0.59025391 8.62890625 0.74609375 C9.80259766 0.87177734 9.80259766 0.87177734 11 1 C11 1.33 11 1.66 11 2 C8.69 2.33 6.38 2.66 4 3 C4 3.66 4 4.32 4 5 C2.0625 4.6875 2.0625 4.6875 0 4 C-0.33 3.01 -0.66 2.02 -1 1 C-0.67 0.67 -0.34 0.34 0 0 Z " fill="#F3EBF3" transform="translate(303,450)"/>
<path d="M0 0 C0.99 0.33 1.98 0.66 3 1 C2.01 3.97 1.02 6.94 0 10 C-0.66 9.34 -1.32 8.68 -2 8 C-1.42307692 1.42307692 -1.42307692 1.42307692 0 0 Z " fill="#89597F" transform="translate(220,321)"/>
<path d="M0 0 C1.32 0.33 2.64 0.66 4 1 C1.33333333 3.66666667 -1.33333333 6.33333333 -4 9 C-3.46930939 5.17902761 -2.50298434 2.93828597 0 0 Z " fill="#96668D" transform="translate(442,180)"/>
<path d="M0 0 C0.66 0 1.32 0 2 0 C0.31326082 4.49797113 -1.81673892 8.72886302 -4 13 C-4.66 12.34 -5.32 11.68 -6 11 C-4.02 7.37 -2.04 3.74 0 0 Z " fill="#F6E6F6" transform="translate(390,112)"/>
<path d="M0 0 C2.475 0.99 2.475 0.99 5 2 C2.60490662 4.89932357 0.68754757 5.50168276 -3 6 C-2.01 4.02 -1.02 2.04 0 0 Z " fill="#895E83" transform="translate(322,706)"/>
<path d="M0 0 C1.32 0.33 2.64 0.66 4 1 C3.01 1 2.02 1 1 1 C1.33 1.99 1.66 2.98 2 4 C-3.75 8 -3.75 8 -6 8 C-5.25 6.0625 -5.25 6.0625 -4 4 C-1.875 3.25 -1.875 3.25 0 3 C0 2.01 0 1.02 0 0 Z " fill="#8B5F84" transform="translate(333,700)"/>
<path d="M0 0 C4.95 1.98 4.95 1.98 10 4 C9.67 4.66 9.34 5.32 9 6 C3.50847458 5.38983051 3.50847458 5.38983051 1.125 3.5625 C0 2 0 2 0 0 Z " fill="#F4E7F5" transform="translate(216,646)"/>
<path d="M0 0 C-1.32 0.33 -2.64 0.66 -4 1 C-4 1.66 -4 2.32 -4 3 C-5.98 3 -7.96 3 -10 3 C-10 2.01 -10 1.02 -10 0 C-6.7169902 -1.6415049 -3.57454967 -0.51888624 0 0 Z " fill="#986B90" transform="translate(250,610)"/>
<path d="M0 0 C0.66 0.33 1.32 0.66 2 1 C1.67 2.32 1.34 3.64 1 5 C-1.49064888 5.68707555 -3.37886292 6 -6 6 C-2.25 1.125 -2.25 1.125 0 0 Z " fill="#83577E" transform="translate(572,600)"/>
<path d="M0 0 C-0.33 0.66 -0.66 1.32 -1 2 C-3.64860427 2.59355614 -6.29197322 2.74209269 -9 3 C-9 2.01 -9 1.02 -9 0 C-3.375 -1.125 -3.375 -1.125 0 0 Z " fill="#885C81" transform="translate(686,547)"/>
<path d="M0 0 C3 1 3 1 4.1875 3.0625 C4.455625 3.701875 4.72375 4.34125 5 5 C3.35 5.33 1.7 5.66 0 6 C-1.125 2.25 -1.125 2.25 0 0 Z " fill="#F7EFF5" transform="translate(322,529)"/>
<path d="M0 0 C0.99 0.33 1.98 0.66 3 1 C1.35 4.3 -0.3 7.6 -2 11 C-3.00312353 6.98750587 -2.96381672 4.94288658 -2 1 C-1.34 0.67 -0.68 0.34 0 0 Z " fill="#F9EBF6" transform="translate(182,300)"/>
<path d="M0 0 C0.99 0.33 1.98 0.66 3 1 C0.42215154 3.64752004 -1.91648098 5.94432065 -5 8 C-4.66275164 4.88045262 -4.3790035 3.3790035 -2.125 1.125 C-1.42375 0.75375 -0.7225 0.3825 0 0 Z " fill="#F7EBF5" transform="translate(198,281)"/>
<path d="M0 0 C1.65 0.33 3.3 0.66 5 1 C5.66 3.64 6.32 6.28 7 9 C5.82460004 8.07347299 4.65989423 7.13336613 3.5 6.1875 C2.52546875 5.40439453 2.52546875 5.40439453 1.53125 4.60546875 C0 3 0 3 0 0 Z " fill="#F8EDF7" transform="translate(599,279)"/>
<path d="M0 0 C0.99 0.33 1.98 0.66 3 1 C0.69 2.65 -1.62 4.3 -4 6 C-4.66 4.68 -5.32 3.36 -6 2 C-3 0 -3 0 0 0 Z " fill="#845C7E" transform="translate(388,665)"/>
<path d="M0 0 C0.99 0.66 1.98 1.32 3 2 C1.71475739 2.86380259 0.42157581 3.71580369 -0.875 4.5625 C-1.59429687 5.03816406 -2.31359375 5.51382813 -3.0546875 6.00390625 C-3.69664062 6.33261719 -4.33859375 6.66132812 -5 7 C-5.66 6.67 -6.32 6.34 -7 6 C-5.62209707 3.24419414 -3.62850007 2.51138754 -1 1 C-0.67 0.67 -0.34 0.34 0 0 Z " fill="#F6ECF7" transform="translate(367,625)"/>
<path d="M0 0 C2.97550031 3.0684847 3.96474513 4.46236331 4.25 8.8125 C4.1675 9.864375 4.085 10.91625 4 12 C0.46209597 8.30827405 0.40884117 4.90609405 0 0 Z " fill="#FCF0FC" transform="translate(219,580)"/>
<path d="M0 0 C0.66 0 1.32 0 2 0 C1.58578031 4.83256305 -0.46413986 6.82679218 -4 10 C-2.8905928 6.51329166 -1.73662334 3.22515763 0 0 Z " fill="#896082" transform="translate(94,386)"/>
<path d="M0 0 C-0.33 0.99 -0.66 1.98 -1 3 C-1.804375 3.12375 -2.60875 3.2475 -3.4375 3.375 C-4.7059375 3.684375 -4.7059375 3.684375 -6 4 C-6.33 4.66 -6.66 5.32 -7 6 C-7.33 5.01 -7.66 4.02 -8 3 C-4.93882432 0.37613513 -4.26826873 0 0 0 Z " fill="#926588" transform="translate(482,350)"/>
<path d="M0 0 C2.125 0.375 2.125 0.375 4 1 C3.34 2.65 2.68 4.3 2 6 C1.01 6 0.02 6 -1 6 C-1.625 4.125 -1.625 4.125 -2 2 C-1.34 1.34 -0.68 0.68 0 0 Z " fill="#81517A" transform="translate(211,273)"/>
<path d="M0 0 C1.32 0.66 2.64 1.32 4 2 C-0.75 6 -0.75 6 -3 6 C-2.42655063 3.13275314 -2.1385485 2.1385485 0 0 Z " fill="#855D7D" transform="translate(378,670)"/>
<path d="M0 0 C1.32 1.32 2.64 2.64 4 4 C3.34 5.98 2.68 7.96 2 10 C1.01 9.67 0.02 9.34 -1 9 C-0.67 6.03 -0.34 3.06 0 0 Z " fill="#9F7599" transform="translate(581,577)"/>
<path d="M0 0 C0.33 0.99 0.66 1.98 1 3 C-0.1875 5.125 -0.1875 5.125 -2 7 C-3.32 7.33 -4.64 7.66 -6 8 C-4.02 5.36 -2.04 2.72 0 0 Z " fill="#F8ECF7" transform="translate(704,532)"/>
<path d="M0 0 C0.66 0 1.32 0 2 0 C2.33 0.66 2.66 1.32 3 2 C3.99 2.66 4.98 3.32 6 4 C4.68 4.99 3.36 5.98 2 7 C1.34 6.67 0.68 6.34 0 6 C0 4.02 0 2.04 0 0 Z " fill="#895780" transform="translate(698,529)"/>
<path d="M0 0 C0.33 0.99 0.66 1.98 1 3 C-1.31 3.33 -3.62 3.66 -6 4 C-6.33 3.01 -6.66 2.02 -7 1 C-4.50935112 0.31292445 -2.62113708 0 0 0 Z " fill="#956A8C" transform="translate(435,505)"/>
<path d="M0 0 C1.0625 1.875 1.0625 1.875 2 4 C1.67 4.66 1.34 5.32 1 6 C-2.0625 6.625 -2.0625 6.625 -5 7 C-3.47793991 4.37098712 -2.15634036 2.15634036 0 0 Z " fill="#8A5F84" transform="translate(101,378)"/>
<path d="M0 0 C2.31 1.98 4.62 3.96 7 6 C6.34 6.66 5.68 7.32 5 8 C2.69 6.02 0.38 4.04 -2 2 C-1.34 1.34 -0.68 0.68 0 0 Z " fill="#F2E5EF" transform="translate(325,350)"/>
<path d="M0 0 C3.16115776 1.36983503 3.9927092 1.9890638 6 5 C5.34 5 4.68 5 4 5 C3.67 5.66 3.34 6.32 3 7 C1.5 5.75 1.5 5.75 0 4 C0 2.68 0 1.36 0 0 Z " fill="#8F638B" transform="translate(99,533)"/>
<path d="M0 0 C0.33 0.66 0.66 1.32 1 2 C1.66 2 2.32 2 3 2 C3.66 3.98 4.32 5.96 5 8 C4.01 8 3.02 8 2 8 C0.74335022 5.09399739 0 3.20395416 0 0 Z " fill="#815B7B" transform="translate(89,517)"/>
<path d="M0 0 C2.3773161 2.3773161 2.67028521 3.70285207 3 7 C2.34 7.66 1.68 8.32 1 9 C-1 6 -1 6 -0.625 2.8125 C-0.41875 1.884375 -0.2125 0.95625 0 0 Z " fill="#9B6C8E" transform="translate(709,393)"/>
<path d="M0 0 C0.99 0.33 1.98 0.66 3 1 C2.34 1.66 1.68 2.32 1 3 C1 4.32 1 5.64 1 7 C0.34 7 -0.32 7 -1 7 C-1 6.34 -1 5.68 -1 5 C-1.66 4.67 -2.32 4.34 -3 4 C-2.67 3.01 -2.34 2.02 -2 1 C-1.34 0.67 -0.68 0.34 0 0 Z " fill="#956491" transform="translate(114,368)"/>
<path d="M0 0 C0.33 0 0.66 0 1 0 C1.6875 2.8125 1.6875 2.8125 2 6 C0.6875 7.875 0.6875 7.875 -1 9 C-1.66 9 -2.32 9 -3 9 C-2.01 6.03 -1.02 3.06 0 0 Z " fill="#936B8A" transform="translate(181,306)"/>
<path d="M0 0 C0.66 0.33 1.32 0.66 2 1 C2 1.66 2 2.32 2 3 C0.03852126 4.38938077 -1.96166576 5.7260411 -4 7 C-3.6875 4.625 -3.6875 4.625 -3 2 C-2.01 1.34 -1.02 0.68 0 0 Z " fill="#916488" transform="translate(234,308)"/>
<path d="M0 0 C1.65 0.33 3.3 0.66 5 1 C2.37801226 3.15377564 0.35595828 4.40072174 -3 5 C-3 4.01 -3 3.02 -3 2 C-2.01 2 -1.02 2 0 2 C0 1.34 0 0.68 0 0 Z " fill="#855B7E" transform="translate(239,305)"/>
<path d="M0 0 C-2.8125 2.0625 -2.8125 2.0625 -6 4 C-6.99 3.67 -7.98 3.34 -9 3 C-9 2.34 -9 1.68 -9 1 C-3.375 -1.125 -3.375 -1.125 0 0 Z " fill="#F8EEF8" transform="translate(360,634)"/>
<path d="M0 0 C1.32 0.66 2.64 1.32 4 2 C3.01 3.32 2.02 4.64 1 6 C0.01 5.34 -0.98 4.68 -2 4 C-1.34 2.68 -0.68 1.36 0 0 Z " fill="#916289" transform="translate(578,590)"/>
<path d="M0 0 C0.33 0 0.66 0 1 0 C1.33 2.97 1.66 5.94 2 9 C1.01 9.33 0.02 9.66 -1 10 C-2.23076923 4.58461538 -2.23076923 4.58461538 -1.0625 1.625 C-0.5365625 0.820625 -0.5365625 0.820625 0 0 Z " fill="#A0789A" transform="translate(218,577)"/>
<path d="M0 0 C2.71224618 1.61268692 5.37352812 3.24901874 8 5 C7.67 5.66 7.34 6.32 7 7 C3.535 5.02 3.535 5.02 0 3 C0 2.01 0 1.02 0 0 Z " fill="#9B7294" transform="translate(469,496)"/>
<path d="M0 0 C0.33 0.66 0.66 1.32 1 2 C-1.25 4.5625 -1.25 4.5625 -4 7 C-6.3125 6.8125 -6.3125 6.8125 -8 6 C-7.05125 5.38125 -6.1025 4.7625 -5.125 4.125 C-2.05554891 2.18029031 -2.05554891 2.18029031 0 0 Z " fill="#F0E2EE" transform="translate(329,443)"/>
<path d="M0 0 C0.99 1.32 1.98 2.64 3 4 C1.35 4.66 -0.3 5.32 -2 6 C-2 5.34 -2 4.68 -2 4 C-2.66 4 -3.32 4 -4 4 C-3 2 -3 2 0 0 Z " fill="#F3EBF1" transform="translate(293,440)"/>
<path d="M0 0 C0.99 0.33 1.98 0.66 3 1 C1.71937515 2.7074998 0.38232443 4.37373596 -1 6 C-1.66 6 -2.32 6 -3 6 C-2.42655063 3.13275314 -2.1385485 2.1385485 0 0 Z " fill="#7C5575" transform="translate(105,374)"/>
<path d="M0 0 C0.66 0 1.32 0 2 0 C2.66 1.32 3.32 2.64 4 4 C1.69 4.33 -0.62 4.66 -3 5 C-1.125 1.125 -1.125 1.125 0 0 Z " fill="#825176" transform="translate(473,354)"/>
<path d="M0 0 C0.8971875 0.5259375 0.8971875 0.5259375 1.8125 1.0625 C-2.61826923 3.15480769 -2.61826923 3.15480769 -5.5 2.6875 C-6.056875 2.48125 -6.61375 2.275 -7.1875 2.0625 C-4.72093412 -0.40406588 -3.34389711 -1.43309876 0 0 Z " fill="#936A8C" transform="translate(308.1875,349.9375)"/>
<path d="M0 0 C-0.99 1.485 -0.99 1.485 -2 3 C-6.455 2.01 -6.455 2.01 -11 1 C-11 0.67 -11 0.34 -11 0 C-6.98195309 -0.84098656 -3.98196457 -1.05404945 0 0 Z " fill="#EFE3ED" transform="translate(323,348)"/>
<path d="M0 0 C2.31 0.66 4.62 1.32 7 2 C7 2.66 7 3.32 7 4 C6.34 4 5.68 4 5 4 C5 4.66 5 5.32 5 6 C3 5 3 5 0 3 C0 2.01 0 1.02 0 0 Z " fill="#FAF0F8" transform="translate(553,306)"/>
<path d="M0 0 C3.875 1.75 3.875 1.75 5 4 C2.69 4.33 0.38 4.66 -2 5 C-2 4.01 -2 3.02 -2 2 C-1.34 2 -0.68 2 0 2 C0 1.34 0 0.68 0 0 Z " fill="#82527A" transform="translate(595,279)"/>
<path d="M0 0 C2.66735273 2.48952921 4.55746343 4.63408134 6 8 C5.01 8.495 5.01 8.495 4 9 C4 8.34 4 7.68 4 7 C3.34 7 2.68 7 2 7 C0.5393715 4.35261084 0 3.10551666 0 0 Z " fill="#F9ECF8" transform="translate(184,616)"/>
<path d="M0 0 C1.98 0 3.96 0 6 0 C5.34 1.32 4.68 2.64 4 4 C2.35 4 0.7 4 -1 4 C-0.67 2.68 -0.34 1.36 0 0 Z " fill="#9C6891" transform="translate(370,548)"/>
<path d="M0 0 C3.9492568 0.55105909 7.34920174 1.38935371 11 3 C11 3.33 11 3.66 11 4 C7.06225823 4.36630156 5.43460229 4.30233203 2.125 2 C1.42375 1.34 0.7225 0.68 0 0 Z " fill="#835E7E" transform="translate(112,546)"/>
<path d="M0 0 C3.465 1.485 3.465 1.485 7 3 C5.02 3.99 5.02 3.99 3 5 C1.68 3.68 0.36 2.36 -1 1 C-0.67 0.67 -0.34 0.34 0 0 Z " fill="#F6EAF1" transform="translate(107,544)"/>
<path d="M0 0 C2.31 0.66 4.62 1.32 7 2 C6.67 2.66 6.34 3.32 6 4 C4.35 4 2.7 4 1 4 C0.67 2.68 0.34 1.36 0 0 Z " fill="#7C5476" transform="translate(103,538)"/>
<path d="M0 0 C0.66 0.33 1.32 0.66 2 1 C2 3.31 2 5.62 2 8 C1.01 8 0.02 8 -1 8 C-1.625 5.6875 -1.625 5.6875 -2 3 C-1.34 2.01 -0.68 1.02 0 0 Z " fill="#F6F3F6" transform="translate(332,439)"/>
<path d="M0 0 C5.75 3.75 5.75 3.75 8 6 C6.68 6.33 5.36 6.66 4 7 C2.35 5.02 0.7 3.04 -1 1 C-0.67 0.67 -0.34 0.34 0 0 Z " fill="#996391" transform="translate(324,354)"/>
<path d="M0 0 C2.50298434 2.93828597 3.46930939 5.17902761 4 9 C3.01 9.495 3.01 9.495 2 10 C0.39644899 6.49223216 -0.22036864 3.85645121 0 0 Z " fill="#F5E6F4" transform="translate(577,324)"/>
<path d="M0 0 C2.97 0 5.94 0 9 0 C8.67 0.66 8.34 1.32 8 2 C7.01 2 6.02 2 5 2 C4.34 2.66 3.68 3.32 3 4 C2.01 3.34 1.02 2.68 0 2 C0 1.34 0 0.68 0 0 Z " fill="#8D5D85" transform="translate(395,107)"/>
<path d="M0 0 C0.99 0 1.98 0 3 0 C3.33 1.32 3.66 2.64 4 4 C2.68 4.33 1.36 4.66 0 5 C-0.66 4.01 -1.32 3.02 -2 2 C-1.34 1.34 -0.68 0.68 0 0 Z " fill="#94658C" transform="translate(203,633)"/>
<path d="M0 0 C0.66 0 1.32 0 2 0 C2 0.66 2 1.32 2 2 C3.32 1.67 4.64 1.34 6 1 C6.33 2.65 6.66 4.3 7 6 C3.65393765 4.88464588 2.33485932 3.57639649 0 1 C0 0.67 0 0.34 0 0 Z " fill="#92638A" transform="translate(183,613)"/>
<path d="M0 0 C5.75 1.75 5.75 1.75 8 4 C5 5 5 5 1.8125 3.5625 C0.884375 3.046875 -0.04375 2.53125 -1 2 C-0.67 1.34 -0.34 0.68 0 0 Z " fill="#85577E" transform="translate(234,606)"/>
<path d="M0 0 C2.16147703 1.08073852 3.41039672 2.19363264 5 4 C5 4.66 5 5.32 5 6 C2.525 5.01 2.525 5.01 0 4 C0 2.68 0 1.36 0 0 Z " fill="#855C7D" transform="translate(328,531)"/>
<path d="M0 0 C5.75 1.875 5.75 1.875 8 3 C8 3.66 8 4.32 8 5 C4.5625 4.1875 4.5625 4.1875 1 3 C0.67 2.01 0.34 1.02 0 0 Z " fill="#8E5D83" transform="translate(362,503)"/>
<path d="M0 0 C2.31 0.33 4.62 0.66 7 1 C7.33 1.99 7.66 2.98 8 4 C4.31245243 3.50168276 2.39509338 2.89932357 0 0 Z " fill="#F8E9F7" transform="translate(352,496)"/>
<path d="M0 0 C0.66 0.33 1.32 0.66 2 1 C1 4 1 4 -1.0625 5.1875 C-1.701875 5.455625 -2.34125 5.72375 -3 6 C-3 4.35 -3 2.7 -3 1 C-2.01 0.67 -1.02 0.34 0 0 Z " fill="#EFEAF0" transform="translate(496,449)"/>
<path d="M0 0 C0.99 0.33 1.98 0.66 3 1 C3 1.66 3 2.32 3 3 C1 4 1 4 -2 5 C-2.66 4.67 -3.32 4.34 -4 4 C-2.68 2.68 -1.36 1.36 0 0 Z " fill="#7C5172" transform="translate(300,352)"/>
<path d="M0 0 C-0.33 0.99 -0.66 1.98 -1 3 C-3.64 2.67 -6.28 2.34 -9 2 C-5.5647952 -0.29013653 -4.014669 -0.17842973 0 0 Z " fill="#F4F9F9" transform="translate(563,257)"/>
<path d="M0 0 C0.33 0 0.66 0 1 0 C1 2.64 1 5.28 1 8 C0.01 8.495 0.01 8.495 -1 9 C-1.625 5.625 -1.625 5.625 -2 2 C-1.34 1.34 -0.68 0.68 0 0 Z " fill="#8D5C84" transform="translate(438,189)"/>
</svg>
