<svg width="17" height="16" viewBox="0 0 17 16" fill="none" xmlns="http://www.w3.org/2000/svg">
<path d="M1.0625 8C1.0625 4.134 4.39237 1 8.5 1C8.97122 1 9.43288 1.0415 9.88125 1.1205C9.97747 1.13766 10.0668 1.17951 10.1393 1.24144C10.2118 1.30337 10.2648 1.38297 10.2923 1.47144C10.3198 1.55991 10.3207 1.6538 10.2951 1.74276C10.2694 1.83171 10.2181 1.91226 10.1469 1.9755C9.88758 2.20511 9.70377 2.49996 9.61729 2.825C9.53082 3.15005 9.54532 3.49163 9.65906 3.80915C9.7728 4.12667 9.981 4.40678 10.2589 4.61619C10.5369 4.82561 10.8728 4.95552 11.2269 4.9905C11.2968 4.99734 11.3646 5.01717 11.4264 5.04885C11.4881 5.08053 11.5425 5.12342 11.5865 5.17505C11.6305 5.22667 11.6631 5.286 11.6826 5.34959C11.702 5.41318 11.7078 5.47977 11.6997 5.5455C11.6916 5.61217 11.6875 5.68033 11.6875 5.75C11.6875 6.10707 11.8036 6.45558 12.0202 6.74876C12.2368 7.04194 12.5434 7.26575 12.899 7.39016C13.2547 7.51457 13.6422 7.53362 14.0096 7.44475C14.3771 7.35588 14.7069 7.16335 14.9547 6.893C15.022 6.8196 15.1105 6.7662 15.2095 6.7393C15.3085 6.71241 15.4137 6.71319 15.5122 6.74153C15.6107 6.76988 15.6983 6.82458 15.7644 6.89897C15.8305 6.97335 15.8722 7.06422 15.8844 7.1605C15.9198 7.43583 15.9375 7.71567 15.9375 8C15.9375 11.866 12.6076 15 8.5 15C4.39237 15 1.0625 11.866 1.0625 8ZM8.5 2C4.97941 2 2.125 4.6865 2.125 8C2.125 11.3135 4.97941 14 8.5 14C11.9489 14 14.7581 11.422 14.8713 8.2015C14.4376 8.40915 13.9557 8.51157 13.4693 8.49948C12.9828 8.48738 12.5073 8.36114 12.0859 8.13223C11.6645 7.90331 11.3105 7.57896 11.056 7.18862C10.8015 6.79828 10.6547 6.35431 10.6287 5.897C10.2135 5.78666 9.82932 5.59117 9.50385 5.32455C9.17839 5.05793 8.91968 4.72679 8.74629 4.35492C8.57291 3.98305 8.48915 3.57966 8.50104 3.17371C8.51292 2.76776 8.62015 2.36932 8.81503 2.007C8.7101 2.00222 8.60506 1.99989 8.5 2ZM9.29688 8C9.29688 8.19891 9.21292 8.38968 9.06348 8.53033C8.91403 8.67098 8.71134 8.75 8.5 8.75C8.28866 8.75 8.08597 8.67098 7.93652 8.53033C7.78708 8.38968 7.70312 8.19891 7.70312 8C7.70312 7.80109 7.78708 7.61032 7.93652 7.46967C8.08597 7.32902 8.28866 7.25 8.5 7.25C8.71134 7.25 8.91403 7.32902 9.06348 7.46967C9.21292 7.61032 9.29688 7.80109 9.29688 8ZM5.84375 11.25C6.05509 11.25 6.25778 11.171 6.40723 11.0303C6.55667 10.8897 6.64062 10.6989 6.64062 10.5C6.64062 10.3011 6.55667 10.1103 6.40723 9.96967C6.25778 9.82902 6.05509 9.75 5.84375 9.75C5.63241 9.75 5.42972 9.82902 5.28027 9.96967C5.13083 10.1103 5.04688 10.3011 5.04688 10.5C5.04688 10.6989 5.13083 10.8897 5.28027 11.0303C5.42972 11.171 5.63241 11.25 5.84375 11.25ZM5.57812 6C5.57812 6.19891 5.49417 6.38968 5.34473 6.53033C5.19528 6.67098 4.99259 6.75 4.78125 6.75C4.56991 6.75 4.36722 6.67098 4.21777 6.53033C4.06833 6.38968 3.98438 6.19891 3.98438 6C3.98438 5.80109 4.06833 5.61032 4.21777 5.46967C4.36722 5.32902 4.56991 5.25 4.78125 5.25C4.99259 5.25 5.19528 5.32902 5.34473 5.46967C5.49417 5.61032 5.57812 5.80109 5.57812 6ZM10.625 12.25C10.8363 12.25 11.039 12.171 11.1885 12.0303C11.3379 11.8897 11.4219 11.6989 11.4219 11.5C11.4219 11.3011 11.3379 11.1103 11.1885 10.9697C11.039 10.829 10.8363 10.75 10.625 10.75C10.4137 10.75 10.211 10.829 10.0615 10.9697C9.91208 11.1103 9.82812 11.3011 9.82812 11.5C9.82812 11.6989 9.91208 11.8897 10.0615 12.0303C10.211 12.171 10.4137 12.25 10.625 12.25Z" fill="#1A1A1A"/>
</svg>
