<svg width="46" height="42" viewBox="0 0 46 42" fill="none" xmlns="http://www.w3.org/2000/svg">
<path d="M19.4062 8.53125V9.1875H26.5938V8.53125C26.5938 7.66101 26.2151 6.82641 25.5412 6.21106C24.8672 5.5957 23.9531 5.25 23 5.25C22.0469 5.25 21.1328 5.5957 20.4588 6.21106C19.7849 6.82641 19.4062 7.66101 19.4062 8.53125ZM16.5312 9.1875V8.53125C16.5312 6.96482 17.2128 5.46254 18.4259 4.3549C19.639 3.24726 21.2844 2.625 23 2.625C24.7156 2.625 26.361 3.24726 27.5741 4.3549C28.7872 5.46254 29.4688 6.96482 29.4688 8.53125V9.1875H40.25C40.6312 9.1875 40.9969 9.32578 41.2665 9.57192C41.536 9.81806 41.6875 10.1519 41.6875 10.5C41.6875 10.8481 41.536 11.1819 41.2665 11.4281C40.9969 11.6742 40.6312 11.8125 40.25 11.8125H38.0823L35.3625 33.558C35.1619 35.1595 34.3228 36.6376 33.0052 37.7104C31.6876 38.7832 29.9836 39.3758 28.2181 39.375H17.7819C16.0164 39.3758 14.3124 38.7832 12.9948 37.7104C11.6771 36.6376 10.8381 35.1595 10.6375 33.558L7.91775 11.8125H5.75C5.36875 11.8125 5.00312 11.6742 4.73353 11.4281C4.46395 11.1819 4.3125 10.8481 4.3125 10.5C4.3125 10.1519 4.46395 9.81806 4.73353 9.57192C5.00312 9.32578 5.36875 9.1875 5.75 9.1875H16.5312ZM13.4952 33.2588C13.6153 34.2194 14.1182 35.1061 14.9082 35.75C15.6982 36.3938 16.7201 36.7498 17.779 36.75H28.2196C29.2785 36.7498 30.3004 36.3938 31.0904 35.75C31.8804 35.1061 32.3833 34.2194 32.5033 33.2588L35.19 11.8125H10.8114L13.4952 33.2588ZM18.6875 16.4062C19.0687 16.4062 19.4344 16.5445 19.704 16.7907C19.9735 17.0368 20.125 17.3707 20.125 17.7188V30.8438C20.125 31.1918 19.9735 31.5257 19.704 31.7718C19.4344 32.018 19.0687 32.1562 18.6875 32.1562C18.3063 32.1562 17.9406 32.018 17.671 31.7718C17.4015 31.5257 17.25 31.1918 17.25 30.8438V17.7188C17.25 17.3707 17.4015 17.0368 17.671 16.7907C17.9406 16.5445 18.3063 16.4062 18.6875 16.4062ZM28.75 17.7188C28.75 17.3707 28.5986 17.0368 28.329 16.7907C28.0594 16.5445 27.6937 16.4062 27.3125 16.4062C26.9313 16.4062 26.5656 16.5445 26.296 16.7907C26.0264 17.0368 25.875 17.3707 25.875 17.7188V30.8438C25.875 31.1918 26.0264 31.5257 26.296 31.7718C26.5656 32.018 26.9313 32.1562 27.3125 32.1562C27.6937 32.1562 28.0594 32.018 28.329 31.7718C28.5986 31.5257 28.75 31.1918 28.75 30.8438V17.7188Z" fill="#D61355"/>
</svg>
