<svg width="109" height="44" viewBox="0 0 109 44" fill="none" xmlns="http://www.w3.org/2000/svg">
<path d="M53.8193 25.6295H41.2835L41.1506 22.0703C41.1448 21.9161 41.1754 21.7625 41.2401 21.6201C41.3048 21.4778 41.4021 21.35 41.5254 21.2458C41.6486 21.1415 41.7949 21.0631 41.9541 21.016C42.1133 20.9689 42.2817 20.9542 42.4476 20.973L49.7427 21.7979H49.7436C50.8251 21.8006 51.8613 22.199 52.6253 22.9059C53.3893 23.6128 53.8186 24.5705 53.8193 25.5692V25.6295Z" fill="#D61355"/>
<path d="M48.2322 13.0046H39.489C39.3727 13.0046 39.2576 13.0257 39.1502 13.0668C39.0427 13.1079 38.9451 13.1681 38.8629 13.244C38.7807 13.32 38.7155 13.4101 38.671 13.5093C38.6265 13.6085 38.6036 13.7148 38.6036 13.8222V21.8957C38.6036 22.0031 38.6265 22.1094 38.671 22.2086C38.7155 22.3078 38.7807 22.398 38.8629 22.4739C38.9451 22.5498 39.0427 22.61 39.1502 22.6511C39.2576 22.6922 39.3727 22.7133 39.489 22.7133H48.2322C48.3485 22.7133 48.4636 22.6922 48.571 22.6511C48.6785 22.61 48.7761 22.5498 48.8583 22.4739C48.9405 22.398 49.0057 22.3078 49.0502 22.2086C49.0947 22.1094 49.1176 22.0031 49.1176 21.8957V13.8222C49.1176 13.7148 49.0947 13.6085 49.0502 13.5093C49.0057 13.4101 48.9405 13.32 48.8583 13.244C48.7761 13.1681 48.6785 13.1079 48.571 13.0668C48.4636 13.0257 48.3485 13.0046 48.2322 13.0046Z" fill="#CCCCCC"/>
<path d="M46.2631 19.0418L42.1351 19.7841C41.8902 19.8278 41.6365 19.7801 41.4297 19.6514C41.2229 19.5227 41.0798 19.3235 41.0319 19.0975L40.7146 17.5928C40.6672 17.3667 40.7188 17.1324 40.8582 16.9415C40.9976 16.7505 41.2134 16.6184 41.4581 16.5741L45.5861 15.8318C45.831 15.788 46.0847 15.8357 46.2915 15.9644C46.4983 16.0932 46.6414 16.2924 46.6893 16.5184L47.0067 18.0231C47.0541 18.2492 47.0024 18.4834 46.863 18.6744C46.7236 18.8654 46.5079 18.9975 46.2631 19.0418Z" fill="#3F3D56"/>
<path d="M45.4372 17.2642L42.2869 17.8307C42.2292 17.841 42.1695 17.8298 42.1208 17.7995C42.0722 17.7692 42.0385 17.7223 42.0273 17.6691C42.0161 17.6159 42.0282 17.5607 42.061 17.5158C42.0938 17.4708 42.1446 17.4398 42.2022 17.4294L45.3526 16.8629C45.4102 16.8525 45.4699 16.8637 45.5186 16.894C45.5673 16.9243 45.6009 16.9712 45.6121 17.0245C45.6234 17.0777 45.6112 17.1328 45.5784 17.1778C45.5456 17.2227 45.4948 17.2538 45.4372 17.2642Z" fill="white"/>
<path d="M44.8248 18.103L43.1953 18.396C43.1377 18.4064 43.078 18.3952 43.0293 18.3649C42.9806 18.3346 42.9469 18.2877 42.9357 18.2345C42.9245 18.1813 42.9366 18.1261 42.9694 18.0812C43.0023 18.0362 43.0531 18.0051 43.1107 17.9948L44.7402 17.7018C44.7687 17.6966 44.798 17.6967 44.8265 17.7021C44.855 17.7074 44.8821 17.7179 44.9062 17.7329C44.9303 17.7479 44.951 17.7671 44.967 17.7895C44.9831 17.8119 44.9942 17.837 44.9997 17.8633C45.0053 17.8897 45.0052 17.9168 44.9994 17.9431C44.9936 17.9694 44.9823 17.9944 44.966 18.0166C44.9498 18.0389 44.9289 18.058 44.9047 18.0728C44.8805 18.0876 44.8533 18.0979 44.8248 18.103Z" fill="white"/>
<path d="M49.1176 13.8222V14.8953H38.6036V13.8222C38.6036 13.7148 38.6265 13.6085 38.671 13.5093C38.7155 13.4101 38.7807 13.32 38.8629 13.244C38.9451 13.1681 39.0427 13.1079 39.1502 13.0668C39.2576 13.0257 39.3727 13.0046 39.489 13.0046H48.2322C48.3485 13.0046 48.4636 13.0257 48.571 13.0668C48.6785 13.1079 48.7761 13.1681 48.8583 13.244C48.9405 13.32 49.0057 13.4101 49.0502 13.5093C49.0947 13.6085 49.1176 13.7148 49.1176 13.8222Z" fill="#B3B3B3"/>
<path d="M70.1127 15.2312C70.052 15.0503 69.9491 14.8839 69.8112 14.7436C69.6733 14.6034 69.5038 14.4928 69.3146 14.4196C69.1254 14.3465 68.9212 14.3125 68.7162 14.3201C68.5113 14.3277 68.3106 14.3767 68.1284 14.4636L56.0999 10.4785L55.5701 13.2533L67.5603 16.298C67.7388 16.571 68.0195 16.7741 68.3493 16.8687C68.6791 16.9633 69.035 16.943 69.3496 16.8115C69.6643 16.68 69.9157 16.4465 70.0564 16.1553C70.197 15.864 70.2171 15.5352 70.1127 15.2312Z" fill="#FFB8B8"/>
<path opacity="0.2" d="M70.1127 15.2312C70.052 15.0503 69.9491 14.8839 69.8112 14.7436C69.6733 14.6034 69.5038 14.4928 69.3146 14.4196C69.1254 14.3465 68.9212 14.3125 68.7162 14.3201C68.5113 14.3277 68.3106 14.3767 68.1284 14.4636L56.0999 10.4785L55.5701 13.2533L67.5603 16.298C67.7388 16.571 68.0195 16.7741 68.3493 16.8687C68.6791 16.9633 69.035 16.943 69.3496 16.8115C69.6643 16.68 69.9157 16.4465 70.0564 16.1553C70.197 15.864 70.2171 15.5352 70.1127 15.2312Z" fill="black"/>
<path d="M58.2349 10.9842L57.0991 13.7244C57.0667 13.8023 57.0166 13.8729 56.9521 13.9314C56.8875 13.9899 56.8101 14.0348 56.7251 14.0631C56.64 14.0915 56.5494 14.1025 56.4593 14.0956C56.3692 14.0887 56.2818 14.0639 56.203 14.023L53.4424 12.5882C53.0114 12.4332 52.6646 12.1268 52.4779 11.736C52.2912 11.3452 52.2799 10.9021 52.4465 10.5036C52.6131 10.1052 52.944 9.78405 53.3667 9.61055C53.7893 9.43705 54.2692 9.42538 54.7011 9.5781L57.7838 10.2094C57.872 10.2275 57.955 10.263 58.0271 10.3134C58.0992 10.3638 58.1587 10.4279 58.2015 10.5014C58.2443 10.5749 58.2694 10.6561 58.2752 10.7394C58.281 10.8228 58.2672 10.9062 58.2349 10.9842Z" fill="#D61355"/>
<path d="M71.0596 17.7686L66.7495 19.5776L67.3154 21.5448C68.4081 25.3436 68.6981 29.3011 68.1695 33.2012L71.3208 33.8089L73.9329 27.6581L73.0187 20.6631L71.0596 17.7686Z" fill="#D61355"/>
<path d="M79.5165 26.8743C76.6846 26.8743 74.3769 28.7752 74.2649 31.1557H84.7681C84.6561 28.7752 82.3483 26.8743 79.5165 26.8743Z" fill="#3F3D56"/>
<path d="M77.312 27.2844C77.1646 16.5387 70.5371 17.5273 70.5371 17.5273C70.5371 17.5273 70.6611 20.8721 70.7207 20.9761C74.9439 28.3546 67.974 37.0049 59.1018 35.4135C58.9345 35.3835 58.7738 35.3531 58.6197 35.3222C57.4955 35.1055 56.503 34.5014 55.8439 33.633C55.1849 32.7646 54.9089 31.6969 55.072 30.6472C55.9459 24.1665 51.599 24.2811 51.599 24.2811H45.2428L41.9419 21.5379C41.8254 21.4411 41.685 21.3721 41.5329 21.3369C41.3808 21.3018 41.2218 21.3016 41.0696 21.3363C40.9174 21.3711 40.7768 21.4398 40.66 21.5363C40.5432 21.6328 40.4538 21.7543 40.3996 21.8902L39.9749 22.9545C39.9749 22.9545 33.7058 23.5575 34.2282 29.2259H36.1664C36.1617 29.387 36.1687 29.5482 36.1873 29.7083L50.6522 29.5997C51.5001 29.5934 52.2486 30.2278 52.2521 31.0108C52.2529 31.2014 52.2121 31.3902 52.1322 31.566C52.0522 31.7417 51.9346 31.9007 51.7865 32.0335C51.6385 32.1663 51.4629 32.2702 51.2703 32.3389C51.0778 32.4076 50.8722 32.4398 50.6659 32.4334L48.3338 32.3616C47.6155 35.3165 49.3787 37.3064 51.3215 38.5577C53.1506 39.7187 55.3211 40.3343 57.5407 40.3215H63.8762C72.1044 40.3215 73.5411 33.9295 73.5411 33.9295C77.8512 32.241 77.312 27.2844 77.312 27.2844Z" fill="#3F3D56"/>
<path d="M79.1246 43.819C83.1821 43.819 86.4713 40.7817 86.4713 37.035C86.4713 33.2883 83.1821 30.251 79.1246 30.251C75.0672 30.251 71.778 33.2883 71.778 37.035C71.778 40.7817 75.0672 43.819 79.1246 43.819Z" fill="#3F3D56"/>
<path d="M79.1246 38.6978C80.1191 38.6978 80.9253 37.9534 80.9253 37.0351C80.9253 36.1168 80.1191 35.3723 79.1246 35.3723C78.1302 35.3723 77.324 36.1168 77.324 37.0351C77.324 37.9534 78.1302 38.6978 79.1246 38.6978Z" fill="white"/>
<path d="M42.032 43.8192C46.7026 43.8192 50.4889 40.3229 50.4889 36.0101C50.4889 31.6972 46.7026 28.2009 42.032 28.2009C37.3615 28.2009 33.5752 31.6972 33.5752 36.0101C33.5752 40.3229 37.3615 43.8192 42.032 43.8192Z" fill="#3F3D56"/>
<path d="M42.0321 37.924C43.1769 37.924 44.1049 37.067 44.1049 36.01C44.1049 34.9529 43.1769 34.0959 42.0321 34.0959C40.8874 34.0959 39.9594 34.9529 39.9594 36.01C39.9594 37.067 40.8874 37.924 42.0321 37.924Z" fill="white"/>
<path d="M66.7618 20.1121L65.211 16.2226C65.1302 16.0199 65.0934 15.8045 65.1027 15.5887C65.1121 15.3728 65.1674 15.1608 65.2654 14.9647C65.3635 14.7686 65.5025 14.5922 65.6744 14.4457C65.8462 14.2992 66.0477 14.1854 66.2672 14.1108L70.7131 12.5994C71.0994 12.4681 71.5098 12.4083 71.9211 12.4234C72.3324 12.4386 72.7364 12.5284 73.1101 12.6877C73.4838 12.8471 73.8198 13.0728 74.099 13.3521C74.3783 13.6313 74.5952 13.9586 74.7374 14.3153C74.8656 14.6354 74.9311 14.9741 74.9308 15.3154C74.9292 15.7488 74.8229 16.1764 74.6199 16.5672C74.4168 16.9579 74.122 17.302 73.757 17.5743C73.4932 17.7697 73.1968 17.924 72.8792 18.0313L66.7618 20.1121Z" fill="#3F3D56"/>
<path d="M74.8655 15.3155C74.8651 15.7401 74.7617 16.1592 74.5628 16.542C74.3639 16.9247 74.0745 17.2615 73.7161 17.5274C73.1662 17.3934 72.6544 17.1505 72.2164 16.8155C71.7785 16.4805 71.4248 16.0614 71.1799 15.5874C70.935 15.1134 70.8049 14.5958 70.7986 14.0706C70.7922 13.5455 70.9098 13.0254 71.1432 12.5464C71.5911 12.4565 72.0552 12.4603 72.5014 12.5576C72.9476 12.655 73.3645 12.8434 73.7215 13.1089C74.0785 13.3745 74.3666 13.7106 74.5645 14.0924C74.7625 14.4742 74.8653 14.8922 74.8655 15.3155Z" fill="#D61355"/>
<path d="M35.3384 30.01C36.3483 30.01 37.1669 29.092 37.1669 27.9597C37.1669 26.8274 36.3483 25.9094 35.3384 25.9094C34.3285 25.9094 33.5099 26.8274 33.5099 27.9597C33.5099 29.092 34.3285 30.01 35.3384 30.01Z" fill="#D61355"/>
<path d="M59.5088 35.2172H61.1101L61.8719 31.3823L59.5085 31.3824L59.5088 35.2172Z" fill="#FFB8B8"/>
<path d="M59.1003 34.7343L62.2537 34.7341H62.2538C62.5177 34.7341 62.7791 34.7821 63.0229 34.8754C63.2667 34.9686 63.4882 35.1053 63.6748 35.2776C63.8615 35.4499 64.0095 35.6545 64.1105 35.8796C64.2115 36.1048 64.2634 36.3461 64.2634 36.5898V36.6501L59.1004 36.6503L59.1003 34.7343Z" fill="#2F2E41"/>
<path d="M61.3674 33.6431C61.3487 33.6431 61.33 33.6423 61.3112 33.6406L59.0952 33.4916C59.0056 33.4839 58.9191 33.4574 58.8424 33.4139C58.7656 33.3705 58.7007 33.3114 58.6527 33.2411C58.6046 33.1709 58.5746 33.0913 58.5651 33.0087C58.5556 32.9261 58.5667 32.8425 58.5977 32.7645L61.5634 26.6119C61.5845 26.557 61.5932 26.4987 61.5888 26.4406C61.5844 26.3825 61.567 26.3259 61.5377 26.2743C61.5085 26.2221 61.4677 26.1762 61.4179 26.1397C61.3682 26.1031 61.3106 26.0766 61.2489 26.0621C59.8544 25.7255 56.2764 24.8292 53.1791 23.7805C51.8522 23.3312 51.0164 22.6819 50.6951 21.8506C50.2716 20.7547 50.8982 19.7552 50.9251 19.7133L50.9461 19.6804L53.8606 19.925L57.0201 20.1732L63.9441 23.6017C64.5243 23.8914 64.965 24.3723 65.1784 24.9486C65.3918 25.5249 65.3624 26.1543 65.0959 26.7114L61.9037 33.3214C61.8575 33.4172 61.7823 33.4985 61.6871 33.5556C61.5919 33.6127 61.4809 33.6431 61.3674 33.6431Z" fill="#2F2E41"/>
<path d="M54.3674 7.75271C56.1391 7.75271 57.5753 6.4265 57.5753 4.79054C57.5753 3.15458 56.1391 1.82837 54.3674 1.82837C52.5958 1.82837 51.1595 3.15458 51.1595 4.79054C51.1595 6.4265 52.5958 7.75271 54.3674 7.75271Z" fill="#FFB8B8"/>
<path d="M58.5946 35.579H60.1959L60.9577 31.7441L58.5944 31.7443L58.5946 35.579Z" fill="#FFB8B8"/>
<path d="M58.1862 35.0961L61.3395 35.0959H61.3397C61.6036 35.0959 61.8649 35.1439 62.1087 35.2372C62.3525 35.3304 62.574 35.4671 62.7607 35.6394C62.9473 35.8118 63.0953 36.0163 63.1963 36.2415C63.2973 36.4666 63.3493 36.7079 63.3493 36.9516V37.0119L58.1863 37.0121L58.1862 35.0961Z" fill="#2F2E41"/>
<path d="M60.4532 34.0049C60.4345 34.0049 60.4158 34.0041 60.397 34.0024L58.181 33.8534C58.0914 33.8458 58.0049 33.8192 57.9282 33.7758C57.8515 33.7323 57.7866 33.6732 57.7385 33.6029C57.6904 33.5327 57.6605 33.4532 57.6509 33.3705C57.6414 33.2879 57.6526 33.2043 57.6835 33.1263L60.6492 26.9737C60.6704 26.9188 60.679 26.8605 60.6746 26.8024C60.6702 26.7443 60.6528 26.6877 60.6235 26.6361C60.5943 26.584 60.5535 26.5381 60.5037 26.5015C60.454 26.4649 60.3964 26.4385 60.3347 26.4239C58.9402 26.0873 55.3622 25.191 52.265 24.1423C50.938 23.693 50.1022 23.0437 49.781 22.2124C49.3574 21.1165 49.984 20.117 50.0109 20.0751L50.0319 20.0422L52.9464 20.2869L56.1059 20.535L63.0299 23.9635C63.6101 24.2532 64.0508 24.7341 64.2642 25.3104C64.4777 25.8867 64.4482 26.5161 64.1817 27.0732L60.9895 33.6833C60.9433 33.779 60.8681 33.8603 60.7729 33.9174C60.6777 33.9745 60.5667 34.0049 60.4532 34.0049Z" fill="#2F2E41"/>
<path d="M55.3567 9.43236L51.9609 8.34692C51.9609 8.34692 49.8292 9.8593 50.8533 13.6111C51.3879 15.5472 51.2322 17.5909 50.4092 19.4388C50.3101 19.6674 50.1959 19.8902 50.0671 20.1059C50.0671 20.1059 53.8548 24.327 57.3812 21.1913L56.0098 15.1008C56.0098 15.1008 58.1648 11.0605 55.3567 9.43236Z" fill="#D61355"/>
<path d="M54.7657 7.85334C54.3091 7.2223 53.9488 6.34729 54.4515 5.74688C54.9477 5.15421 55.9263 5.24152 56.6862 4.97927C57.7447 4.614 58.3585 3.46577 58.1671 2.43746C57.9756 1.40914 57.0817 0.556699 56.0168 0.207907C54.9518 -0.140884 53.7509 -0.0274491 52.7081 0.374206C51.4243 0.868648 50.323 1.82511 49.8612 3.0367C49.3994 4.24829 49.6463 5.70303 50.6043 6.63429C51.6314 7.63269 53.2433 7.89877 54.7345 7.88262" fill="#2F2E41"/>
<path d="M51.7817 2.4704C51.2064 2.90287 50.3286 2.71078 49.7111 2.33123C49.0935 1.95169 48.5924 1.41123 47.9242 1.11365C46.7463 0.589028 45.322 0.937782 44.1756 1.51889C43.0291 2.10001 42.0128 2.90283 40.8018 3.35886C39.5908 3.81488 38.0455 3.83742 37.1285 2.97634C36.9028 3.58007 36.8844 4.23338 37.0757 4.84715C37.2669 5.46091 37.6586 6.00523 38.1973 6.40584C38.736 6.80645 39.3954 7.04384 40.0855 7.08562C40.7757 7.12739 41.463 6.97152 42.0537 6.63928C43.3806 5.89293 44.1135 4.32805 45.6018 3.91611C46.4253 3.68816 47.3097 3.87175 48.142 4.07061C48.9744 4.26947 49.8422 4.48433 50.6822 4.31505C51.5222 4.14576 52.3079 3.44873 52.201 2.66099L51.7817 2.4704Z" fill="#2F2E41"/>
<path d="M69.9532 15.1106C69.8688 14.938 69.7444 14.7845 69.5888 14.6611C69.4332 14.5377 69.2502 14.4472 69.0527 14.3961C68.8552 14.3451 68.6479 14.3346 68.4456 14.3655C68.2432 14.3964 68.0506 14.4679 67.8814 14.5749L55.4123 11.9907L55.2573 14.8047L67.5628 16.46C67.7764 16.7106 68.0821 16.8801 68.422 16.9365C68.7619 16.9928 69.1124 16.9321 69.407 16.7657C69.7017 16.5994 69.92 16.339 70.0207 16.034C70.1213 15.7289 70.0973 15.4004 69.9532 15.1106Z" fill="#FFB8B8"/>
<path d="M57.5985 12.2493L56.8375 15.0979C56.8158 15.1789 56.7755 15.2547 56.7193 15.3201C56.663 15.3855 56.5922 15.4389 56.5116 15.4767C56.431 15.5145 56.3425 15.5358 56.2522 15.5392C56.1619 15.5426 56.0718 15.528 55.9881 15.4963L53.057 14.387C52.6083 14.2826 52.2227 14.0181 51.985 13.6515C51.7473 13.2849 51.6768 12.8461 51.7889 12.4316C51.9011 12.017 52.1867 11.6605 52.5832 11.4402C52.9797 11.2199 53.4547 11.1538 53.9039 11.2565L57.0473 11.5318C57.1373 11.5397 57.2244 11.5654 57.3027 11.6072C57.3809 11.649 57.4485 11.7059 57.5008 11.774C57.5531 11.8421 57.5889 11.9198 57.6058 12.0018C57.6227 12.0838 57.6202 12.1682 57.5985 12.2493Z" fill="#D61355"/>
<path d="M68.5128 17.3464C69.0177 17.3464 69.427 16.9684 69.427 16.5022C69.427 16.0359 69.0177 15.658 68.5128 15.658C68.0078 15.658 67.5985 16.0359 67.5985 16.5022C67.5985 16.9684 68.0078 17.3464 68.5128 17.3464Z" fill="#D61355"/>
</svg>
