<svg width="18" height="24" viewBox="0 0 18 24" fill="none" xmlns="http://www.w3.org/2000/svg">
<path fill-rule="evenodd" clip-rule="evenodd" d="M3 0H15C16.6569 0 18 1.40154 18 3.13043V20.8696C18 22.5985 16.6569 24 15 24H3C1.34315 24 0 22.5985 0 20.8696V3.13043C0 1.40154 1.34315 0 3 0ZM3 2.08696C2.44772 2.08696 2 2.55414 2 3.13043V20.8696C2 21.4459 2.44772 21.913 3 21.913H15C15.5523 21.913 16 21.4459 16 20.8696V3.13043C16 2.55414 15.5523 2.08696 15 2.08696H3Z" fill="#E94B64"/>
<path d="M4 3C4 3.55228 4.44772 4 5 4H13C13.5523 4 14 3.55228 14 3V2H4V3Z" fill="#E94B64"/>
<path d="M4 8C4 7.44772 4.44772 7 5 7H13C13.5523 7 14 7.44772 14 8C14 8.55228 13.5523 9 13 9H5C4.44772 9 4 8.55228 4 8Z" fill="#E94B64"/>
<path d="M4 12C4 11.4477 4.44772 11 5 11H9C9.55229 11 10 11.4477 10 12C10 12.5523 9.55229 13 9 13H5C4.44772 13 4 12.5523 4 12Z" fill="#E94B64"/>
<path d="M4 16C4 15.4477 4.44772 15 5 15H7C7.55228 15 8 15.4477 8 16C8 16.5523 7.55228 17 7 17H5C4.44772 17 4 16.5523 4 16Z" fill="#E94B64"/>
</svg>
