<svg width="29" height="29" viewBox="0 0 29 29" fill="none" xmlns="http://www.w3.org/2000/svg">
<path d="M14.5002 7.97495C14.5002 9.70549 13.8127 11.3651 12.5891 12.5888C11.3654 13.8125 9.70573 14.5 7.9752 14.5C6.24466 14.5 4.585 13.8125 3.36132 12.5888C2.13765 11.3651 1.4502 9.70549 1.4502 7.97495C1.4502 6.24441 2.13765 4.58475 3.36132 3.36108C4.585 2.1374 6.24466 1.44995 7.9752 1.44995C9.70573 1.44995 11.3654 2.1374 12.5891 3.36108C13.8127 4.58475 14.5002 6.24441 14.5002 7.97495ZM7.9752 4.34995C7.78291 4.34995 7.59851 4.42634 7.46254 4.5623C7.32658 4.69826 7.2502 4.88267 7.2502 5.07495V7.97495C7.2502 8.16723 7.32658 8.35164 7.46254 8.4876C7.59851 8.62357 7.78291 8.69995 7.9752 8.69995H10.1502C10.3425 8.69995 10.5269 8.62357 10.6628 8.4876C10.7988 8.35164 10.8752 8.16723 10.8752 7.97495C10.8752 7.78267 10.7988 7.59826 10.6628 7.4623C10.5269 7.32634 10.3425 7.24995 10.1502 7.24995H8.7002V5.07495C8.7002 4.88267 8.62381 4.69826 8.48785 4.5623C8.35188 4.42634 8.16748 4.34995 7.9752 4.34995ZM4.3502 18.2149C4.3502 17.181 4.7881 16.2284 5.5073 15.5614C6.30441 15.8197 7.13726 15.9509 7.9752 15.95C10.6722 15.95 13.0574 14.6102 14.5002 12.5613V14.5014H20.116L18.3195 11.2694C18.1312 10.9307 17.8558 10.6485 17.5218 10.452C17.1879 10.2554 16.8075 10.1516 16.42 10.1514H15.65C15.7836 9.67734 15.8729 9.19194 15.9168 8.7014H16.4185C17.0652 8.70126 17.7001 8.87409 18.2574 9.20196C18.8148 9.52984 19.2742 10.0008 19.5882 10.5661L21.8241 14.5928L24.859 15.4019C25.6307 15.6076 26.3128 16.0624 26.7994 16.6956C27.2861 17.3288 27.55 18.105 27.5502 18.9036V20.6639C27.5502 21.1504 27.4104 21.6266 27.1474 22.0359C26.8845 22.4452 26.5094 22.7702 26.0668 22.9723C25.9507 23.8207 25.5381 24.6005 24.9019 25.1737C24.2658 25.7469 23.4473 26.0764 22.5915 26.1038C21.7357 26.1313 20.8978 25.8549 20.2263 25.3236C19.5547 24.7924 19.0929 24.0406 18.9227 23.2014H12.9777C12.8075 24.0406 12.3457 24.7924 11.6741 25.3236C11.0026 25.8549 10.1647 26.1313 9.30887 26.1038C8.45305 26.0764 7.63457 25.7469 6.99846 25.1737C6.36234 24.6005 5.94966 23.8207 5.83355 22.9723C5.39103 22.7702 5.01593 22.4452 4.75294 22.0359C4.48995 21.6266 4.35015 21.1504 4.3502 20.6639V18.2149ZM8.01435 15.9514L8.01 15.9659L7.4474 16.1051C6.97693 16.2228 6.55928 16.4943 6.26083 16.8766C5.96238 17.2588 5.80025 17.7299 5.8002 18.2149V20.6639C5.8002 20.8959 5.8727 21.1134 5.99885 21.2903C6.25912 20.5397 6.75868 19.8953 7.42074 19.4562C8.08281 19.0171 8.87076 18.8076 9.66349 18.8598C10.4562 18.912 11.2099 19.2231 11.8086 19.7452C12.4074 20.2674 12.8181 20.9717 12.9777 21.75H18.9227C19.0811 20.9708 19.4912 20.2653 20.0899 19.7422C20.6886 19.2191 21.4427 18.9073 22.2361 18.8549C23.0294 18.8025 23.818 19.0123 24.4803 19.4521C25.1427 19.8919 25.6421 20.5373 25.9016 21.2889C26.0308 21.1055 26.1002 20.8867 26.1002 20.6625V18.9022C26.1001 18.4231 25.9419 17.9575 25.6501 17.5776C25.3583 17.1976 24.9492 16.9247 24.4863 16.8011L21.292 15.95L8.01435 15.9514ZM9.4252 20.3014C9.13957 20.3014 8.85674 20.3577 8.59286 20.467C8.32898 20.5763 8.08921 20.7365 7.88724 20.9384C7.68527 21.1404 7.52506 21.3802 7.41576 21.6441C7.30645 21.9079 7.2502 22.1908 7.2502 22.4764C7.2502 22.762 7.30645 23.0449 7.41576 23.3087C7.52506 23.5726 7.68527 23.8124 7.88724 24.0144C8.08921 24.2163 8.32898 24.3765 8.59286 24.4858C8.85674 24.5951 9.13957 24.6514 9.4252 24.6514C10.002 24.6514 10.5553 24.4223 10.9632 24.0144C11.371 23.6065 11.6002 23.0532 11.6002 22.4764C11.6002 21.8996 11.371 21.3463 10.9632 20.9384C10.5553 20.5306 10.002 20.3014 9.4252 20.3014ZM22.4752 20.3014C21.8984 20.3014 21.3451 20.5306 20.9372 20.9384C20.5293 21.3463 20.3002 21.8996 20.3002 22.4764C20.3002 23.0532 20.5293 23.6065 20.9372 24.0144C21.3451 24.4223 21.8984 24.6514 22.4752 24.6514C23.052 24.6514 23.6053 24.4223 24.0132 24.0144C24.421 23.6065 24.6502 23.0532 24.6502 22.4764C24.6502 21.8996 24.421 21.3463 24.0132 20.9384C23.6053 20.5306 23.052 20.3014 22.4752 20.3014Z" fill="#E94B64"/>
</svg>
