<svg width="28" height="42" viewBox="0 0 28 42" fill="none" xmlns="http://www.w3.org/2000/svg">
<path d="M0 5.25C0 2.352 2.41733 0 5.39583 0H19.2708C22.2493 0 24.6667 2.352 24.6667 5.25V6.879L33.8396 15.804C34.8417 16.7791 35.6365 17.9367 36.1788 19.2107C36.7211 20.4846 37.0001 21.8501 37 23.229V40.5C37 40.8978 36.8376 41.2794 36.5485 41.5607C36.2593 41.842 35.8672 42 35.4583 42C35.0495 42 34.6573 41.842 34.3682 41.5607C34.0791 41.2794 33.9167 40.8978 33.9167 40.5V23.229C33.9169 22.244 33.7176 21.2686 33.3304 20.3586C32.9431 19.4485 32.3754 18.6216 31.6597 17.925L24.6667 11.121V18.876L27.2998 21.438C27.5893 21.7193 27.7521 22.1009 27.7524 22.4989C27.7527 22.897 27.5904 23.2788 27.3014 23.5605C27.0123 23.8422 26.6201 24.0006 26.211 24.0008C25.8019 24.0011 25.4094 23.8433 25.1199 23.562L18.8638 17.472L17.6428 16.434C17.1605 16.1936 16.6057 16.1285 16.0785 16.2506C15.5512 16.3727 15.0861 16.6739 14.7668 17.1C14.4474 17.5261 14.2949 18.0491 14.3366 18.5749C14.3783 19.1006 14.6115 19.5946 14.9942 19.968L19.5915 24.438C19.7351 24.5773 19.8491 24.7428 19.9269 24.9251C20.0046 25.1073 20.0447 25.3027 20.0448 25.5V28.5C20.0448 29.2956 20.3696 30.0587 20.9478 30.6213C21.5261 31.1839 22.3103 31.5 23.1281 31.5C23.5364 31.5008 23.9278 31.6592 24.2162 31.9404C24.5047 32.2216 24.6667 32.6027 24.6667 33V36.75C24.6667 38.1424 24.0982 39.4777 23.0863 40.4623C22.0743 41.4469 20.7019 42 19.2708 42H5.39583C3.96477 42 2.59232 41.4469 1.5804 40.4623C0.568488 39.4777 0 38.1424 0 36.75V5.25ZM21.5833 35.25V34.311C20.687 34.0851 19.8545 33.6657 19.1475 33.084C18.0961 33.2856 17.1493 33.8361 16.4688 34.6416C15.7884 35.447 15.4165 36.4574 15.4167 37.5V39H17.7292C17.9964 39 18.2533 38.975 18.5 38.925V37.5C18.5 37.1022 18.6624 36.7206 18.9515 36.4393C19.2407 36.158 19.6328 36 20.0417 36H21.5063C21.5556 35.76 21.5813 35.51 21.5833 35.25ZM16.3633 25.542L12.8174 22.089C11.8613 21.1591 11.3012 19.9123 11.2492 18.598C11.1972 17.2837 11.6571 15.9987 12.5368 15H12.3333C11.3384 15.0001 10.3582 15.2344 9.47646 15.683C8.59475 16.1316 7.83768 16.781 7.26989 17.576C6.70209 18.371 6.34043 19.2878 6.21578 20.2483C6.09113 21.2088 6.20718 22.1843 6.55404 23.0917C6.90089 23.999 7.46825 24.8112 8.20768 25.459C8.94711 26.1067 9.83664 26.5708 10.8004 26.8115C11.7641 27.0523 12.7734 27.0625 13.742 26.8415C14.7107 26.6204 15.6101 26.1746 16.3633 25.542ZM9.25 4.5V3H6.9375C6.67028 3 6.41333 3.025 6.16667 3.075V4.5C6.16667 4.89782 6.00424 5.27936 5.71512 5.56066C5.426 5.84196 5.03388 6 4.625 6H3.16042C3.10903 6.24 3.08333 6.49 3.08333 6.75V9H4.625C5.85163 9 7.02801 8.52589 7.89537 7.68198C8.76272 6.83807 9.25 5.69347 9.25 4.5ZM4.625 33H3.08333V35.25C3.08333 35.51 3.10903 35.76 3.16042 36H4.625C5.03388 36 5.426 36.158 5.71512 36.4393C6.00424 36.7206 6.16667 37.1022 6.16667 37.5V38.925C6.41333 38.973 6.67028 38.998 6.9375 39H9.25V37.5C9.25 36.3065 8.76272 35.1619 7.89537 34.318C7.02801 33.4741 5.85163 33 4.625 33ZM18.5 4.5V3.075C18.2461 3.02584 17.988 3.00073 17.7292 3H15.4167V4.5C15.4167 5.69347 15.9039 6.83807 16.7713 7.68198C17.6387 8.52589 18.815 9 20.0417 9H21.5833V6.75C21.5833 6.49 21.5576 6.24 21.5063 6H20.0417C19.6328 6 19.2407 5.84196 18.9515 5.56066C18.6624 5.27936 18.5 4.89782 18.5 4.5Z" fill="#327125"/>
</svg>
