<svg width="17" height="16" viewBox="0 0 17 16" fill="none" xmlns="http://www.w3.org/2000/svg">
<path d="M6.02088 6.00002C6.56393 6.00002 7.11596 6.06402 7.67696 6.19202C8.23796 6.32002 8.75741 6.51713 9.23529 6.78336C9.71318 7.04958 10.1233 7.38291 10.4657 7.78336C10.808 8.1838 11.0382 8.65602 11.1563 9.20002C11.2035 9.41113 11.1563 9.59713 11.0146 9.75802C10.873 9.91891 10.69 9.99958 10.4657 10H1.57608C1.35178 10 1.16879 9.91936 1.02713 9.75802C0.88546 9.59669 0.838238 9.41069 0.88546 9.20002C1.00352 8.65558 1.23679 8.18336 1.58529 7.78336C1.93379 7.38336 2.34699 7.05002 2.82488 6.78336C3.30277 6.51669 3.81914 6.31936 4.374 6.19136C4.92886 6.06336 5.47782 5.99958 6.02088 6.00002ZM1.41671 12.6667C1.21602 12.6667 1.0479 12.6027 0.912376 12.4747C0.776849 12.3467 0.708849 12.1885 0.708376 12C0.707904 11.8116 0.775904 11.6534 0.912376 11.5254C1.04885 11.3974 1.21696 11.3334 1.41671 11.3334H10.625C10.8257 11.3334 10.9941 11.3974 11.1301 11.5254C11.2661 11.6534 11.3339 11.8116 11.3334 12C11.3329 12.1885 11.2649 12.3469 11.1294 12.4754C10.9939 12.6038 10.8257 12.6676 10.625 12.6667H1.41671ZM1.41671 15.3334C1.21602 15.3334 1.0479 15.2694 0.912376 15.1414C0.776849 15.0134 0.708849 14.8551 0.708376 14.6667C0.707904 14.4782 0.775904 14.32 0.912376 14.192C1.04885 14.064 1.21696 14 1.41671 14H10.625C10.8257 14 10.9941 14.064 11.1301 14.192C11.2661 14.32 11.3339 14.4782 11.3334 14.6667C11.3329 14.8551 11.2649 15.0136 11.1294 15.142C10.9939 15.2705 10.8257 15.3342 10.625 15.3334H1.41671ZM14.3792 15.3334H13.4584C13.2577 15.3334 13.0896 15.2694 12.954 15.1414C12.8185 15.0134 12.7505 14.8551 12.75 14.6667V10C12.75 8.80002 12.3338 7.75291 11.5013 6.85869C10.6687 5.96447 9.63881 5.33936 8.4115 4.98336C8.28164 4.95002 8.17539 4.88624 8.09275 4.79202C8.01011 4.6978 7.95699 4.58936 7.93338 4.46669L7.88025 4.08336C7.85664 3.88336 7.91567 3.70847 8.05734 3.55869C8.199 3.40891 8.37609 3.3338 8.58859 3.33336H11.3334V1.33336C11.3334 1.14447 11.4014 0.986245 11.5374 0.858689C11.6734 0.731134 11.8415 0.667134 12.0417 0.666689C12.2419 0.666245 12.4103 0.730245 12.5468 0.858689C12.6832 0.987134 12.751 1.14536 12.75 1.33336V3.33336H15.5125C15.725 3.33336 15.9021 3.40558 16.0438 3.55002C16.1855 3.69447 16.2445 3.86669 16.2209 4.06669L15.0875 14.7334C15.0639 14.9 14.9872 15.0418 14.8573 15.1587C14.7275 15.2756 14.5681 15.3338 14.3792 15.3334Z" fill="#1A1A1A"/>
</svg>
