<svg width="24" height="24" viewBox="0 0 24 24" fill="none" xmlns="http://www.w3.org/2000/svg">
<path d="M15.6001 10.8C15.6001 11.7548 15.2208 12.6705 14.5457 13.3456C13.8706 14.0208 12.9549 14.4 12.0001 14.4C11.0454 14.4 10.1297 14.0208 9.45455 13.3456C8.77942 12.6705 8.40013 11.7548 8.40013 10.8C8.40013 9.84526 8.77942 8.92959 9.45455 8.25446C10.1297 7.57933 11.0454 7.20004 12.0001 7.20004C12.9549 7.20004 13.8706 7.57933 14.5457 8.25446C15.2208 8.92959 15.6001 9.84526 15.6001 10.8ZM14.4001 10.8C14.4001 10.1635 14.1473 9.55307 13.6972 9.10298C13.2471 8.6529 12.6367 8.40004 12.0001 8.40004C11.3636 8.40004 10.7532 8.6529 10.3031 9.10298C9.85299 9.55307 9.60013 10.1635 9.60013 10.8C9.60013 11.4366 9.85299 12.047 10.3031 12.4971C10.7532 12.9472 11.3636 13.2 12.0001 13.2C12.6367 13.2 13.2471 12.9472 13.6972 12.4971C14.1473 12.047 14.4001 11.4366 14.4001 10.8ZM17.9401 16.746C19.5156 15.1697 20.4007 13.0323 20.4007 10.8036C20.4007 8.57499 19.5156 6.43755 17.9401 4.86124C17.1601 4.08114 16.2341 3.46232 15.2149 3.04013C14.1957 2.61794 13.1033 2.40063 12.0001 2.40063C10.897 2.40063 9.80458 2.61794 8.78539 3.04013C7.7662 3.46232 6.84015 4.08114 6.06013 4.86124C4.48464 6.43755 3.59961 8.57499 3.59961 10.8036C3.59961 13.0323 4.48464 15.1697 6.06013 16.746L7.88533 18.5448L10.3369 20.9268L10.4965 21.0684C11.4265 21.822 12.7885 21.774 13.6645 20.9268L16.5865 18.0828L17.9401 16.746ZM6.90613 5.70724C7.57482 5.03781 8.36889 4.50675 9.24296 4.14441C10.117 3.78208 11.0539 3.59558 12.0001 3.59558C12.9463 3.59558 13.8832 3.78208 14.7573 4.14441C15.6314 4.50675 16.4254 5.03781 17.0941 5.70724C18.4072 7.02208 19.1622 8.79302 19.2015 10.6508C19.2409 12.5087 18.5616 14.31 17.3053 15.6792L17.0941 15.9L15.5089 17.4648L12.8329 20.0676L12.7201 20.1636C12.5123 20.3193 12.2596 20.4033 11.9999 20.403C11.7403 20.4028 11.4877 20.3184 11.2801 20.1624L11.1685 20.0664L7.59253 16.5804L6.90613 15.9L6.69493 15.6804C5.43866 14.3112 4.75939 12.5099 4.79874 10.652C4.83809 8.79422 5.59302 7.02208 6.90613 5.70724Z" fill="#1A1A1A"/>
</svg>
