<svg width="199" height="112" viewBox="0 0 199 112" fill="none" xmlns="http://www.w3.org/2000/svg">
<g clip-path="url(#clip0_573_2412)">
<path d="M97.582 52.4238H74.5419L74.2976 45.1438C74.2871 44.8282 74.3432 44.514 74.4621 44.2229C74.581 43.9317 74.7599 43.6705 74.9864 43.4572C75.213 43.2438 75.4818 43.0835 75.7745 42.9872C76.0671 42.8909 76.3766 42.8609 76.6815 42.8993L90.0893 44.5865H90.091C92.0787 44.592 93.9833 45.407 95.3874 46.8529C96.7915 48.2988 97.5807 50.2577 97.582 52.3005V52.4238Z" fill="#D61355"/>
<path d="M87.3129 26.6004H71.2436C71.0299 26.6004 70.8183 26.6436 70.6208 26.7276C70.4234 26.8116 70.2439 26.9348 70.0928 27.0901C69.9417 27.2454 69.8218 27.4298 69.7401 27.6327C69.6583 27.8356 69.6163 28.0531 69.6163 28.2727V44.7867C69.6163 45.0064 69.6583 45.2239 69.7401 45.4268C69.8218 45.6297 69.9417 45.8141 70.0928 45.9694C70.2439 46.1247 70.4234 46.2479 70.6208 46.3319C70.8183 46.4159 71.0299 46.4591 71.2436 46.459H87.3129C87.5267 46.4591 87.7383 46.4159 87.9357 46.3319C88.1332 46.2479 88.3126 46.1247 88.4637 45.9694C88.6149 45.8141 88.7347 45.6297 88.8165 45.4268C88.8982 45.2239 88.9403 45.0064 88.9402 44.7867V28.2727C88.9403 28.0531 88.8982 27.8356 88.8165 27.6327C88.7347 27.4298 88.6149 27.2454 88.4637 27.0901C88.3126 26.9348 88.1332 26.8116 87.9357 26.7276C87.7383 26.6436 87.5267 26.6004 87.3129 26.6004Z" fill="#CCCCCC"/>
<path d="M83.6939 38.949L76.1068 40.4673C75.6568 40.5569 75.1906 40.4593 74.8105 40.196C74.4303 39.9327 74.1674 39.5252 74.0793 39.0629L73.496 35.9852C73.4089 35.5227 73.5039 35.0435 73.7601 34.6529C74.0163 34.2623 74.4128 33.992 74.8626 33.9015L82.4497 32.3831C82.8997 32.2936 83.366 32.3912 83.7461 32.6545C84.1262 32.9177 84.3892 33.3252 84.4773 33.7875L85.0605 36.8653C85.1476 37.3278 85.0526 37.8069 84.7964 38.1975C84.5402 38.5882 84.1437 38.8584 83.6939 38.949Z" fill="#3F3D56"/>
<path d="M82.1759 35.3129L76.3858 36.4717C76.2799 36.4929 76.1702 36.47 76.0807 36.408C75.9912 36.346 75.9294 36.2501 75.9087 36.1412C75.8881 36.0324 75.9104 35.9196 75.9707 35.8276C76.031 35.7357 76.1244 35.6721 76.2303 35.6509L82.0204 34.4922C82.1263 34.471 82.2361 34.4939 82.3256 34.5559C82.415 34.6178 82.4769 34.7138 82.4975 34.8226C82.5181 34.9315 82.4958 35.0443 82.4355 35.1362C82.3752 35.2282 82.2818 35.2917 82.1759 35.3129Z" fill="white"/>
<path d="M81.0505 37.0289L78.0556 37.6283C77.9497 37.6494 77.84 37.6265 77.7505 37.5646C77.661 37.5026 77.5992 37.4066 77.5785 37.2978C77.5579 37.189 77.5802 37.0762 77.6405 36.9842C77.7008 36.8923 77.7942 36.8287 77.9001 36.8075L80.895 36.2082C80.9474 36.1977 81.0014 36.1979 81.0537 36.2088C81.1061 36.2197 81.1558 36.2412 81.2001 36.2718C81.2444 36.3025 81.2824 36.3419 81.3119 36.3877C81.3414 36.4334 81.3619 36.4847 81.3721 36.5386C81.3823 36.5925 81.3821 36.6479 81.3714 36.7017C81.3608 36.7555 81.34 36.8067 81.3101 36.8522C81.2802 36.8977 81.2419 36.9368 81.1974 36.9671C81.1529 36.9974 81.1029 37.0184 81.0505 37.0289Z" fill="white"/>
<path d="M88.9402 28.2727V30.4676H69.6163V28.2727C69.6163 28.0531 69.6583 27.8356 69.7401 27.6327C69.8218 27.4298 69.9417 27.2454 70.0928 27.0901C70.2439 26.9348 70.4234 26.8116 70.6208 26.7276C70.8183 26.6436 71.0299 26.6004 71.2436 26.6004H87.3129C87.5267 26.6004 87.7383 26.6436 87.9357 26.7276C88.1332 26.8116 88.3126 26.9348 88.4637 27.0901C88.6148 27.2454 88.7347 27.4298 88.8165 27.6327C88.8982 27.8356 88.9403 28.0531 88.9402 28.2727Z" fill="#B3B3B3"/>
<path d="M127.528 31.155C127.417 30.7849 127.227 30.4445 126.974 30.1576C126.721 29.8708 126.409 29.6446 126.061 29.4949C125.714 29.3452 125.338 29.2757 124.961 29.2912C124.585 29.3068 124.216 29.407 123.881 29.5848L101.773 21.4335L100.8 27.1092L122.837 33.337C123.165 33.8954 123.681 34.3108 124.287 34.5043C124.893 34.6979 125.547 34.6563 126.126 34.3873C126.704 34.1184 127.166 33.6408 127.425 33.045C127.683 32.4493 127.72 31.7768 127.528 31.155Z" fill="#FFB8B8"/>
<path opacity="0.2" d="M127.528 31.155C127.417 30.7849 127.227 30.4445 126.974 30.1576C126.721 29.8708 126.409 29.6446 126.061 29.4949C125.714 29.3452 125.338 29.2757 124.961 29.2912C124.585 29.3068 124.216 29.407 123.881 29.5848L101.773 21.4335L100.8 27.1092L122.837 33.337C123.165 33.8954 123.681 34.3108 124.287 34.5043C124.893 34.6979 125.547 34.6563 126.126 34.3873C126.704 34.1184 127.166 33.6408 127.425 33.045C127.683 32.4493 127.72 31.7768 127.528 31.155Z" fill="black"/>
<path d="M105.697 22.4677L103.61 28.0726C103.55 28.2321 103.458 28.3765 103.34 28.4961C103.221 28.6157 103.079 28.7076 102.922 28.7655C102.766 28.8235 102.599 28.8461 102.434 28.832C102.268 28.8178 102.108 28.7671 101.963 28.6834L96.8891 25.7487C96.097 25.4317 95.4595 24.8048 95.1163 24.0055C94.7732 23.2062 94.7525 22.2997 95.0587 21.4848C95.3649 20.6698 95.9731 20.0129 96.7499 19.658C97.5267 19.3031 98.4087 19.2792 99.2026 19.5916L104.868 20.8829C105.03 20.92 105.183 20.9925 105.315 21.0956C105.448 21.1986 105.557 21.3298 105.636 21.4802C105.715 21.6306 105.761 21.7967 105.771 21.9671C105.782 22.1375 105.757 22.3082 105.697 22.4677Z" fill="#D61355"/>
<path d="M129.268 36.3447L121.347 40.0451L122.387 44.0689C124.395 51.8391 124.928 59.9341 123.957 67.9115L129.748 69.1546L134.549 56.5734L132.869 42.2653L129.268 36.3447Z" fill="#D61355"/>
<path d="M144.812 54.9699C139.607 54.9699 135.365 58.8582 135.159 63.7274H154.464C154.258 58.8582 150.016 54.9699 144.812 54.9699Z" fill="#3F3D56"/>
<path d="M140.76 55.809C140.489 33.8293 128.308 35.8514 128.308 35.8514C128.308 35.8514 128.536 42.6929 128.645 42.9057C136.407 57.9981 123.597 75.6918 107.291 72.4368C106.983 72.3754 106.688 72.3131 106.405 72.25C104.338 71.8067 102.514 70.5712 101.303 68.7948C100.092 67.0185 99.5843 64.8347 99.8841 62.6876C101.49 49.4315 93.5011 49.666 93.5011 49.666H81.8188L75.752 44.0548C75.5378 43.8568 75.2797 43.7156 75.0002 43.6438C74.7207 43.5719 74.4284 43.5715 74.1487 43.6426C73.869 43.7137 73.6105 43.8541 73.3959 44.0516C73.1812 44.2491 73.0169 44.4976 72.9173 44.7754L72.1368 46.9525C72.1368 46.9525 60.6145 48.1859 61.5747 59.7804H65.1369C65.1283 60.1098 65.1412 60.4395 65.1754 60.7671L91.761 60.545C93.3193 60.532 94.6949 61.8297 94.7013 63.4312C94.7029 63.8211 94.628 64.2074 94.481 64.5668C94.3339 64.9263 94.1179 65.2515 93.8457 65.5232C93.5736 65.7949 93.2509 66.0073 92.897 66.1479C92.5431 66.2884 92.1652 66.3542 91.7861 66.3412L87.4999 66.1943C86.1796 72.2383 89.4203 76.3087 92.991 78.8681C96.3529 81.2429 100.342 82.502 104.422 82.4759H116.066C131.189 82.4759 133.829 69.4013 133.829 69.4013C141.751 65.9476 140.76 55.809 140.76 55.809Z" fill="#3F3D56"/>
<path d="M144.091 89.63C151.549 89.63 157.594 83.4173 157.594 75.7536C157.594 68.0899 151.549 61.8772 144.091 61.8772C136.634 61.8772 130.589 68.0899 130.589 75.7536C130.589 83.4173 136.634 89.63 144.091 89.63Z" fill="#3F3D56"/>
<path d="M144.091 79.1546C145.919 79.1546 147.401 77.6319 147.401 75.7536C147.401 73.8752 145.919 72.3525 144.091 72.3525C142.264 72.3525 140.782 73.8752 140.782 75.7536C140.782 77.6319 142.264 79.1546 144.091 79.1546Z" fill="white"/>
<path d="M75.9176 89.63C84.5019 89.63 91.4608 82.4785 91.4608 73.6567C91.4608 64.835 84.5019 57.6835 75.9176 57.6835C67.3334 57.6835 60.3745 64.835 60.3745 73.6567C60.3745 82.4785 67.3334 89.63 75.9176 89.63Z" fill="#3F3D56"/>
<path d="M75.9176 77.5717C78.0216 77.5717 79.7272 75.8189 79.7272 73.6567C79.7272 71.4945 78.0216 69.7417 75.9176 69.7417C73.8136 69.7417 72.108 71.4945 72.108 73.6567C72.108 75.8189 73.8136 77.5717 75.9176 77.5717Z" fill="white"/>
<path d="M121.369 41.1384L118.519 33.1828C118.37 32.7682 118.303 32.3275 118.32 31.886C118.337 31.4445 118.439 31.0109 118.619 30.6097C118.799 30.2086 119.055 29.8479 119.371 29.5482C119.687 29.2485 120.057 29.0157 120.46 28.863L128.631 25.7717C129.341 25.5031 130.096 25.3807 130.852 25.4117C131.608 25.4427 132.35 25.6264 133.037 25.9523C133.724 26.2782 134.341 26.7399 134.855 27.3111C135.368 27.8824 135.766 28.5518 136.028 29.2814C136.264 29.9362 136.384 30.6289 136.383 31.3271C136.38 32.2136 136.185 33.0882 135.812 33.8875C135.439 34.6867 134.897 35.3905 134.226 35.9476C133.741 36.3472 133.196 36.6629 132.613 36.8823L121.369 41.1384Z" fill="#3F3D56"/>
<path d="M136.263 31.327C136.263 32.1955 136.073 33.0527 135.707 33.8357C135.341 34.6187 134.81 35.3074 134.151 35.8513C133.14 35.5774 132.2 35.0805 131.395 34.3952C130.59 33.7099 129.94 32.8527 129.489 31.8831C129.039 30.9135 128.8 29.8549 128.789 28.7807C128.777 27.7065 128.993 26.6427 129.422 25.663C130.245 25.479 131.098 25.4868 131.918 25.6859C132.738 25.8851 133.505 26.2704 134.161 26.8136C134.817 27.3568 135.346 28.0442 135.71 28.8252C136.074 29.6063 136.263 30.4611 136.263 31.327Z" fill="#D61355"/>
<path d="M63.6151 61.3838C65.4711 61.3838 66.9757 59.5062 66.9757 57.1901C66.9757 54.874 65.4711 52.9964 63.6151 52.9964C61.759 52.9964 60.2544 54.874 60.2544 57.1901C60.2544 59.5062 61.759 61.3838 63.6151 61.3838Z" fill="#D61355"/>
<path d="M108.039 72.035H110.982L112.382 64.1909L108.038 64.1912L108.039 72.035Z" fill="#FFB8B8"/>
<path d="M107.288 71.0476L113.084 71.0473H113.084C113.569 71.0473 114.049 71.1455 114.497 71.3362C114.946 71.527 115.353 71.8066 115.696 72.159C116.039 72.5115 116.311 72.9299 116.496 73.3904C116.682 73.8509 116.778 74.3445 116.778 74.843V74.9663L107.288 74.9667L107.288 71.0476Z" fill="#2F2E41"/>
<path d="M111.455 68.8155C111.42 68.8155 111.386 68.8138 111.352 68.8105L107.279 68.5057C107.114 68.49 106.955 68.4357 106.814 68.3468C106.673 68.258 106.554 68.137 106.465 67.9933C106.377 67.8496 106.322 67.687 106.304 67.5179C106.287 67.3489 106.307 67.178 106.364 67.0184L111.815 54.4335C111.854 54.3213 111.87 54.202 111.862 54.0832C111.854 53.9644 111.822 53.8486 111.768 53.7431C111.714 53.6363 111.639 53.5424 111.548 53.4676C111.456 53.3928 111.35 53.3387 111.237 53.3089C108.674 52.6204 102.098 50.7871 96.4053 48.642C93.9665 47.723 92.4304 46.3949 91.8399 44.6945C91.0614 42.4529 92.2131 40.4085 92.2625 40.3227L92.3012 40.2555L97.6578 40.7559L103.465 41.2635L116.191 48.2764C117.257 48.869 118.067 49.8526 118.459 51.0314C118.851 52.2101 118.797 53.4975 118.307 54.6371L112.44 68.1576C112.356 68.3534 112.217 68.5198 112.042 68.6365C111.867 68.7533 111.663 68.8155 111.455 68.8155Z" fill="#2F2E41"/>
<path d="M98.5891 15.8576C101.845 15.8576 104.485 13.1449 104.485 9.79861C104.485 6.45233 101.845 3.73963 98.5891 3.73963C95.3329 3.73963 92.6932 6.45233 92.6932 9.79861C92.6932 13.1449 95.3329 15.8576 98.5891 15.8576Z" fill="#FFB8B8"/>
<path d="M106.358 72.775H109.301L110.702 64.931L106.358 64.9313L106.358 72.775Z" fill="#FFB8B8"/>
<path d="M105.608 71.7876L111.403 71.7874H111.404C111.889 71.7874 112.369 71.8856 112.817 72.0763C113.265 72.267 113.672 72.5466 114.015 72.8991C114.358 73.2515 114.63 73.67 114.816 74.1305C115.002 74.591 115.097 75.0846 115.097 75.583V75.7064L105.608 75.7067L105.608 71.7876Z" fill="#2F2E41"/>
<path d="M109.774 69.5556C109.74 69.5556 109.706 69.5539 109.671 69.5506L105.598 69.2458C105.434 69.2301 105.275 69.1757 105.134 69.0869C104.993 68.9981 104.873 68.8771 104.785 68.7334C104.697 68.5897 104.641 68.427 104.624 68.258C104.606 68.089 104.627 67.918 104.684 67.7584L110.135 55.1736C110.174 55.0614 110.189 54.9421 110.181 54.8233C110.173 54.7045 110.141 54.5887 110.087 54.4831C110.034 54.3764 109.959 54.2825 109.867 54.2077C109.776 54.1329 109.67 54.0788 109.557 54.049C106.994 53.3605 100.418 51.5272 94.7249 49.3821C92.2861 48.4631 90.75 47.1349 90.1595 45.4346C89.381 43.1929 90.5327 41.1486 90.5821 41.0628L90.6207 40.9956L95.9773 41.496L101.784 42.0036L114.51 49.0164C115.576 49.609 116.386 50.5927 116.779 51.7714C117.171 52.9502 117.117 54.2376 116.627 55.3772L110.76 68.8977C110.675 69.0935 110.537 69.2598 110.362 69.3766C110.187 69.4934 109.983 69.5555 109.774 69.5556Z" fill="#2F2E41"/>
<path d="M100.407 19.2933L94.1661 17.0731C94.1661 17.0731 90.2481 20.1666 92.1303 27.8408C93.1129 31.801 92.8267 35.9812 91.3141 39.7609C91.132 40.2286 90.922 40.6843 90.6854 41.1254C90.6854 41.1254 97.6468 49.7596 104.128 43.3457L101.608 30.8878C101.608 30.8878 105.568 22.6236 100.407 19.2933Z" fill="#D61355"/>
<path d="M99.3211 16.0637C98.482 14.7729 97.8198 12.9831 98.7437 11.755C99.6556 10.5427 101.454 10.7213 102.851 10.1849C104.796 9.43772 105.925 7.08907 105.573 4.9857C105.221 2.88233 103.578 1.13869 101.621 0.425257C99.6633 -0.28818 97.4561 -0.0561536 95.5394 0.765413C93.1799 1.77677 91.1558 3.73318 90.3071 6.21143C89.4584 8.68968 89.9121 11.6653 91.6728 13.5701C93.5605 15.6123 96.5231 16.1566 99.2638 16.1235" fill="#2F2E41"/>
<path d="M93.8367 5.0532C92.7794 5.9378 91.1661 5.5449 90.0311 4.76855C88.8961 3.99221 87.9751 2.88673 86.747 2.27804C84.582 1.20495 81.9643 1.91831 79.8572 3.10695C77.7501 4.29559 75.8822 5.93773 73.6565 6.87051C71.4307 7.80329 68.5905 7.84939 66.9051 6.0881C66.4904 7.32299 66.4565 8.65932 66.8081 9.91474C67.1596 11.1702 67.8795 12.2835 68.8696 13.103C69.8596 13.9224 71.0715 14.408 72.34 14.4934C73.6085 14.5789 74.8717 14.2601 75.9574 13.5805C78.3961 12.0538 79.7432 8.85295 82.4785 8.01035C83.9922 7.54408 85.6175 7.91962 87.1473 8.32637C88.6771 8.73312 90.2722 9.17262 91.816 8.82635C93.3598 8.48008 94.8039 7.05434 94.6075 5.44305L93.8367 5.0532Z" fill="#2F2E41"/>
<path d="M127.235 30.9082C127.08 30.5551 126.851 30.2412 126.565 29.9887C126.279 29.7362 125.943 29.5512 125.58 29.4468C125.217 29.3423 124.836 29.3209 124.464 29.3841C124.092 29.4473 123.738 29.5935 123.427 29.8125L100.51 24.5266L100.225 30.2824L122.841 33.6684C123.234 34.1809 123.796 34.5277 124.421 34.6429C125.045 34.7582 125.69 34.6339 126.231 34.2937C126.773 33.9535 127.174 33.4209 127.359 32.7969C127.544 32.173 127.5 31.5009 127.235 30.9082Z" fill="#FFB8B8"/>
<path d="M104.528 25.0554L103.129 30.8821C103.089 31.0479 103.015 31.2029 102.912 31.3367C102.808 31.4704 102.678 31.5796 102.53 31.6569C102.382 31.7343 102.219 31.7779 102.053 31.7848C101.887 31.7917 101.722 31.7618 101.568 31.6971L96.1807 29.4281C95.356 29.2145 94.6475 28.6734 94.2106 27.9235C93.7736 27.1736 93.644 26.2763 93.8501 25.4283C94.0563 24.5803 94.5813 23.851 95.3101 23.4004C96.0388 22.9498 96.9117 22.8147 97.7373 23.0248L103.515 23.5878C103.68 23.604 103.84 23.6566 103.984 23.7421C104.128 23.8276 104.252 23.9439 104.348 24.0832C104.444 24.2225 104.51 24.3814 104.541 24.5492C104.572 24.7169 104.568 24.8896 104.528 25.0554Z" fill="#D61355"/>
<path d="M124.587 35.4813C125.515 35.4813 126.268 34.7082 126.268 33.7545C126.268 32.8008 125.515 32.0276 124.587 32.0276C123.659 32.0276 122.907 32.8008 122.907 33.7545C122.907 34.7082 123.659 35.4813 124.587 35.4813Z" fill="#D61355"/>
</g>
<path d="M46.288 110.048C44.832 110.048 44.104 109.888 44.104 109.568V94.016C44.104 93.472 44.352 93.2 44.848 93.2H49.072C51.44 93.2 53.144 93.688 54.184 94.664C55.24 95.64 55.768 97.056 55.768 98.912C55.768 100.448 55.272 101.856 54.28 103.136C53.784 103.776 53.056 104.288 52.096 104.672C51.136 105.056 50.016 105.248 48.736 105.248V109.544C48.736 109.736 48.432 109.872 47.824 109.952C47.232 110.016 46.72 110.048 46.288 110.048ZM48.736 97.376V101.168H49.048C49.608 101.168 50.08 100.992 50.464 100.64C50.848 100.288 51.04 99.792 51.04 99.152C51.04 98.512 50.904 98.056 50.632 97.784C50.376 97.512 49.912 97.376 49.24 97.376H48.736ZM66.3708 109.352C65.3628 109.944 64.0668 110.24 62.4828 110.24C60.8988 110.24 59.5628 109.704 58.4748 108.632C57.3868 107.544 56.8428 106.048 56.8428 104.144C56.8428 102.224 57.3628 100.68 58.4028 99.512C59.4588 98.344 60.7868 97.76 62.3867 97.76C63.9868 97.76 65.2188 98.168 66.0828 98.984C66.9628 99.8 67.4028 100.792 67.4028 101.96C67.4028 104.552 65.9148 105.848 62.9388 105.848H61.2828C61.2828 106.328 61.4108 106.664 61.6668 106.856C61.9388 107.032 62.3308 107.12 62.8428 107.12C63.9628 107.12 65.0268 106.864 66.0348 106.352C66.0508 106.336 66.1228 106.448 66.2508 106.688C66.6348 107.376 66.8268 107.96 66.8268 108.44C66.8268 108.904 66.6748 109.208 66.3708 109.352ZM63.3708 102.416C63.3708 101.744 63.0428 101.408 62.3867 101.408C62.0828 101.408 61.8188 101.504 61.5948 101.696C61.3868 101.872 61.2828 102.136 61.2828 102.488V103.232H62.5788C63.1068 103.232 63.3708 102.96 63.3708 102.416ZM75.0426 93.344C75.0426 93.104 75.6746 92.984 76.9386 92.984C77.3706 92.984 77.8666 93.016 78.4266 93.08C79.0026 93.128 79.2906 93.2 79.2906 93.296V105.944H80.1306C80.5306 105.944 80.7946 106.304 80.9226 107.024C80.9546 107.232 80.9706 107.52 80.9706 107.888C80.9706 108.24 80.8586 108.672 80.6346 109.184C80.3146 109.888 79.8026 110.24 79.0986 110.24C78.5706 110.24 78.0986 110.136 77.6826 109.928C77.2826 109.72 77.0106 109.504 76.8666 109.28L76.6506 108.968C75.7706 109.816 74.6666 110.24 73.3386 110.24C72.0106 110.24 70.8746 109.688 69.9306 108.584C68.9866 107.48 68.5146 105.944 68.5146 103.976C68.5146 101.992 69.0106 100.464 70.0026 99.392C70.9946 98.304 72.2346 97.76 73.7226 97.76C74.1546 97.76 74.5946 97.808 75.0426 97.904V93.344ZM74.2506 101.6C73.3546 101.6 72.9066 102.408 72.9066 104.024C72.9066 104.84 73.0346 105.432 73.2906 105.8C73.5466 106.152 73.8266 106.328 74.1306 106.328C74.4506 106.328 74.7546 106.192 75.0426 105.92V101.84C74.7706 101.68 74.5066 101.6 74.2506 101.6ZM86.9329 109.856C86.9329 109.984 86.1969 110.048 84.7249 110.048C83.2689 110.048 82.5409 109.992 82.5409 109.88V98.096C82.5409 97.984 83.2689 97.928 84.7249 97.928C86.1969 97.928 86.9329 97.976 86.9329 98.072V109.856ZM86.9329 96.656C86.9329 96.768 86.1969 96.824 84.7249 96.824C83.2689 96.824 82.5409 96.776 82.5409 96.68V93.224C82.5409 93.064 83.2689 92.984 84.7249 92.984C86.1969 92.984 86.9329 93.032 86.9329 93.128V96.656ZM95.1754 93.344C95.1754 93.104 95.8074 92.984 97.0714 92.984C97.5034 92.984 97.9994 93.016 98.5594 93.08C99.1354 93.128 99.4234 93.2 99.4234 93.296V105.944H100.263C100.663 105.944 100.927 106.304 101.055 107.024C101.087 107.232 101.103 107.52 101.103 107.888C101.103 108.24 100.991 108.672 100.767 109.184C100.447 109.888 99.9354 110.24 99.2314 110.24C98.7034 110.24 98.2314 110.136 97.8154 109.928C97.4154 109.72 97.1434 109.504 96.9994 109.28L96.7834 108.968C95.9034 109.816 94.7994 110.24 93.4714 110.24C92.1434 110.24 91.0074 109.688 90.0634 108.584C89.1194 107.48 88.6474 105.944 88.6474 103.976C88.6474 101.992 89.1434 100.464 90.1354 99.392C91.1274 98.304 92.3674 97.76 93.8554 97.76C94.2874 97.76 94.7274 97.808 95.1754 97.904V93.344ZM94.3834 101.6C93.4874 101.6 93.0394 102.408 93.0394 104.024C93.0394 104.84 93.1674 105.432 93.4234 105.8C93.6794 106.152 93.9594 106.328 94.2634 106.328C94.5834 106.328 94.8874 106.192 95.1754 105.92V101.84C94.9034 101.68 94.6394 101.6 94.3834 101.6ZM103.706 108.584C102.714 107.48 102.218 105.952 102.218 104C102.218 102.048 102.714 100.52 103.706 99.416C104.714 98.312 106.066 97.76 107.762 97.76C109.458 97.76 110.802 98.312 111.794 99.416C112.786 100.52 113.282 102.048 113.282 104C113.282 105.952 112.786 107.48 111.794 108.584C110.802 109.688 109.458 110.24 107.762 110.24C106.066 110.24 104.714 109.688 103.706 108.584ZM107.762 101.768C106.866 101.768 106.418 102.504 106.418 103.976C106.418 105.448 106.866 106.184 107.762 106.184C108.674 106.184 109.13 105.448 109.13 103.976C109.13 102.504 108.674 101.768 107.762 101.768ZM115.482 105.68C116.778 106.464 117.802 106.856 118.554 106.856C119.034 106.856 119.274 106.688 119.274 106.352C119.274 106.112 118.858 105.8 118.026 105.416C116.026 104.6 115.026 103.264 115.026 101.408C115.026 100.224 115.458 99.32 116.322 98.696C117.186 98.072 118.218 97.76 119.418 97.76C120.634 97.76 121.658 97.888 122.49 98.144C123.338 98.4 123.762 98.736 123.762 99.152C123.762 99.504 123.586 99.968 123.234 100.544C122.898 101.12 122.666 101.432 122.538 101.48C121.85 101.096 121.106 100.904 120.306 100.904C119.874 100.904 119.658 101.056 119.658 101.36C119.658 101.552 119.738 101.72 119.898 101.864C120.074 101.992 120.386 102.16 120.834 102.368C121.282 102.56 121.65 102.736 121.938 102.896C122.242 103.056 122.578 103.28 122.946 103.568C123.714 104.176 124.098 104.968 124.098 105.944C124.098 107.224 123.674 108.264 122.826 109.064C121.978 109.848 120.698 110.24 118.986 110.24C117.85 110.24 116.818 110.048 115.89 109.664C114.962 109.28 114.498 108.752 114.498 108.08C114.498 107.632 114.602 107.16 114.81 106.664C115.034 106.168 115.258 105.84 115.482 105.68ZM138.779 93.992C138.987 93.432 140.011 93.152 141.851 93.152C142.315 93.152 142.859 93.184 143.483 93.248C144.123 93.312 144.419 93.392 144.371 93.488L139.379 103.52V109.376C139.379 109.648 138.939 109.84 138.059 109.952C137.611 110.016 137.171 110.048 136.739 110.048C136.307 110.048 135.875 110.024 135.443 109.976C134.563 109.864 134.123 109.664 134.123 109.376V103.664L128.963 93.536C128.899 93.44 129.227 93.352 129.947 93.272C130.667 93.176 131.275 93.128 131.771 93.128C133.739 93.128 134.819 93.416 135.011 93.992L136.763 98.888L138.779 93.992ZM145.858 101.288C145.41 100.488 145.186 99.84 145.186 99.344C145.186 98.832 145.322 98.504 145.594 98.36C146.506 97.96 147.754 97.76 149.338 97.76C150.938 97.76 152.066 98.136 152.722 98.888C153.378 99.624 153.706 100.72 153.706 102.176V105.968H154.522C154.794 105.968 155.002 106.128 155.146 106.448C155.306 106.768 155.386 107.208 155.386 107.768C155.386 108.328 155.242 108.88 154.954 109.424C154.682 109.968 154.306 110.24 153.826 110.24C152.962 110.24 152.266 110.008 151.738 109.544C151.498 109.352 151.314 109.12 151.186 108.848C150.45 109.776 149.306 110.24 147.754 110.24C146.586 110.24 145.602 109.824 144.802 108.992C144.002 108.16 143.602 107.176 143.602 106.04C143.602 103.432 145.162 102.128 148.282 102.128H149.602V101.888C149.602 101.472 149.53 101.208 149.386 101.096C149.258 100.968 148.946 100.904 148.45 100.904C147.842 100.904 146.978 101.032 145.858 101.288ZM147.778 105.704C147.778 106.056 147.874 106.328 148.066 106.52C148.258 106.696 148.498 106.784 148.786 106.784C149.09 106.784 149.362 106.664 149.602 106.424V104.576H148.93C148.162 104.576 147.778 104.952 147.778 105.704ZM162 109.976C162 110.088 161.272 110.144 159.816 110.144C158.36 110.112 157.632 110.048 157.632 109.952V101.984H156.984C156.728 101.984 156.52 101.832 156.36 101.528C156.216 101.208 156.144 100.816 156.144 100.352C156.144 98.624 156.656 97.76 157.68 97.76C158.4 97.76 159 97.984 159.48 98.432C159.96 98.864 160.2 99.36 160.2 99.92C160.536 99.264 160.984 98.744 161.544 98.36C162.12 97.96 162.704 97.76 163.296 97.76C164.224 97.76 164.784 98 164.976 98.48C165.024 98.608 165.048 98.8 165.048 99.056C165.048 99.296 164.968 99.736 164.808 100.376C164.664 101.016 164.512 101.48 164.352 101.768C164.192 102.056 164.096 102.2 164.064 102.2C164.032 102.2 163.88 102.144 163.608 102.032C163.352 101.904 163.12 101.84 162.912 101.84C162.304 101.84 162 102.32 162 103.28V109.976ZM170.652 109.856C170.652 109.984 169.916 110.048 168.444 110.048C166.988 110.048 166.26 109.992 166.26 109.88V98.096C166.26 97.984 166.988 97.928 168.444 97.928C169.916 97.928 170.652 97.976 170.652 98.072V109.856ZM170.652 96.656C170.652 96.768 169.916 96.824 168.444 96.824C166.988 96.824 166.26 96.776 166.26 96.68V93.224C166.26 93.064 166.988 92.984 168.444 92.984C169.916 92.984 170.652 93.032 170.652 93.128V96.656Z" fill="#D61355"/>
<defs>
<clipPath id="clip0_573_2412">
<rect width="199" height="90" fill="white"/>
</clipPath>
</defs>
</svg>
