<svg width="35" height="47" viewBox="0 0 35 47" fill="none" xmlns="http://www.w3.org/2000/svg">
<path d="M20.6818 33.5714C22.2955 33.5731 23.9016 33.3392 25.4545 32.8765V41.125C25.4545 42.6831 24.8679 44.1775 23.8237 45.2793C22.7794 46.381 21.3631 47 19.8864 47H5.56818C4.09141 47 2.67512 46.381 1.63088 45.2793C0.586646 44.1775 0 42.6831 0 41.125V5.875C0 2.632 2.49455 0 5.56818 0H10.6177C7.57458 2.25634 5.29193 5.47701 4.10094 9.19473C2.90996 12.9124 2.8726 16.9338 3.99427 20.6755C5.11595 24.4171 7.33832 27.6844 10.339 30.0033C13.3396 32.3221 16.9624 33.5719 20.6818 33.5714ZM9.54545 36.9286C9.12352 36.9286 8.71887 37.1054 8.42051 37.4202C8.12216 37.735 7.95455 38.162 7.95455 38.6071C7.95455 39.0523 8.12216 39.4793 8.42051 39.7941C8.71887 40.1089 9.12352 40.2857 9.54545 40.2857H15.9091C16.331 40.2857 16.7357 40.1089 17.034 39.7941C17.3324 39.4793 17.5 39.0523 17.5 38.6071C17.5 38.162 17.3324 37.735 17.034 37.4202C16.7357 37.1054 16.331 36.9286 15.9091 36.9286H9.54545ZM35 15.1071C35 17.091 34.6297 19.0555 33.9101 20.8884C33.1905 22.7213 32.1359 24.3867 30.8063 25.7895C29.4767 27.1923 27.8983 28.3051 26.1611 29.0643C24.424 29.8235 22.5621 30.2143 20.6818 30.2143C18.8015 30.2143 16.9396 29.8235 15.2025 29.0643C13.4653 28.3051 11.8869 27.1923 10.5573 25.7895C9.22777 24.3867 8.1731 22.7213 7.45354 20.8884C6.73399 19.0555 6.36364 17.091 6.36364 15.1071C6.36364 11.1005 7.87215 7.25792 10.5573 4.42478C13.2425 1.59164 16.8844 4.00203e-07 20.6818 4.00203e-07C24.4792 4.00203e-07 28.1211 1.59164 30.8063 4.42478C33.4915 7.25792 35 11.1005 35 15.1071ZM28.1718 8.883C28.024 8.72668 27.8485 8.60266 27.6552 8.51804C27.4619 8.43342 27.2547 8.38986 27.0455 8.38986C26.8362 8.38986 26.629 8.43342 26.4357 8.51804C26.2424 8.60266 26.0669 8.72668 25.9191 8.883L17.5 17.7694L15.4445 15.5973C15.2966 15.4412 15.121 15.3174 14.9278 15.233C14.7345 15.1485 14.5274 15.105 14.3182 15.105C14.109 15.105 13.9019 15.1485 13.7086 15.233C13.5153 15.3174 13.3397 15.4412 13.1918 15.5973C13.0439 15.7534 12.9266 15.9386 12.8465 16.1425C12.7665 16.3465 12.7253 16.565 12.7253 16.7857C12.7253 17.0064 12.7665 17.225 12.8465 17.4289C12.9266 17.6328 13.0439 17.8181 13.1918 17.9741L16.3736 21.3313C16.5214 21.4876 16.697 21.6116 16.8903 21.6963C17.0835 21.7809 17.2907 21.8244 17.5 21.8244C17.7093 21.8244 17.9165 21.7809 18.1097 21.6963C18.303 21.6116 18.4786 21.4876 18.6264 21.3313L28.1718 11.2599C28.32 11.1039 28.4375 10.9187 28.5177 10.7148C28.5979 10.5108 28.6392 10.2922 28.6392 10.0714C28.6392 9.85064 28.5979 9.63202 28.5177 9.42809C28.4375 9.22416 28.32 9.03892 28.1718 8.883Z" fill="#E94B64"/>
</svg>
