<svg width="33" height="32" viewBox="0 0 33 32" fill="none" xmlns="http://www.w3.org/2000/svg">
<path fill-rule="evenodd" clip-rule="evenodd" d="M10.75 4H22.75C24.4069 4 25.75 5.40154 25.75 7.13043V24.8696C25.75 26.5985 24.4069 28 22.75 28H10.75C9.09315 28 7.75 26.5985 7.75 24.8696V7.13043C7.75 5.40154 9.09315 4 10.75 4ZM10.75 6.08696C10.1977 6.08696 9.75 6.55414 9.75 7.13043V24.8696C9.75 25.4459 10.1977 25.913 10.75 25.913H22.75C23.3023 25.913 23.75 25.4459 23.75 24.8696V7.13043C23.75 6.55414 23.3023 6.08696 22.75 6.08696H10.75Z" fill="#999999"/>
<path d="M11.75 7C11.75 7.55228 12.1977 8 12.75 8H20.75C21.3023 8 21.75 7.55228 21.75 7V6H11.75V7Z" fill="#999999"/>
<path d="M11.75 12C11.75 11.4477 12.1977 11 12.75 11H20.75C21.3023 11 21.75 11.4477 21.75 12C21.75 12.5523 21.3023 13 20.75 13H12.75C12.1977 13 11.75 12.5523 11.75 12Z" fill="#999999"/>
<path d="M11.75 16C11.75 15.4477 12.1977 15 12.75 15H16.75C17.3023 15 17.75 15.4477 17.75 16C17.75 16.5523 17.3023 17 16.75 17H12.75C12.1977 17 11.75 16.5523 11.75 16Z" fill="#999999"/>
<path d="M11.75 20C11.75 19.4477 12.1977 19 12.75 19H14.75C15.3023 19 15.75 19.4477 15.75 20C15.75 20.5523 15.3023 21 14.75 21H12.75C12.1977 21 11.75 20.5523 11.75 20Z" fill="#999999"/>
</svg>
