<svg width="32" height="32" viewBox="0 0 32 32" fill="none" xmlns="http://www.w3.org/2000/svg">
<path d="M16 4C22.6274 4 28 9.37258 28 16C28 20.6584 25.3437 24.6932 21.4648 26.6816C21.4541 26.6872 21.4434 26.6928 21.4326 26.6982C21.0856 26.8748 20.7288 27.034 20.3633 27.1768C20.3274 27.1908 20.2919 27.206 20.2559 27.2197C20.1591 27.2565 20.0618 27.2919 19.9639 27.3262C19.8984 27.3491 19.8325 27.3707 19.7666 27.3926C19.6709 27.4242 19.5752 27.4561 19.4785 27.4854C19.3482 27.5249 19.2171 27.5625 19.085 27.5977C19.0099 27.6176 18.9341 27.6348 18.8584 27.6533C18.7411 27.6821 18.6235 27.7101 18.5049 27.7354C18.2737 27.7845 18.0406 27.8287 17.8047 27.8643C17.7709 27.8694 17.737 27.8731 17.7031 27.8779C17.5952 27.8933 17.4868 27.9075 17.3779 27.9199C17.358 27.9222 17.3383 27.9255 17.3184 27.9277C17.1823 27.9426 17.0456 27.9546 16.9082 27.9648C16.8887 27.9663 16.8691 27.9674 16.8496 27.9688C16.7435 27.9762 16.6371 27.9827 16.5303 27.9873C16.4799 27.9895 16.4295 27.9916 16.3789 27.9932C16.2531 27.9971 16.1268 28 16 28C15.8726 28 15.7456 27.9971 15.6191 27.9932C15.5699 27.9916 15.5208 27.9894 15.4717 27.9873C15.3635 27.9826 15.2558 27.9763 15.1484 27.9688C15.1292 27.9674 15.11 27.9663 15.0908 27.9648C14.9521 27.9545 14.8141 27.9418 14.6768 27.9268C14.6615 27.9251 14.6461 27.9236 14.6309 27.9219C14.5148 27.9087 14.3992 27.8934 14.2842 27.877C14.2552 27.8728 14.2262 27.8686 14.1973 27.8643C14.0706 27.8452 13.9447 27.8238 13.8193 27.8008C13.791 27.7956 13.7626 27.7906 13.7344 27.7852C13.6552 27.77 13.5766 27.753 13.498 27.7363C13.3831 27.7118 13.269 27.685 13.1553 27.6572C13.0093 27.6217 12.8645 27.5837 12.7207 27.543C12.6538 27.5239 12.5869 27.5055 12.5205 27.4854C12.4238 27.4561 12.3281 27.4242 12.2324 27.3926C12.1665 27.3707 12.1006 27.3491 12.0352 27.3262C11.9372 27.2919 11.8399 27.2565 11.7432 27.2197C11.699 27.2029 11.6552 27.1853 11.6113 27.168C11.2543 27.0275 10.9058 26.871 10.5664 26.6982C10.5556 26.6928 10.5449 26.6872 10.5342 26.6816C6.65576 24.6931 4 20.6581 4 16C4 9.37258 9.37258 4 16 4ZM14.4541 21.2725C12.7975 21.2727 11.4542 22.6159 11.4541 24.2725V24.9053C11.8766 25.1218 12.3171 25.3083 12.7715 25.4639C12.7804 25.4669 12.789 25.4706 12.7979 25.4736C12.9555 25.5271 13.1153 25.5754 13.2764 25.6211C13.645 25.7252 14.0216 25.8105 14.4062 25.8721C14.44 25.8775 14.4739 25.8826 14.5078 25.8877C14.9947 25.9606 15.4928 26 16 26C16.5072 26 17.0053 25.9606 17.4922 25.8877C17.5258 25.8826 17.5593 25.8775 17.5928 25.8721C17.9886 25.8087 18.376 25.7207 18.7549 25.6123C18.9047 25.5692 19.0533 25.5234 19.2002 25.4736C19.2094 25.4705 19.2184 25.467 19.2275 25.4639C19.6821 25.3083 20.1223 25.1219 20.5449 24.9053V24.2725C20.5448 22.6157 19.2017 21.2725 17.5449 21.2725H14.4541ZM16 6C10.4772 6 6 10.4772 6 16C6 19.0409 7.35915 21.7626 9.50098 23.5967C9.83104 21.1552 11.9222 19.2727 14.4541 19.2725H17.5449C20.0773 19.2725 22.1683 21.1556 22.498 23.5977C24.6405 21.7636 26 19.0414 26 16C26 10.4772 21.5228 6 16 6ZM16 8.36328C18.4096 8.36348 20.3639 10.317 20.3643 12.7266L20.3584 12.9512C20.2417 15.2568 18.3346 17.0906 16 17.0908L15.7754 17.085C13.47 16.9679 11.6367 15.0611 11.6367 12.7266C11.6371 10.317 13.5904 8.36347 16 8.36328ZM16 10.3633C14.695 10.3635 13.6371 11.4216 13.6367 12.7266C13.6367 14.0318 14.6948 15.0906 16 15.0908C17.3052 15.0906 18.3643 14.0318 18.3643 12.7266C18.3639 11.4216 17.305 10.3635 16 10.3633Z" fill="#E94B64"/>
</svg>
