<svg width="64" height="64" viewBox="0 0 64 64" fill="none" xmlns="http://www.w3.org/2000/svg">
<path d="M28.8 6.39999C25.4052 6.39999 22.1495 7.74856 19.749 10.149C17.3486 12.5495 16 15.8052 16 19.2C16 22.5948 17.3486 25.8505 19.749 28.251C22.1495 30.6514 25.4052 32 28.8 32C32.1948 32 35.4505 30.6514 37.851 28.251C40.2514 25.8505 41.6 22.5948 41.6 19.2C41.6 15.8052 40.2514 12.5495 37.851 10.149C35.4505 7.74856 32.1948 6.39999 28.8 6.39999ZM19.2 19.2C19.2 16.6539 20.2114 14.2121 22.0118 12.4118C23.8121 10.6114 26.2539 9.59999 28.8 9.59999C31.3461 9.59999 33.7879 10.6114 35.5882 12.4118C37.3886 14.2121 38.4 16.6539 38.4 19.2C38.4 21.7461 37.3886 24.1879 35.5882 25.9882C33.7879 27.7886 31.3461 28.8 28.8 28.8C26.2539 28.8 23.8121 27.7886 22.0118 25.9882C20.2114 24.1879 19.2 21.7461 19.2 19.2ZM12.8288 35.2C11.9859 35.1962 11.1506 35.3589 10.3708 35.6789C9.59096 35.9988 8.88203 36.4696 8.28468 37.0643C7.68733 37.659 7.21334 38.3658 6.88991 39.1441C6.56648 39.9225 6.39999 40.7571 6.39999 41.6C6.39999 47.0112 9.06559 51.0912 13.232 53.7504C17.3344 56.3648 22.864 57.6 28.8 57.6C29.9888 57.5997 31.1771 57.5485 32.3616 57.4464C31.6067 57.248 30.9125 56.866 30.3408 56.3345C29.7691 55.8031 29.3376 55.1385 29.0848 54.4H28.8C23.248 54.4 18.3776 53.2352 14.9536 51.0496C11.5936 48.9056 9.59999 45.792 9.59999 41.6C9.59999 39.8304 11.0336 38.4 12.8288 38.4H34C34.2944 37.2608 34.7317 36.1941 35.312 35.2H12.8288ZM36.7968 41.6C36.7968 39.0539 37.8082 36.6121 39.6086 34.8118C41.4089 33.0114 43.8507 32 46.3968 32C48.9429 32 51.3847 33.0114 53.185 34.8118C54.9854 36.6121 55.9968 39.0539 55.9968 41.6V48L60.2208 51.5808C60.4702 51.7927 60.6486 52.076 60.7319 52.3925C60.8153 52.709 60.7996 53.0435 60.6869 53.3507C60.5742 53.658 60.3701 53.9234 60.1019 54.111C59.8337 54.2986 59.5145 54.3995 59.1872 54.4H33.6096C33.2823 54.3995 32.9631 54.2986 32.6949 54.111C32.4267 53.9234 32.2226 53.658 32.1099 53.3507C31.9972 53.0435 31.9815 52.709 32.0649 52.3925C32.1482 52.076 32.3266 51.7927 32.576 51.5808L36.8 48L36.7968 41.6ZM46.3968 60.8C45.4043 60.7999 44.4362 60.4921 43.6259 59.919C42.8156 59.3459 42.2028 58.5357 41.872 57.6H50.9248C50.5938 58.5362 49.9805 59.3468 49.1696 59.9199C48.3586 60.493 47.3898 60.8005 46.3968 60.8Z" fill="#E94B64"/>
</svg>
