<svg width="24" height="25" viewBox="0 0 24 25" fill="none" xmlns="http://www.w3.org/2000/svg">
<path d="M10.6873 12.4381C10.6873 13.0106 11.1223 13.4747 11.6588 13.4747C12.1954 13.4747 12.6304 13.0106 12.6304 12.4381C12.6304 11.8656 12.1954 11.4015 11.6588 11.4015C11.1223 11.4015 10.6873 11.8656 10.6873 12.4381Z" stroke="#32343E" stroke-width="1.94306" stroke-linecap="round" stroke-linejoin="round"/>
<path d="M17.4881 12.4381C17.4881 13.0106 17.9231 13.4747 18.4596 13.4747C18.9962 13.4747 19.4312 13.0106 19.4312 12.4381C19.4312 11.8656 18.9962 11.4015 18.4596 11.4015C17.9231 11.4015 17.4881 11.8656 17.4881 12.4381Z" stroke="#32343E" stroke-width="1.94306" stroke-linecap="round" stroke-linejoin="round"/>
<path d="M3.88653 12.4381C3.88653 13.0106 4.3215 13.4747 4.85806 13.4747C5.39462 13.4747 5.82959 13.0106 5.82959 12.4381C5.82959 11.8656 5.39462 11.4015 4.85806 11.4015C4.3215 11.4015 3.88653 11.8656 3.88653 12.4381Z" stroke="#32343E" stroke-width="1.94306" stroke-linecap="round" stroke-linejoin="round"/>
</svg>
