<svg width="43" height="38" viewBox="0 0 43 38" fill="none" xmlns="http://www.w3.org/2000/svg">
<path d="M2.30835 14.875C2.30835 14.5103 2.47484 14.1606 2.77121 13.9027C3.06757 13.6449 3.46953 13.5 3.88865 13.5H38.6553C39.0744 13.5 39.4763 13.6449 39.7727 13.9027C40.0691 14.1606 40.2356 14.5103 40.2356 14.875V35.9583C40.2356 36.323 40.0691 36.6727 39.7727 36.9306C39.4763 37.1885 39.0744 37.3333 38.6553 37.3333H3.88865C3.46953 37.3333 3.06757 37.1885 2.77121 36.9306C2.47484 36.6727 2.30835 36.323 2.30835 35.9583V14.875Z" fill="#3F3D56"/>
<path d="M8.62952 22.2085C8.62952 21.8438 8.79601 21.4941 9.09238 21.2362C9.38874 20.9784 9.7907 20.8335 10.2098 20.8335H19.6916C20.1107 20.8335 20.5127 20.9784 20.8091 21.2362C21.1054 21.4941 21.2719 21.8438 21.2719 22.2085V37.3335H8.62952V22.2085Z" fill="url(#paint0_linear_71_568)" fill-opacity="0.8"/>
<path d="M23.3788 22.2085C23.3788 21.8438 23.5453 21.4941 23.8416 21.2362C24.138 20.9784 24.54 20.8335 24.9591 20.8335H32.3338C32.7529 20.8335 33.1549 20.9784 33.4513 21.2362C33.7476 21.4941 33.9141 21.8438 33.9141 22.2085V28.6252C33.9141 28.9898 33.7476 29.3396 33.4513 29.5974C33.1549 29.8553 32.7529 30.0002 32.3338 30.0002H24.9591C24.54 30.0002 24.138 29.8553 23.8416 29.5974C23.5453 29.3396 23.3788 28.9898 23.3788 28.6252V22.2085Z" fill="url(#paint1_linear_71_568)" fill-opacity="0.8"/>
<path d="M25.4859 8.00008L23.3788 0.666748H33.7224C34.0151 0.666934 34.3045 0.720175 34.5722 0.823077C34.84 0.925979 35.0801 1.07629 35.2774 1.26441L41.7924 7.47575C42.1464 7.81358 42.3425 8.25427 42.3424 8.71142V11.6667C42.3424 13.6117 41.4544 15.4769 39.8738 16.8522C38.2932 18.2275 36.1494 19.0001 33.9141 19.0001C31.6788 19.0001 29.535 18.2275 27.9544 16.8522C26.3738 15.4769 25.4859 13.6117 25.4859 11.6667V8.00008Z" fill="url(#paint2_linear_71_568)"/>
<path d="M0.20105 8.71142C0.200895 8.25427 0.397032 7.81358 0.750994 7.47575L7.26605 1.26441C7.46308 1.07651 7.7029 0.926341 7.97024 0.823447C8.23759 0.720553 8.52662 0.667189 8.81896 0.666748H19.1647L17.0576 8.00008V11.6667C17.0576 13.6117 16.1696 15.4769 14.589 16.8522C13.0084 18.2275 10.8646 19.0001 8.62932 19.0001C6.394 19.0001 4.25024 18.2275 2.66963 16.8522C1.08903 15.4769 0.20105 13.6117 0.20105 11.6667V8.71142Z" fill="url(#paint3_linear_71_568)"/>
<path d="M12.8438 8.32275C12.8454 8.10995 12.8896 7.89902 12.9744 7.69941L16.0044 0.666748H26.5397L29.5697 7.69758C29.6547 7.89777 29.6989 8.10933 29.7003 8.32275V11.6667C29.7003 13.6117 28.8123 15.4769 27.2317 16.8522C25.6511 18.2275 23.5073 19.0001 21.272 19.0001C19.0367 19.0001 16.8929 18.2275 15.3123 16.8522C13.7317 15.4769 12.8438 13.6117 12.8438 11.6667V8.32275Z" fill="url(#paint4_linear_71_568)"/>
<defs>
<linearGradient id="paint0_linear_71_568" x1="9.08043" y1="23.9282" x2="20.1862" y2="32.7679" gradientUnits="userSpaceOnUse">
<stop stop-color="#D61355"/>
<stop offset="1" stop-color="#F59AA8"/>
</linearGradient>
<linearGradient id="paint1_linear_71_568" x1="26.5394" y1="19.8142" x2="29.5054" y2="32.0838" gradientUnits="userSpaceOnUse">
<stop stop-color="#FDFDFD"/>
<stop offset="1" stop-color="#B3E0FF"/>
</linearGradient>
<linearGradient id="paint2_linear_71_568" x1="32.1315" y1="0.666748" x2="32.1315" y2="8.68758" gradientUnits="userSpaceOnUse">
<stop stop-color="#FB6F7B"/>
<stop offset="1" stop-color="#D7257D"/>
</linearGradient>
<linearGradient id="paint3_linear_71_568" x1="8.95381" y1="0.666748" x2="8.95381" y2="8.68758" gradientUnits="userSpaceOnUse">
<stop stop-color="#FB6F7B"/>
<stop offset="1" stop-color="#D7257D"/>
</linearGradient>
<linearGradient id="paint4_linear_71_568" x1="21.272" y1="0.666748" x2="21.272" y2="8.68758" gradientUnits="userSpaceOnUse">
<stop offset="0.304" stop-color="#FF9FB2"/>
<stop offset="1" stop-color="#F97DBD"/>
</linearGradient>
</defs>
</svg>
