<svg width="32" height="32" viewBox="0 0 32 32" fill="none" xmlns="http://www.w3.org/2000/svg">
<g clip-path="url(#clip0_519_2304)">
<path d="M9 11.0002C9 9.14369 9.7375 7.36321 11.0503 6.05046C12.363 4.7377 14.1435 4.0002 16 4.0002C17.8565 4.0002 19.637 4.7377 20.9497 6.05046C22.2625 7.36321 23 9.14369 23 11.0002C23 11.2654 23.1054 11.5198 23.2929 11.7073C23.4804 11.8948 23.7348 12.0002 24 12.0002C24.2652 12.0002 24.5196 11.8948 24.7071 11.7073C24.8946 11.5198 25 11.2654 25 11.0002C24.9999 9.46533 24.6072 7.956 23.8593 6.61566C23.1114 5.27532 22.0332 4.14852 20.7271 3.34235C19.421 2.53619 17.9304 2.07745 16.397 2.00974C14.8637 1.94203 13.3384 2.2676 11.9664 2.9555C10.5943 3.6434 9.42091 4.67078 8.5578 5.93998C7.69469 7.20918 7.17052 8.67803 7.0351 10.2069C6.89968 11.7358 7.15751 13.2739 7.7841 14.6751C8.41068 16.0762 9.38519 17.2938 10.615 18.2122C11.6696 19 12.8841 19.5468 14.173 19.8142C14.352 20.2158 14.6584 20.5472 15.0448 20.7571C15.4311 20.9671 15.8759 21.0438 16.3102 20.9756C16.7446 20.9073 17.1443 20.6978 17.4476 20.3795C17.751 20.0611 17.9409 19.6517 17.9881 19.2146C18.0353 18.7774 17.9372 18.3369 17.7088 17.9611C17.4805 17.5854 17.1347 17.2954 16.7249 17.1359C16.3151 16.9765 15.8642 16.9565 15.442 17.0792C15.0197 17.2018 14.6497 17.4601 14.389 17.8142C12.8546 17.4513 11.4876 16.581 10.5096 15.3443C9.53148 14.1076 8.99957 12.5769 9 11.0002ZM10 11.0002C10.0004 9.89639 10.3053 8.81409 10.8811 7.87237C11.4569 6.93065 12.2813 6.16602 13.2637 5.66263C14.246 5.15923 15.3482 4.93657 16.4489 5.01915C17.5496 5.10174 18.6062 5.48636 19.5024 6.13069C20.3987 6.77503 21.0998 7.65411 21.5286 8.6712C21.9575 9.6883 22.0975 10.804 21.9331 11.8955C21.7688 12.987 21.3066 14.012 20.5973 14.8578C19.888 15.7036 18.9592 16.3373 17.913 16.6892C17.375 16.2439 16.6984 16.0002 16 16.0002C15.273 16.0002 14.607 16.2592 14.087 16.6892C12.8958 16.2885 11.8604 15.5238 11.1271 14.503C10.3938 13.4823 9.99955 12.257 10 11.0002ZM16 7.0002C14.9391 7.0002 13.9217 7.42163 13.1716 8.17178C12.4214 8.92192 12 9.93934 12 11.0002C12 12.0611 12.4214 13.0785 13.1716 13.8286C13.9217 14.5788 14.9391 15.0002 16 15.0002C17.0609 15.0002 18.0783 14.5788 18.8284 13.8286C19.5786 13.0785 20 12.0611 20 11.0002C20 9.93934 19.5786 8.92192 18.8284 8.17178C18.0783 7.42163 17.0609 7.0002 16 7.0002ZM7.5 18.0002H8.859C9.66287 18.8215 10.6023 19.4981 11.636 20.0002H7.5C7.10218 20.0002 6.72064 20.1582 6.43934 20.4395C6.15804 20.7208 6 21.1024 6 21.5002V22.0002C6 23.4732 6.94 24.9492 8.759 26.1062C10.566 27.2562 13.123 28.0002 15.999 28.0002C18.877 28.0002 21.434 27.2562 23.241 26.1062C25.061 24.9502 26 23.4722 26 22.0002V21.5002C26 21.1024 25.842 20.7208 25.5607 20.4395C25.2794 20.1582 24.8978 20.0002 24.5 20.0002H18.83C19.0588 19.3532 19.0588 18.6472 18.83 18.0002H24.5C25.4283 18.0002 26.3185 18.369 26.9749 19.0253C27.6313 19.6817 28 20.5719 28 21.5002V22.0002C28 24.3932 26.477 26.4172 24.315 27.7932C22.141 29.1772 19.198 30.0002 16 30.0002C12.802 30.0002 9.86 29.1772 7.685 27.7932C5.523 26.4172 4 24.3932 4 22.0002V21.5002C4 20.5719 4.36875 19.6817 5.02513 19.0253C5.6815 18.369 6.57174 18.0002 7.5 18.0002Z" fill="#D61355"/>
</g>
<defs>
<clipPath id="clip0_519_2304">
<rect width="32" height="32" fill="white"/>
</clipPath>
</defs>
</svg>
