<svg width="15" height="15" viewBox="0 0 15 15" fill="none" xmlns="http://www.w3.org/2000/svg">
<path d="M1.77822 1.08669L2.55844 0.253645C2.88772 -0.0979219 3.44561 -0.0979218 3.77489 0.253645L5.96646 2.59358C6.26661 2.91405 6.26661 3.41243 5.96646 3.7329L4.40397 5.40117C4.16 5.66165 4.09926 6.04445 4.25062 6.36766L4.33171 6.54082C5.19832 8.39137 6.64087 9.91155 8.4435 10.8739C8.77178 11.0491 9.17684 10.9822 9.43124 10.7105L10.8918 9.15112C11.2211 8.79956 11.7789 8.79956 12.1082 9.15112L14.2998 11.4911C14.5999 11.8115 14.5999 12.3099 14.2998 12.6304L13.8296 13.1324C12.0445 15.0383 9.09333 15.2496 7.05497 13.6173L6.13289 12.8789C4.71812 11.746 3.47119 10.4182 2.42937 8.93502L1.33611 7.37866C-0.0248563 5.4412 0.159694 2.81478 1.77822 1.08669Z" fill="#E94B64"/>
</svg>
