<svg width="22" height="25" viewBox="0 0 22 25" fill="none" xmlns="http://www.w3.org/2000/svg">
<path d="M4.58301 5.23828H17.417C17.6152 5.23837 17.8203 5.32181 17.9824 5.49512C18.1468 5.67095 18.2499 5.92346 18.25 6.19922V16.0049C18.25 16.2807 18.1468 16.5331 17.9824 16.709C17.8202 16.8825 17.6153 16.9667 17.417 16.9668H6.85059C6.29683 16.9668 5.76781 17.1961 5.38965 17.6006L3.75 19.3545V6.19922C3.75005 5.92346 3.8532 5.67095 4.01758 5.49512C4.15955 5.34338 4.33446 5.26055 4.50879 5.24219L4.58301 5.23828Z" stroke="#EB6278" stroke-width="2" stroke-linecap="round" stroke-linejoin="round"/>
<rect x="6.875" y="8.84253" width="8.25" height="1.53482" rx="0.767408" fill="#EB6278"/>
<rect x="6.875" y="11.9124" width="5.5" height="1.53481" rx="0.767407" fill="#EB6278"/>
</svg>
