<svg width="25" height="23" viewBox="0 0 25 23" fill="none" xmlns="http://www.w3.org/2000/svg">
<path d="M12.4999 1.9165C8.47446 1.9165 5.20825 4.67642 5.20825 8.07722C5.20825 13.5534 12.4999 21.0832 12.4999 21.0832C12.4999 21.0832 19.7916 13.5534 19.7916 8.07722C19.7916 4.67642 16.5254 1.9165 12.4999 1.9165ZM12.4999 11.4998C11.9231 11.4998 11.3591 11.3392 10.8795 11.0384C10.3999 10.7375 10.026 10.3099 9.80527 9.80957C9.58451 9.30924 9.52675 8.7587 9.63929 8.22757C9.75183 7.69643 10.0296 7.20855 10.4375 6.82562C10.8454 6.44269 11.3651 6.18191 11.9309 6.07626C12.4967 5.97061 13.0831 6.02483 13.6161 6.23207C14.149 6.43931 14.6046 6.79026 14.925 7.24054C15.2455 7.69081 15.4166 8.2202 15.4166 8.76174C15.4157 9.48769 15.1082 10.1837 14.5614 10.697C14.0146 11.2103 13.2732 11.499 12.4999 11.4998Z" fill="#E94B64"/>
</svg>
