<svg width="22" height="25" viewBox="0 0 22 25" fill="none" xmlns="http://www.w3.org/2000/svg">
<path d="M6.75016 4.04167H3.91683C2.35202 4.04167 1.0835 5.12365 1.0835 6.45833V20.9583C1.0835 22.293 2.35202 23.375 3.91683 23.375H18.0835C19.6483 23.375 20.9168 22.293 20.9168 20.9583V6.45833C20.9168 5.12365 19.6483 4.04167 18.0835 4.04167H15.2502M6.75016 4.04167C6.75016 5.37635 8.01869 6.45833 9.5835 6.45833H12.4168C13.9816 6.45833 15.2502 5.37635 15.2502 4.04167M6.75016 4.04167C6.75016 2.70698 8.01869 1.625 9.5835 1.625H12.4168C13.9816 1.625 15.2502 2.70698 15.2502 4.04167M11.0002 12.5H15.2502M11.0002 17.3333H15.2502M6.75016 12.5H6.76433M6.75016 17.3333H6.76433" stroke="white" stroke-width="2" stroke-linecap="round"/>
</svg>
