<svg width="26" height="28" viewBox="0 0 26 28" fill="none" xmlns="http://www.w3.org/2000/svg">
<path d="M12.9995 5.79932C14.7951 5.79932 16.3579 7.37374 16.3579 9.45166C16.3578 11.5294 14.795 13.103 12.9995 13.103C11.2041 13.1028 9.64125 11.5293 9.64111 9.45166C9.64111 7.37387 11.2041 5.79951 12.9995 5.79932Z" stroke="#FF5963" stroke-width="1.95" stroke-linecap="round"/>
<path d="M5.26778 19.7447C5.95568 17.1035 8.6482 15.813 11.3775 15.813H14.6225C17.3518 15.813 20.0443 17.1035 20.7322 19.7447C20.8866 20.3374 21.0089 20.9829 21.0738 21.671C21.13 22.2667 20.64 22.753 20.0417 22.753H5.95833C5.36003 22.753 4.87001 22.2667 4.9262 21.671C4.99112 20.9829 5.11341 20.3374 5.26778 19.7447Z" stroke="#FF5963" stroke-width="1.95" stroke-linecap="round"/>
</svg>
