<svg width="25" height="24" viewBox="0 0 25 24" fill="none" xmlns="http://www.w3.org/2000/svg">
<path d="M2.08325 12C2.08325 9.34784 3.18072 6.8043 5.13422 4.92893C7.08773 3.05357 9.73725 2 12.4999 2C15.2626 2 17.9121 3.05357 19.8656 4.92893C21.8191 6.8043 22.9166 9.34784 22.9166 12C22.9166 14.6522 21.8191 17.1957 19.8656 19.0711C17.9121 20.9464 15.2626 22 12.4999 22C9.73725 22 7.08773 20.9464 5.13422 19.0711C3.18072 17.1957 2.08325 14.6522 2.08325 12ZM12.4999 7C12.2695 7 12.0485 7.08787 11.8856 7.24427C11.7227 7.40068 11.6312 7.61281 11.6312 7.834V11.166H8.16034C7.92993 11.166 7.70896 11.2539 7.54604 11.4103C7.38311 11.5667 7.29159 11.7788 7.29159 12C7.29159 12.2212 7.38311 12.4333 7.54604 12.5897C7.70896 12.7461 7.92993 12.834 8.16034 12.834H11.6312V16.166C11.6312 16.3872 11.7227 16.5993 11.8856 16.7557C12.0485 16.9121 12.2695 17 12.4999 17C12.7303 17 12.9513 16.9121 13.1142 16.7557C13.2771 16.5993 13.3687 16.3872 13.3687 16.166V12.834H16.8395C17.0699 12.834 17.2909 12.7461 17.4538 12.5897C17.6167 12.4333 17.7083 12.2212 17.7083 12C17.7083 11.7788 17.6167 11.5667 17.4538 11.4103C17.2909 11.2539 17.0699 11.166 16.8395 11.166H13.3687V7.834C13.3687 7.61281 13.2771 7.40068 13.1142 7.24427C12.9513 7.08787 12.7303 7 12.4999 7Z" fill="#1A1A1A"/>
</svg>
