<svg width="27" height="26" viewBox="0 0 27 26" fill="none" xmlns="http://www.w3.org/2000/svg">
<path d="M4.77329 12.6988L0.073191 1.33174C0.00123274 1.1582 -0.0164754 0.968919 0.0221545 0.78622C0.0607843 0.603522 0.154141 0.435025 0.291217 0.300597C0.428292 0.16617 0.60337 0.0714183 0.795805 0.0275159C0.98824 -0.0163865 1.19001 -0.00760901 1.37731 0.0528134L1.50606 0.103606L26.4256 11.8249C26.5863 11.9004 26.7234 12.0139 26.8236 12.1541C26.9238 12.2944 26.9835 12.4567 26.9971 12.6252C27.0106 12.7937 26.9774 12.9626 26.9008 13.1155C26.8242 13.2683 26.7067 13.3998 26.5599 13.4972L26.4256 13.5727L1.50606 25.2941C0.698948 25.673 -0.178773 24.975 0.0316585 24.1896L0.073191 24.0659L4.77329 12.6988ZM2.98462 2.98315L6.59796 11.7221H15.7725C16.0234 11.7221 16.2658 11.8075 16.4549 11.9627C16.644 12.1178 16.767 12.3321 16.8011 12.566L16.8108 12.6988C16.8108 12.9351 16.7197 13.1633 16.5545 13.3412C16.3893 13.5191 16.1612 13.6347 15.9123 13.6665L15.7725 13.6756H6.59519L2.98324 22.4145L23.6401 12.6988L2.98462 2.98315Z" fill="#E94B64"/>
</svg>
