<svg width="24" height="25" viewBox="0 0 24 25" fill="none" xmlns="http://www.w3.org/2000/svg">
<path d="M13.5 14.8438V19.5312C13.5 19.7385 13.579 19.9372 13.7197 20.0837C13.8603 20.2302 14.0511 20.3125 14.25 20.3125H18.75C18.9489 20.3125 19.1397 20.2302 19.2803 20.0837C19.421 19.9372 19.5 19.7385 19.5 19.5312V14.8438C19.5 14.6365 19.421 14.4378 19.2803 14.2913C19.1397 14.1448 18.9489 14.0625 18.75 14.0625H14.25C14.0511 14.0625 13.8603 14.1448 13.7197 14.2913C13.579 14.4378 13.5 14.6365 13.5 14.8438ZM15 18.75V15.625H18V18.75H15ZM4.5 0C4.39007 4.29376e-05 4.28149 0.0252581 4.18196 0.0738602C4.08242 0.122462 3.99436 0.193263 3.924 0.28125L0.174 4.96875C0.0616486 5.10909 7.8935e-05 5.28602 0 5.46875V7.8125C0 9.2 0.579 10.4484 1.5 11.3062V24.2188C1.5 24.426 1.57902 24.6247 1.71967 24.7712C1.86032 24.9177 2.05109 25 2.25 25H21.75C21.9489 25 22.1397 24.9177 22.2803 24.7712C22.421 24.6247 22.5 24.426 22.5 24.2188V11.3062C23.421 10.4469 24 9.2 24 7.8125V5.44062C24 5.3 24 5.1875 23.826 4.96875L20.076 0.28125C20.0056 0.193263 19.9176 0.122462 19.818 0.0738602C19.7185 0.0252581 19.6099 4.29376e-05 19.5 0H4.5ZM4.5 10.9375C3.70435 10.9375 2.94129 10.6083 2.37868 10.0222C1.81607 9.43616 1.5 8.6413 1.5 7.8125V6.25H7.5V7.8125C7.5 8.6413 7.18393 9.43616 6.62132 10.0222C6.05871 10.6083 5.29565 10.9375 4.5 10.9375ZM12 10.9375C11.2044 10.9375 10.4413 10.6083 9.87868 10.0222C9.31607 9.43616 9 8.6413 9 7.8125V6.25H15V7.8125C15 8.6413 14.6839 9.43616 14.1213 10.0222C13.5587 10.6083 12.7956 10.9375 12 10.9375ZM19.5 10.9375C18.7044 10.9375 17.9413 10.6083 17.3787 10.0222C16.8161 9.43616 16.5 8.6413 16.5 7.8125V6.25H22.5V7.8125C22.5 8.6413 22.1839 9.43616 21.6213 10.0222C21.0587 10.6083 20.2956 10.9375 19.5 10.9375ZM4.5 23.4375H3V12.2344C3.94552 12.5826 4.97563 12.5919 5.92677 12.2607C6.87792 11.9295 7.6956 11.2768 8.25 10.4062C8.66077 11.0504 9.21815 11.5786 9.87244 11.9439C10.5267 12.3093 11.2576 12.5003 12 12.5C12.7425 12.5001 13.4735 12.3089 14.1278 11.9433C14.7821 11.5777 15.3394 11.0491 15.75 10.4047C16.3044 11.2752 17.1221 11.9279 18.0732 12.2591C19.0244 12.5903 20.0545 12.5811 21 12.2328V23.4375H12V14.8438C12 14.6365 11.921 14.4378 11.7803 14.2913C11.6397 14.1448 11.4489 14.0625 11.25 14.0625H5.25C5.05109 14.0625 4.86032 14.1448 4.71967 14.2913C4.57902 14.4378 4.5 14.6365 4.5 14.8438V23.4375ZM7.71 4.6875H2.352L4.851 1.5625H8.709L7.71 4.6875ZM14.709 4.6875H9.291L10.29 1.5625H13.71L14.709 4.6875ZM16.29 4.6875L15.291 1.5625H19.149L21.6495 4.6875H16.29ZM6 23.4375V15.625H10.5V23.4375H6Z" fill="#9C9BA6"/>
</svg>
