<svg xmlns="http://www.w3.org/2000/svg" width="26" height="30" viewBox="0 0 26 30" fill="none">
<path d="M3.4375 2.53125C3.4375 2.05883 3.26959 1.60576 2.9707 1.27172C2.67182 0.937667 2.26644 0.75 1.84375 0.75C1.42106 0.75 1.01568 0.937667 0.716798 1.27172C0.417912 1.60576 0.25 2.05883 0.25 2.53125V22.7188C0.25 24.4509 0.865679 26.1122 1.96159 27.337C3.05751 28.5619 4.54389 29.25 6.09375 29.25H24.1562C24.5789 29.25 24.9843 29.0623 25.2832 28.7283C25.5821 28.3942 25.75 27.9412 25.75 27.4688C25.75 26.9963 25.5821 26.5433 25.2832 26.2092C24.9843 25.8752 24.5789 25.6875 24.1562 25.6875H6.09375C4.6275 25.6875 3.4375 24.3575 3.4375 22.7188V2.53125ZM16.7188 7.28125C16.7188 8.2645 17.4328 9.0625 18.3125 9.0625H20.31L15.125 14.8575L12.0013 11.3662C11.7024 11.0327 11.2973 10.8453 10.875 10.8453C10.4527 10.8453 10.0476 11.0327 9.74875 11.3662L6.56125 14.9287C6.27973 15.2664 6.12647 15.713 6.13375 16.1745C6.14104 16.636 6.3083 17.0762 6.6003 17.4026C6.89231 17.729 7.28625 17.9159 7.69914 17.924C8.11203 17.9322 8.51163 17.7609 8.81375 17.4462L10.875 15.1425L13.9988 18.6337C14.2976 18.9673 14.7027 19.1547 15.125 19.1547C15.5473 19.1547 15.9524 18.9673 16.2512 18.6337L22.5625 11.58V13.9954C22.5625 14.4678 22.7304 14.9209 23.0293 15.2549C23.3282 15.589 23.7336 15.7766 24.1562 15.7766C24.5789 15.7766 24.9843 15.589 25.2832 15.2549C25.5821 14.9209 25.75 14.4678 25.75 13.9954V7.28125C25.75 6.80883 25.5821 6.35576 25.2832 6.02172C24.9843 5.68767 24.5789 5.5 24.1562 5.5H18.3125C17.8898 5.5 17.4844 5.68767 17.1855 6.02172C16.8867 6.35576 16.7188 6.80883 16.7188 7.28125Z" fill="#9f9f9f"/>
</svg>