<svg width="17" height="16" viewBox="0 0 17 16" fill="none" xmlns="http://www.w3.org/2000/svg">
<path d="M3.54875 1C2.94419 1 2.39328 1.3785 2.25038 1.958C2.091 2.605 1.85938 3.715 1.85938 4.75C1.85925 5.27735 1.99548 5.79681 2.2563 6.26355C2.51712 6.73029 2.89469 7.13028 3.35644 7.429C3.60506 7.5895 3.71875 7.7855 3.71875 7.945C3.71858 7.96171 3.71751 7.9784 3.71556 7.995C3.68475 8.24 3.55353 9.285 3.42975 10.367C3.30756 11.431 3.1875 12.5795 3.1875 13C3.1875 13.5304 3.41138 14.0391 3.8099 14.4142C4.20841 14.7893 4.74891 15 5.3125 15C5.87609 15 6.41659 14.7893 6.8151 14.4142C7.21362 14.0391 7.4375 13.5304 7.4375 13C7.4375 12.58 7.31691 11.431 7.19525 10.367C7.07147 9.285 6.94025 8.2395 6.90944 7.9945C6.90749 7.9779 6.90642 7.96121 6.90625 7.9445C6.90625 7.7855 7.01994 7.5895 7.26803 7.429C7.72988 7.13033 8.10756 6.73037 8.36847 6.26363C8.62938 5.79689 8.76569 5.2774 8.76562 4.75C8.76562 3.7145 8.53453 2.6045 8.37463 1.958C8.23172 1.3785 7.68081 1 7.07625 1C6.76064 0.999555 6.4547 1.10243 6.21084 1.291C5.9544 1.10217 5.6381 0.999709 5.3125 1C4.97356 1 4.66172 1.1085 4.41416 1.291C4.1703 1.10243 3.86436 0.999555 3.54875 1ZM6.77344 2.285C6.77344 2.20941 6.80534 2.13692 6.86213 2.08348C6.91892 2.03003 6.99594 2 7.07625 2C7.21438 2 7.31531 2.083 7.33975 2.1845C7.49381 2.809 7.70312 3.8305 7.70312 4.75C7.7032 5.11519 7.60883 5.47491 7.42816 5.7981C7.24749 6.12128 6.98595 6.39822 6.66613 6.605C6.24644 6.8765 5.84375 7.3415 5.84375 7.945C5.84375 8.00067 5.84729 8.05667 5.85438 8.113C5.88519 8.3565 6.01587 9.398 6.13912 10.474C6.26344 11.5675 6.375 12.6475 6.375 13C6.375 13.2652 6.26306 13.5196 6.0638 13.7071C5.86454 13.8946 5.59429 14 5.3125 14C5.03071 14 4.76046 13.8946 4.5612 13.7071C4.36194 13.5196 4.25 13.2652 4.25 13C4.25 12.6475 4.36103 11.5675 4.48588 10.474C4.60913 9.398 4.73981 8.3565 4.77062 8.113C4.77771 8.05634 4.78125 8.00034 4.78125 7.945C4.78125 7.3415 4.37803 6.8765 3.95888 6.605C3.63905 6.39822 3.37751 6.12128 3.19684 5.7981C3.01617 5.47491 2.9218 5.11519 2.92188 4.75C2.92188 3.83 3.13119 2.809 3.28525 2.1845C3.29996 2.12994 3.3342 2.08181 3.38218 2.04821C3.43017 2.0146 3.48899 1.99758 3.54875 2C3.62906 2 3.70608 2.03003 3.76287 2.08348C3.81966 2.13692 3.85156 2.20941 3.85156 2.285V5C3.85156 5.13261 3.90753 5.25979 4.00716 5.35356C4.10679 5.44732 4.24192 5.5 4.38281 5.5C4.52371 5.5 4.65883 5.44732 4.75846 5.35356C4.85809 5.25979 4.91406 5.13261 4.91406 5V2.375C4.91406 2.27555 4.95604 2.18016 5.03076 2.10984C5.10548 2.03951 5.20683 2 5.3125 2C5.41817 2 5.51952 2.03951 5.59424 2.10984C5.66896 2.18016 5.71094 2.27555 5.71094 2.375V5C5.71094 5.13261 5.76691 5.25979 5.86654 5.35356C5.96617 5.44732 6.10129 5.5 6.24219 5.5C6.38308 5.5 6.51821 5.44732 6.61784 5.35356C6.71747 5.25979 6.77344 5.13261 6.77344 5V2.285ZM10.625 4.75C10.6249 4.06387 10.8973 3.40248 11.3888 2.89571C11.8803 2.38893 12.5553 2.07338 13.2812 2.011V7.5C13.2812 7.6395 13.3105 7.954 13.3487 8.329C13.3886 8.7175 13.4427 9.208 13.4996 9.725V9.7265C13.6499 11.082 13.8125 12.568 13.8125 13C13.8125 13.2652 13.7006 13.5196 13.5013 13.7071C13.302 13.8946 13.0318 14 12.75 14C12.4682 14 12.198 13.8946 11.9987 13.7071C11.7994 13.5196 11.6875 13.2652 11.6875 13C11.6875 12.643 11.8001 11.4425 11.9255 10.228C12.0164 9.35364 12.1111 8.47963 12.2097 7.606C12.2128 7.57956 12.2151 7.55306 12.2166 7.5265C12.2204 7.45869 12.2096 7.39085 12.1846 7.32713C12.1597 7.26341 12.1212 7.20514 12.0715 7.15587C12.0219 7.10661 11.9621 7.06738 11.8958 7.04058C11.8295 7.01378 11.7581 6.99997 11.6859 7H10.8906C10.8202 7 10.7526 6.97366 10.7028 6.92678C10.653 6.87989 10.625 6.81631 10.625 6.75V4.75ZM13.5469 1C12.4902 1 11.4767 1.39509 10.7295 2.09835C9.98228 2.80161 9.5625 3.75544 9.5625 4.75V6.75C9.5625 7.08152 9.70243 7.39947 9.9515 7.63389C10.2006 7.86831 10.5384 8 10.8906 8H11.0973C11.0183 8.71008 10.942 9.42042 10.8683 10.131C10.7461 11.316 10.625 12.581 10.625 13C10.625 13.5304 10.8489 14.0391 11.2474 14.4142C11.6459 14.7893 12.1864 15 12.75 15C13.3136 15 13.8541 14.7893 14.2526 14.4142C14.6511 14.0391 14.875 13.5304 14.875 13C14.875 12.5075 14.7066 10.9835 14.5637 9.6845L14.5568 9.6235C14.505 9.16016 14.4549 8.69666 14.4064 8.233C14.365 7.834 14.3438 7.579 14.3438 7.5V1.5C14.3438 1.36739 14.2878 1.24022 14.1882 1.14645C14.0885 1.05268 13.9534 1 13.8125 1H13.5469Z" fill="#1A1A1A"/>
</svg>
