<svg width="19" height="19" viewBox="0 0 19 19" fill="none" xmlns="http://www.w3.org/2000/svg">
<path d="M5.9375 1.78125C5.9375 1.62378 6.00006 1.47276 6.11141 1.36141C6.22275 1.25006 6.37378 1.1875 6.53125 1.1875H11.2812C11.4387 1.1875 11.5897 1.25006 11.7011 1.36141C11.8124 1.47276 11.875 1.62378 11.875 1.78125C11.875 1.93872 11.8124 2.08974 11.7011 2.20109C11.5897 2.31244 11.4387 2.375 11.2812 2.375H6.53125C6.37378 2.375 6.22275 2.31244 6.11141 2.20109C6.00006 2.08974 5.9375 1.93872 5.9375 1.78125ZM8.90625 5.9375C8.74878 5.9375 8.59775 6.00006 8.48641 6.11141C8.37506 6.22275 8.3125 6.37378 8.3125 6.53125V11.2812C8.3125 11.4387 8.37506 11.5897 8.48641 11.7011C8.59775 11.8124 8.74878 11.875 8.90625 11.875C9.06372 11.875 9.21475 11.8124 9.32609 11.7011C9.43744 11.5897 9.5 11.4387 9.5 11.2812V6.53125C9.5 6.37378 9.43744 6.22275 9.32609 6.11141C9.21475 6.00006 9.06372 5.9375 8.90625 5.9375ZM16.0312 10.6875C16.0312 12.5772 15.2806 14.3894 13.9444 15.7256C12.6082 17.0618 10.7959 17.8125 8.90625 17.8125C7.01658 17.8125 5.20431 17.0618 3.86811 15.7256C2.53192 14.3894 1.78125 12.5772 1.78125 10.6875C1.78125 8.79783 2.53192 6.98556 3.86811 5.64936C5.20431 4.31317 7.01658 3.5625 8.90625 3.5625C10.7959 3.5625 12.6082 4.31317 13.9444 5.64936C15.2806 6.98556 16.0312 8.79783 16.0312 10.6875ZM14.8438 10.6875C14.8438 9.11278 14.2182 7.60255 13.1047 6.48905C11.9912 5.37556 10.481 4.75 8.90625 4.75C7.33153 4.75 5.8213 5.37556 4.7078 6.48905C3.59431 7.60255 2.96875 9.11278 2.96875 10.6875C2.96875 12.2622 3.59431 13.7724 4.7078 14.8859C5.8213 15.9994 7.33153 16.625 8.90625 16.625C10.481 16.625 11.9912 15.9994 13.1047 14.8859C14.2182 13.7724 14.8438 12.2622 14.8438 10.6875ZM14.7879 3.13737C14.7332 3.08067 14.6676 3.03543 14.5952 3.00431C14.5228 2.9732 14.4449 2.95682 14.366 2.95613C14.2872 2.95545 14.209 2.97047 14.136 3.00032C14.0631 3.03018 13.9968 3.07427 13.941 3.13002C13.8853 3.18576 13.8412 3.25206 13.8113 3.32503C13.7815 3.398 13.7664 3.47618 13.7671 3.55502C13.7678 3.63386 13.7842 3.71177 13.8153 3.78421C13.8464 3.85665 13.8917 3.92217 13.9484 3.97694L15.6144 5.643C15.6692 5.69971 15.7347 5.74494 15.8072 5.77606C15.8796 5.80718 15.9575 5.82356 16.0364 5.82424C16.1152 5.82493 16.1934 5.8099 16.2663 5.78005C16.3393 5.7502 16.4056 5.70611 16.4614 5.65036C16.5171 5.59461 16.5612 5.52832 16.5911 5.45535C16.6209 5.38238 16.6359 5.30419 16.6352 5.22536C16.6346 5.14652 16.6182 5.06861 16.5871 4.99617C16.5559 4.92373 16.5107 4.85821 16.454 4.80344L14.7879 3.13737Z" fill="#1A1A1A"/>
</svg>
