<svg width="64" height="64" viewBox="0 0 64 64" fill="none" xmlns="http://www.w3.org/2000/svg">
<path d="M36 38V50C36 50.5304 36.2107 51.0391 36.5858 51.4142C36.9609 51.7893 37.4696 52 38 52H50C50.5304 52 51.0391 51.7893 51.4142 51.4142C51.7893 51.0391 52 50.5304 52 50V38C52 37.4696 51.7893 36.9609 51.4142 36.5858C51.0391 36.2107 50.5304 36 50 36H38C37.4696 36 36.9609 36.2107 36.5858 36.5858C36.2107 36.9609 36 37.4696 36 38ZM40 48V40H48V48H40ZM12 0C11.7069 0.00010992 11.4173 0.0646607 11.1519 0.189082C10.8864 0.313504 10.6516 0.494754 10.464 0.72L0.464 12.72C0.164396 13.0793 0.000210493 13.5322 0 14V20C0 23.552 1.544 26.748 4 28.944V62C4 62.5304 4.21071 63.0391 4.58579 63.4142C4.96086 63.7893 5.46957 64 6 64H58C58.5304 64 59.0391 63.7893 59.4142 63.4142C59.7893 63.0391 60 62.5304 60 62V28.944C62.456 26.744 64 23.552 64 20V13.928C64 13.568 64 13.28 63.536 12.72L53.536 0.72C53.3484 0.494754 53.1135 0.313504 52.8481 0.189082C52.5827 0.0646607 52.2931 0.00010992 52 0H12ZM12 28C9.87827 28 7.84344 27.1571 6.34315 25.6569C4.84285 24.1566 4 22.1217 4 20V16H20V20C20 22.1217 19.1571 24.1566 17.6569 25.6569C16.1566 27.1571 14.1217 28 12 28ZM32 28C29.8783 28 27.8434 27.1571 26.3431 25.6569C24.8429 24.1566 24 22.1217 24 20V16H40V20C40 22.1217 39.1571 24.1566 37.6569 25.6569C36.1566 27.1571 34.1217 28 32 28ZM52 28C49.8783 28 47.8434 27.1571 46.3431 25.6569C44.8429 24.1566 44 22.1217 44 20V16H60V20C60 22.1217 59.1571 24.1566 57.6569 25.6569C56.1566 27.1571 54.1217 28 52 28ZM12 60H8V31.32C10.5214 32.2115 13.2683 32.2352 15.8047 31.3873C18.3411 30.5394 20.5216 28.8686 22 26.64C23.0954 28.2889 24.5817 29.6413 26.3265 30.5765C28.0713 31.5117 30.0204 32.0007 32 32C33.98 32.0003 35.9293 31.5107 37.6741 30.5747C39.4189 29.6388 40.9051 28.2857 42 26.636C43.4784 28.8646 45.6589 30.5354 48.1953 31.3833C50.7317 32.2312 53.4786 32.2075 56 31.316V60H32V38C32 37.4696 31.7893 36.9609 31.4142 36.5858C31.0391 36.2107 30.5304 36 30 36H14C13.4696 36 12.9609 36.2107 12.5858 36.5858C12.2107 36.9609 12 37.4696 12 38V60ZM20.56 12H6.272L12.936 4H23.224L20.56 12ZM39.224 12H24.776L27.44 4H36.56L39.224 12ZM43.44 12L40.776 4H51.064L57.732 12H43.44ZM16 60V40H28V60H16Z" fill="#E94B64"/>
</svg>
