<svg width="64" height="64" viewBox="0 0 64 64" fill="none" xmlns="http://www.w3.org/2000/svg">
<path d="M36 22C36 26.7739 34.1036 31.3523 30.7279 34.7279C27.3523 38.1036 22.7739 40 18 40C13.2261 40 8.64773 38.1036 5.27208 34.7279C1.89642 31.3523 0 26.7739 0 22C0 17.2261 1.89642 12.6477 5.27208 9.27208C8.64773 5.89642 13.2261 4 18 4C22.7739 4 27.3523 5.89642 30.7279 9.27208C34.1036 12.6477 36 17.2261 36 22ZM18 12C17.4696 12 16.9609 12.2107 16.5858 12.5858C16.2107 12.9609 16 13.4696 16 14V22C16 22.5304 16.2107 23.0391 16.5858 23.4142C16.9609 23.7893 17.4696 24 18 24H24C24.5304 24 25.0391 23.7893 25.4142 23.4142C25.7893 23.0391 26 22.5304 26 22C26 21.4696 25.7893 20.9609 25.4142 20.5858C25.0391 20.2107 24.5304 20 24 20H20V14C20 13.4696 19.7893 12.9609 19.4142 12.5858C19.0391 12.2107 18.5304 12 18 12ZM50.412 38H33.104C34.3733 36.8 35.4867 35.4667 36.444 34H46.132L42.492 27.176C41.9006 26.0668 40.9757 25.1713 39.848 24.616C40.0122 23.2114 40.043 21.7944 39.94 20.384C41.2313 20.7526 42.4352 21.3774 43.4798 22.2214C44.5244 23.0653 45.3883 24.111 46.02 25.296L50.564 33.808L51.1 34H51.312V34.076L57.352 36.224C59.2962 36.9157 60.9789 38.192 62.1691 39.8778C63.3593 41.5636 63.9989 43.5764 64 45.64V46.996C64 49.836 62.312 52.276 59.88 53.376C59.5656 55.1775 58.6434 56.8169 57.2672 58.0211C55.8909 59.2254 54.1436 59.9217 52.3163 59.9942C50.489 60.0667 48.692 59.511 47.2246 58.4196C45.7573 57.3281 44.7081 55.7669 44.252 53.996H27.748C27.2918 55.7669 26.2427 57.3281 24.7754 58.4196C23.308 59.511 21.511 60.0667 19.6837 59.9942C17.8564 59.9217 16.1091 59.2254 14.7328 58.0211C13.3566 56.8169 12.4344 55.1775 12.12 53.376C10.8928 52.822 9.85139 51.9259 9.12063 50.795C8.38988 49.6641 8.00079 48.3464 8 47V42.544C8 42.2347 8.01333 41.928 8.04 41.624C9.29867 42.264 10.6187 42.7813 12 43.176V47C12 47.7 12.24 48.344 12.64 48.856C13.2952 47.3181 14.4157 46.0241 15.8441 45.1557C17.2725 44.2874 18.937 43.8883 20.6039 44.0145C22.2708 44.1407 23.8563 44.7859 25.1376 45.8594C26.419 46.933 27.3318 48.381 27.748 50H44.252C44.6691 48.3823 45.5822 46.9358 46.8631 45.8634C48.1441 44.791 49.7286 44.1465 51.3944 44.0203C53.0602 43.8942 54.7238 44.2926 56.1516 45.1599C57.5795 46.0271 58.7 47.3196 59.356 48.856C59.7729 48.3271 59.9997 47.6734 60 47V45.644C60 43.108 58.4 40.844 56.012 39.992L50.412 38ZM16 52C16 53.0609 16.4214 54.0783 17.1716 54.8284C17.9217 55.5786 18.9391 56 20 56C21.0609 56 22.0783 55.5786 22.8284 54.8284C23.5786 54.0783 24 53.0609 24 52C24 50.9391 23.5786 49.9217 22.8284 49.1716C22.0783 48.4214 21.0609 48 20 48C18.9391 48 17.9217 48.4214 17.1716 49.1716C16.4214 49.9217 16 50.9391 16 52ZM52 48C50.9391 48 49.9217 48.4214 49.1716 49.1716C48.4214 49.9217 48 50.9391 48 52C48 53.0609 48.4214 54.0783 49.1716 54.8284C49.9217 55.5786 50.9391 56 52 56C53.0609 56 54.0783 55.5786 54.8284 54.8284C55.5786 54.0783 56 53.0609 56 52C56 50.9391 55.5786 49.9217 54.8284 49.1716C54.0783 48.4214 53.0609 48 52 48Z" fill="#E94B64"/>
</svg>
