<svg width="29" height="29" viewBox="0 0 29 29" fill="none" xmlns="http://www.w3.org/2000/svg">
<path d="M14.5 7.97495C14.5 9.70549 13.8125 11.3651 12.5888 12.5888C11.3651 13.8125 9.70549 14.5 7.97495 14.5C6.24441 14.5 4.58475 13.8125 3.36108 12.5888C2.1374 11.3651 1.44995 9.70549 1.44995 7.97495C1.44995 6.24441 2.1374 4.58475 3.36108 3.36108C4.58475 2.1374 6.24441 1.44995 7.97495 1.44995C9.70549 1.44995 11.3651 2.1374 12.5888 3.36108C13.8125 4.58475 14.5 6.24441 14.5 7.97495ZM7.97495 4.34995C7.78267 4.34995 7.59826 4.42634 7.4623 4.5623C7.32634 4.69826 7.24995 4.88267 7.24995 5.07495V7.97495C7.24995 8.16723 7.32634 8.35164 7.4623 8.4876C7.59826 8.62357 7.78267 8.69995 7.97495 8.69995H10.15C10.3422 8.69995 10.5266 8.62357 10.6626 8.4876C10.7986 8.35164 10.875 8.16723 10.875 7.97495C10.875 7.78267 10.7986 7.59826 10.6626 7.4623C10.5266 7.32634 10.3422 7.24995 10.15 7.24995H8.69995V5.07495C8.69995 4.88267 8.62357 4.69826 8.4876 4.5623C8.35164 4.42634 8.16723 4.34995 7.97495 4.34995ZM4.34995 18.2149C4.34995 17.181 4.78785 16.2284 5.50705 15.5614C6.30416 15.8197 7.13701 15.9509 7.97495 15.95C10.672 15.95 13.0572 14.6102 14.5 12.5613V14.5014H20.1158L18.3193 11.2694C18.1309 10.9307 17.8556 10.6485 17.5216 10.452C17.1876 10.2554 16.8073 10.1516 16.4198 10.1514H15.6498C15.7833 9.67734 15.8726 9.19194 15.9166 8.7014H16.4183C17.0649 8.70126 17.6998 8.87409 18.2572 9.20196C18.8145 9.52984 19.274 10.0008 19.588 10.5661L21.8239 14.5928L24.8588 15.4019C25.6304 15.6076 26.3125 16.0624 26.7992 16.6956C27.2858 17.3288 27.5498 18.105 27.55 18.9036V20.6639C27.55 21.1504 27.4102 21.6266 27.1472 22.0359C26.8842 22.4452 26.5091 22.7702 26.0666 22.9723C25.9505 23.8207 25.5378 24.6005 24.9017 25.1737C24.2656 25.7469 23.4471 26.0764 22.5913 26.1038C21.7355 26.1313 20.8975 25.8549 20.226 25.3236C19.5545 24.7924 19.0927 24.0406 18.9225 23.2014H12.9775C12.8072 24.0406 12.3454 24.7924 11.6739 25.3236C11.0024 25.8549 10.1645 26.1313 9.30863 26.1038C8.4528 26.0764 7.63432 25.7469 6.99821 25.1737C6.3621 24.6005 5.94942 23.8207 5.8333 22.9723C5.39078 22.7702 5.01569 22.4452 4.7527 22.0359C4.48971 21.6266 4.34991 21.1504 4.34995 20.6639V18.2149ZM8.0141 15.9514L8.00975 15.9659L7.44715 16.1051C6.97668 16.2228 6.55904 16.4943 6.26059 16.8766C5.96214 17.2588 5.8 17.7299 5.79995 18.2149V20.6639C5.79995 20.8959 5.87245 21.1134 5.9986 21.2903C6.25888 20.5397 6.75843 19.8953 7.4205 19.4562C8.08257 19.0171 8.87051 18.8076 9.66325 18.8598C10.456 18.912 11.2096 19.2231 11.8084 19.7452C12.4071 20.2674 12.8179 20.9717 12.9775 21.75H18.9225C19.0808 20.9708 19.4909 20.2653 20.0897 19.7422C20.6884 19.2191 21.4425 18.9073 22.2358 18.8549C23.0292 18.8025 23.8177 19.0123 24.4801 19.4521C25.1424 19.8919 25.6418 20.5373 25.9013 21.2889C26.0305 21.1055 26.0999 20.8867 26.1 20.6625V18.9022C26.0999 18.4231 25.9417 17.9575 25.6498 17.5776C25.358 17.1976 24.9489 16.9247 24.4861 16.8011L21.2918 15.95L8.0141 15.9514ZM9.42495 20.3014C9.13933 20.3014 8.8565 20.3577 8.59262 20.467C8.32873 20.5763 8.08896 20.7365 7.88699 20.9384C7.68503 21.1404 7.52482 21.3802 7.41551 21.6441C7.30621 21.9079 7.24995 22.1908 7.24995 22.4764C7.24995 22.762 7.30621 23.0449 7.41551 23.3087C7.52482 23.5726 7.68503 23.8124 7.88699 24.0144C8.08896 24.2163 8.32873 24.3765 8.59262 24.4858C8.8565 24.5951 9.13933 24.6514 9.42495 24.6514C10.0018 24.6514 10.555 24.4223 10.9629 24.0144C11.3708 23.6065 11.6 23.0532 11.6 22.4764C11.6 21.8996 11.3708 21.3463 10.9629 20.9384C10.555 20.5306 10.0018 20.3014 9.42495 20.3014ZM22.475 20.3014C21.8981 20.3014 21.3449 20.5306 20.937 20.9384C20.5291 21.3463 20.3 21.8996 20.3 22.4764C20.3 23.0532 20.5291 23.6065 20.937 24.0144C21.3449 24.4223 21.8981 24.6514 22.475 24.6514C23.0518 24.6514 23.605 24.4223 24.0129 24.0144C24.4208 23.6065 24.65 23.0532 24.65 22.4764C24.65 21.8996 24.4208 21.3463 24.0129 20.9384C23.605 20.5306 23.0518 20.3014 22.475 20.3014Z" fill="#9F9F9F"/>
</svg>
